# File exported by Houdini 20.0.688 (www.sidefx.com)
# 104 points
# 312 vertices
# 54 primitives
# Bounds: [-0.200000003, 0, -0.150000006] to [0.200000003, 0.012000001, 0.150000006]
g 
v -0.192725003 0 -0.142725006
v 0.192725003 0 -0.142725006
v -0.192725003 0 0.142725006
v 0.192725003 0 0.142725006
v -0.200000003 0 -0.120899998
v -0.170900002 0 -0.150000006
v 0.170900002 0 -0.150000006
v 0.200000003 0 -0.120899998
v -0.170900002 0 0.150000006
v -0.200000003 0 0.120899998
v 0.200000003 0 0.120899998
v 0.170900002 0 0.150000006
v -0.175547928 0 -0.149797916
v -0.179791674 0 -0.149191663
v -0.183631256 0 -0.148181245
v -0.187066659 0 -0.146766663
v -0.190097913 0 -0.144947931
v -0.199797913 0 -0.125547931
v -0.199191675 0 -0.129791662
v -0.198181257 0 -0.133631259
v -0.19676666 0 -0.137066662
v -0.194947928 0 -0.140097916
v 0.199797913 0 -0.125547931
v 0.199191675 0 -0.129791662
v 0.198181257 0 -0.133631259
v 0.19676666 0 -0.137066662
v 0.194947928 0 -0.140097916
v 0.175547928 0 -0.149797916
v 0.179791674 0 -0.149191663
v 0.183631256 0 -0.148181245
v 0.187066659 0 -0.146766663
v 0.190097913 0 -0.144947931
v -0.199797913 0 0.125547931
v -0.199191675 0 0.129791662
v -0.198181257 0 0.133631259
v -0.19676666 0 0.137066662
v -0.194947928 0 0.140097916
v -0.175547928 0 0.149797916
v -0.179791674 0 0.149191663
v -0.183631256 0 0.148181245
v -0.187066659 0 0.146766663
v -0.190097913 0 0.144947931
v 0.175547928 0 0.149797916
v 0.179791674 0 0.149191663
v 0.183631256 0 0.148181245
v 0.187066659 0 0.146766663
v 0.190097913 0 0.144947931
v 0.199797913 0 0.125547931
v 0.199191675 0 0.129791662
v 0.198181257 0 0.133631259
v 0.19676666 0 0.137066662
v 0.194947928 0 0.140097916
v -0.200000003 0.012000001 -0.120899998
v -0.199797913 0.012000001 -0.125547931
v -0.199191675 0.012000001 -0.129791662
v -0.198181257 0.012000001 -0.133631259
v -0.19676666 0.012000001 -0.137066662
v -0.194947928 0.012000001 -0.140097916
v -0.192725003 0.012000001 -0.142725006
v -0.190097913 0.012000001 -0.144947931
v -0.187066659 0.012000001 -0.146766663
v -0.183631256 0.012000001 -0.148181245
v -0.179791674 0.012000001 -0.149191663
v -0.175547928 0.012000001 -0.149797916
v -0.170900002 0.012000001 -0.150000006
v 0.170900002 0.012000001 -0.150000006
v 0.175547928 0.012000001 -0.149797916
v 0.179791674 0.012000001 -0.149191663
v 0.183631256 0.012000001 -0.148181245
v 0.187066659 0.012000001 -0.146766663
v 0.190097913 0.012000001 -0.144947931
v 0.192725003 0.012000001 -0.142725006
v 0.194947928 0.012000001 -0.140097916
v 0.19676666 0.012000001 -0.137066662
v 0.198181257 0.012000001 -0.133631259
v 0.199191675 0.012000001 -0.129791662
v 0.199797913 0.012000001 -0.125547931
v 0.200000003 0.012000001 -0.120899998
v 0.200000003 0.012000001 0.120899998
v 0.199797913 0.012000001 0.125547931
v 0.199191675 0.012000001 0.129791662
v 0.198181257 0.012000001 0.133631259
v 0.19676666 0.012000001 0.137066662
v 0.194947928 0.012000001 0.140097916
v 0.192725003 0.012000001 0.142725006
v 0.190097913 0.012000001 0.144947931
v 0.187066659 0.012000001 0.146766663
v 0.183631256 0.012000001 0.148181245
v 0.179791674 0.012000001 0.149191663
v 0.175547928 0.012000001 0.149797916
v 0.170900002 0.012000001 0.150000006
v -0.170900002 0.012000001 0.150000006
v -0.175547928 0.012000001 0.149797916
v -0.179791674 0.012000001 0.149191663
v -0.183631256 0.012000001 0.148181245
v -0.187066659 0.012000001 0.146766663
v -0.190097913 0.012000001 0.144947931
v -0.192725003 0.012000001 0.142725006
v -0.194947928 0.012000001 0.140097916
v -0.19676666 0.012000001 0.137066662
v -0.198181257 0.012000001 0.133631259
v -0.199191675 0.012000001 0.129791662
v -0.199797913 0.012000001 0.125547931
v -0.200000003 0.012000001 0.120899998
vt 0.711295962 0.580513716 0
vt 0.711133957 0.578125954 0
vt 0.709999919 0.57010603 0
vt 0.708392084 0.562462687 0
vt 0.706222236 0.555661678 0
vt 0.703367889 0.549680352 0
vt 0.699808598 0.544420362 0
vt 0.69551599 0.539843082 0
vt 0.690457642 0.535958648 0
vt 0.684608102 0.532819211 0
vt 0.678347349 0.531282544 0
vt 0.671536446 0.530363083 0
vt 0.664076924 0.529923022 0
vt 0.0529902317 0.527106643 0
vt 0.0455477275 0.527442575 0
vt 0.038728863 0.528277099 0
vt 0.0323725827 0.529713094 0
vt 0.0264717601 0.532716274 0
vt 0.021351777 0.536483884 0
vt 0.0169877112 0.54095757 0
vt 0.0133470772 0.546121955 0
vt 0.0104002217 0.552005768 0
vt 0.00812551752 0.558687925 0
vt 0.00640291162 0.566189885 0
vt 0.00516035827 0.57413137 0
vt 0.0049955775 0.576283514 0
vt 0.001953125 0.923799932 0
vt 0.00211504824 0.926187873 0
vt 0.00324891531 0.93420738 0
vt 0.00485673593 0.941850722 0
vt 0.00702678692 0.948651969 0
vt 0.00988119841 0.954633534 0
vt 0.0134403035 0.959893346 0
vt 0.0177328493 0.964470148 0
vt 0.022791259 0.968355179 0
vt 0.0286407862 0.971494377 0
vt 0.0349014848 0.973030925 0
vt 0.0417125076 0.973950624 0
vt 0.0491719507 0.974390864 0
vt 0.66025883 0.977207005 0
vt 0.667701244 0.976871252 0
vt 0.674520075 0.976036727 0
vt 0.680876315 0.974600554 0
vt 0.686777174 0.971597612 0
vt 0.691897154 0.967829764 0
vt 0.696261108 0.963355899 0
vt 0.699901938 0.958191931 0
vt 0.702848852 0.952308059 0
vt 0.705123544 0.945625901 0
vt 0.706845999 0.938123584 0
vt 0.708088577 0.930182278 0
vt 0.708253324 0.928030312 0
vt 0.811574578 0.456142247 0
vt 0.811574578 0.0511435866 0
vt 0.811236084 0.043358624 0
vt 0.810220718 0.0362506509 0
vt 0.808528244 0.0298196077 0
vt 0.80615896 0.0240654945 0
vt 0.803112745 0.0189883709 0
vt 0.799389482 0.0145881772 0
vt 0.794989228 0.0108649731 0
vt 0.789912105 0.00781863928 0
vt 0.784157991 0.00544935465 0
vt 0.777726948 0.00375694036 0
vt 0.770618975 0.00274151564 0
vt 0.762834013 0.00240302086 0
vt 0.190342098 0.00240302086 0
vt 0.182557151 0.00274151564 0
vt 0.175449163 0.00375699997 0
vt 0.169018105 0.00544935465 0
vt 0.163264006 0.00781869888 0
vt 0.158186868 0.0108649731 0
vt 0.153786689 0.0145881772 0
vt 0.150063455 0.0189883709 0
vt 0.147017166 0.0240654945 0
vt 0.144647852 0.0298196077 0
vt 0.142955467 0.0362506509 0
vt 0.141940042 0.043358624 0
vt 0.141601562 0.0511435866 0
vt 0.141601562 0.456142247 0
vt 0.141940042 0.463927209 0
vt 0.142955467 0.471035242 0
vt 0.144647866 0.477466285 0
vt 0.147017181 0.483220339 0
vt 0.150063455 0.488297522 0
vt 0.153786689 0.492697656 0
vt 0.158186883 0.49642092 0
vt 0.163264036 0.499467194 0
vt 0.169018105 0.501836538 0
vt 0.175449163 0.503528893 0
vt 0.182557151 0.504544377 0
vt 0.190342098 0.504882812 0
vt 0.762834013 0.504882812 0
vt 0.770618975 0.504544377 0
vt 0.777726948 0.503528893 0
vt 0.784157991 0.501836538 0
vt 0.789912164 0.499467194 0
vt 0.794989288 0.49642092 0
vt 0.799389482 0.492697656 0
vt 0.803112686 0.488297462 0
vt 0.80615896 0.483220339 0
vt 0.808528244 0.477466285 0
vt 0.810220718 0.471035242 0
vt 0.811236084 0.463927209 0
vt 0.711828232 0.998046875 0
vt 0.711828232 0.978465438 0
vt 0.70483309 0.978465438 0
vt 0.70483309 0.998046875 0
vt 0.698354363 0.978465438 0
vt 0.698354363 0.998046875 0
vt 0.692291856 0.978465438 0
vt 0.692291856 0.998046875 0
vt 0.686523438 0.978465438 0
vt 0.686523438 0.998046875 0
vt 0.764272988 0.998046875 0
vt 0.764272988 0.978465378 0
vt 0.758657396 0.978465378 0
vt 0.758657455 0.998046875 0
vt 0.753041863 0.978465378 0
vt 0.753041863 0.998046875 0
vt 0.747273445 0.978465378 0
vt 0.747273505 0.998046875 0
vt 0.741210938 0.978465378 0
vt 0.741210938 0.998046875 0
vt 0.68838793 0.511711717 0
vt 0.681325376 0.510841131 0
vt 0.673697293 0.509935975 0
vt 0.665382266 0.509087324 0
vt 0.0519917496 0.506266773 0
vt 0.0436672531 0.506989479 0
vt 0.0360257328 0.507773936 0
vt 0.0289541073 0.508541226 0
vt 0.736929238 0.975585938 0
vt 0.736929238 0.956004441 0
vt 0.73086673 0.956004441 0
vt 0.73086673 0.975585938 0
vt 0.725098312 0.956004441 0
vt 0.725098312 0.975585938 0
vt 0.71948278 0.956004441 0
vt 0.71948278 0.975585938 0
vt 0.713867188 0.956004441 0
vt 0.713867188 0.975585938 0
vt 0.739171982 0.998046875 0
vt 0.739171982 0.978465438 0
vt 0.73217684 0.978465438 0
vt 0.73217684 0.998046875 0
vt 0.725698113 0.978465438 0
vt 0.725698113 0.998046875 0
vt 0.719635606 0.978465438 0
vt 0.719635606 0.998046875 0
vt 0.713867188 0.978465438 0
vt 0.713867188 0.998046875 0
vt 0.789663613 0.998046875 0
vt 0.789663613 0.978465378 0
vt 0.784048021 0.978465378 0
vt 0.78404808 0.998046875 0
vt 0.778432488 0.978465378 0
vt 0.778432488 0.998046875 0
vt 0.77266407 0.978465378 0
vt 0.77266413 0.998046875 0
vt 0.766601562 0.978465378 0
vt 0.766601562 0.998046875 0
vt 0.0248611495 0.992601931 0
vt 0.0319236964 0.993472695 0
vt 0.0395516194 0.994377613 0
vt 0.0478666313 0.995226264 0
vt 0.661257207 0.998046875 0
vt 0.669581532 0.99732399 0
vt 0.677223146 0.996539891 0
vt 0.68429476 0.9957726 0
vt 0.762319863 0.975585938 0
vt 0.762319863 0.956004441 0
vt 0.756257355 0.956004441 0
vt 0.756257355 0.975585938 0
vt 0.750488937 0.956004441 0
vt 0.750488937 0.975585938 0
vt 0.744873405 0.956004441 0
vt 0.744873405 0.975585938 0
vt 0.739257812 0.956004441 0
vt 0.739257812 0.975585938 0
vn -0 -1 0
vn -0 -1 -0
vn -0 -1 -0
vn -0 -1 -0
vn -0 -1 -0
vn -0 -1 -0
vn -0 -1 -0
vn -0 -1 -0
vn -0 -1 -0
vn -0 -1 -0
vn -0 -1 -0
vn -0 -1 -0
vn -0 -1 -0
vn -0 -1 -0
vn -0 -1 -0
vn -0 -1 -0
vn -0 -1 -0
vn -0 -1 -0
vn -0 -1 -0
vn -0 -1 -0
vn -0 -1 -0
vn -0 -1 -0
vn -0 -1 -0
vn -0 -1 -0
vn -0 -1 -0
vn -0 -1 -0
vn -0 -1 -0
vn -0 -1 -0
vn -0 -1 -0
vn -0 -1 -0
vn -0 -1 -0
vn -0 -1 -0
vn -0 -1 -0
vn -0 -1 -0
vn -0 -1 -0
vn -0 -1 -0
vn -0 -1 -0
vn -0 -1 -0
vn 0 -1 -0
vn -0 -1 -0
vn -0 -1 -0
vn -0 -1 -0
vn -0 -1 -0
vn -0 -1 -0
vn -0 -1 -0
vn -0 -1 -0
vn -0 -1 -0
vn -0 -1 -0
vn -0 -1 -0
vn -0 -1 -0
vn -0 -1 -0
vn -0 -1 -0
vn -0 1 -0
vn -0 1 0
vn -0 1 -0
vn -0 1 -0
vn -0 1 -0
vn -0 1 -0
vn -0 1 -0
vn -0 1 -0
vn -0 1 -0
vn -0 1 -0
vn -0 1 -0
vn -0 1 -0
vn -0 1 -0
vn 0 1 -0
vn -0 1 -0
vn -0 1 -0
vn -0 1 -0
vn -0 1 -0
vn -0 1 -0
vn -0 1 -0
vn -0 1 -0
vn -0 1 -0
vn -0 1 -0
vn -0 1 -0
vn -0 1 -0
vn -0 1 -0
vn -0 1 -0
vn -0 1 -0
vn -0 1 -0
vn -0 1 -0
vn -0 1 -0
vn -0 1 -0
vn -0 1 -0
vn -0 1 -0
vn -0 1 -0
vn -0 1 -0
vn -0 1 -0
vn -0 1 -0
vn -0 1 -0
vn -0 1 -0
vn -0 1 -0
vn -0 1 -0
vn -0 1 -0
vn -0 1 -0
vn -0 1 -0
vn -0 1 -0
vn -0 1 -0
vn -0 1 -0
vn -0 1 -0
vn -0 1 -0
vn -0 1 -0
vn -0 1 -0
vn -0.999763966 0 -0.0217243303
vn -0.999763966 -0 -0.0217243303
vn -0.995708883 0 -0.0925409868
vn -0.995708883 0 -0.0925409868
vn -0.995708883 0 -0.0925409868
vn -0.995708883 0 -0.0925409868
vn -0.980144262 0 -0.19828622
vn -0.980144262 0 -0.19828622
vn -0.980144262 0 -0.19828622
vn -0.980144262 0 -0.19828622
vn -0.947979867 0 -0.318330139
vn -0.947979867 0 -0.318330139
vn -0.947979867 0 -0.318330139
vn -0.947979867 0 -0.318330139
vn -0.893591344 0 -0.448881447
vn -0.893591344 0 -0.448881447
vn -0.893591344 0 -0.448881447
vn -0.893591344 0 -0.448881447
vn -0.813101411 0 -0.582122028
vn -0.813101411 0 -0.582122028
vn -0.813101411 0 -0.582122028
vn -0.813101411 0 -0.582122028
vn -0.707106829 0 -0.707106829
vn -0.707106829 0 -0.707106829
vn -0.707106829 0 -0.707106829
vn -0.707106829 0 -0.707106829
vn -0.582122028 0 -0.813101411
vn -0.582122028 0 -0.813101411
vn -0.582122028 0 -0.813101411
vn -0.582122028 0 -0.813101411
vn -0.448879719 0 -0.893592119
vn -0.448879719 0 -0.893592119
vn -0.448879719 0 -0.893592119
vn -0.448879719 0 -0.893592119
vn -0.318328887 0 -0.947980404
vn -0.318328887 0 -0.947980404
vn -0.318328887 0 -0.947980404
vn -0.318328887 0 -0.947980404
vn -0.198288128 0 -0.980143845
vn -0.198288128 0 -0.980143845
vn -0.198288128 0 -0.980143845
vn -0.198288128 0 -0.980143845
vn -0.092542477 0 -0.995708764
vn -0.092542477 0 -0.995708764
vn -0.092542477 0 -0.995708764
vn -0.092542477 0 -0.995708764
vn -0.0217243657 0 -0.999763966
vn -0.0217243657 0 -0.999763966
vn -0.0217243657 0 -0.999763966
vn -0.0217243657 0 -0.999763966
vn 0.0217243657 0 -0.999763966
vn 0.0217243657 -0 -0.999763966
vn 0.0217243657 -0 -0.999763966
vn 0.0217243657 0 -0.999763966
vn 0.092542477 -0 -0.995708764
vn 0.092542477 -0 -0.995708764
vn 0.092542477 -0 -0.995708764
vn 0.092542477 -0 -0.995708764
vn 0.198288128 -0 -0.980143845
vn 0.198288128 -0 -0.980143845
vn 0.198288128 -0 -0.980143845
vn 0.198288128 -0 -0.980143845
vn 0.318328887 -0 -0.947980404
vn 0.318328887 -0 -0.947980404
vn 0.318328887 -0 -0.947980404
vn 0.318328887 -0 -0.947980404
vn 0.448879719 -0 -0.893592119
vn 0.448879719 -0 -0.893592119
vn 0.448879719 -0 -0.893592119
vn 0.448879719 -0 -0.893592119
vn 0.582122028 -0 -0.813101411
vn 0.582122028 -0 -0.813101411
vn 0.582122028 -0 -0.813101411
vn 0.582122028 -0 -0.813101411
vn 0.707106829 -0 -0.707106829
vn 0.707106829 -0 -0.707106829
vn 0.707106829 -0 -0.707106829
vn 0.707106829 -0 -0.707106829
vn 0.813101411 -0 -0.582122028
vn 0.813101411 -0 -0.582122028
vn 0.813101411 -0 -0.582122028
vn 0.813101411 -0 -0.582122028
vn 0.893591344 -0 -0.448881447
vn 0.893591344 -0 -0.448881447
vn 0.893591344 -0 -0.448881447
vn 0.893591344 -0 -0.448881447
vn 0.947979867 -0 -0.318330139
vn 0.947979867 -0 -0.318330139
vn 0.947979867 -0 -0.318330139
vn 0.947979867 -0 -0.318330139
vn 0.980144262 -0 -0.19828622
vn 0.980144262 -0 -0.19828622
vn 0.980144262 -0 -0.19828622
vn 0.980144262 -0 -0.19828622
vn 0.995708883 -0 -0.0925409868
vn 0.995708883 -0 -0.0925409868
vn 0.995708883 -0 -0.0925409868
vn 0.995708883 -0 -0.0925409868
vn 0.999763966 0 -0.0217243303
vn 0.999763966 -0 -0.0217243303
vn 0.999763966 -0 -0.0217243303
vn 0.999763966 0 -0.0217243303
vn 0.999763966 0 0.0217243303
vn 0.999763966 0 0.0217243303
vn 0.999763966 0 0.0217243303
vn 0.999763966 0 0.0217243303
vn 0.995708883 0 0.0925409868
vn 0.995708883 0 0.0925409868
vn 0.995708883 0 0.0925409868
vn 0.995708883 0 0.0925409868
vn 0.980144262 0 0.19828622
vn 0.980144262 0 0.19828622
vn 0.980144262 0 0.19828622
vn 0.980144262 0 0.19828622
vn 0.947979867 0 0.318330139
vn 0.947979867 0 0.318330139
vn 0.947979867 0 0.318330139
vn 0.947979867 0 0.318330139
vn 0.893591344 0 0.448881447
vn 0.893591344 0 0.448881447
vn 0.893591344 0 0.448881447
vn 0.893591344 0 0.448881447
vn 0.813101411 0 0.582122028
vn 0.813101411 0 0.582122028
vn 0.813101411 0 0.582122028
vn 0.813101411 0 0.582122028
vn 0.707106829 0 0.707106829
vn 0.707106829 0 0.707106829
vn 0.707106829 0 0.707106829
vn 0.707106829 0 0.707106829
vn 0.582122028 0 0.813101411
vn 0.582122028 0 0.813101411
vn 0.582122028 0 0.813101411
vn 0.582122028 0 0.813101411
vn 0.448879719 0 0.893592119
vn 0.448879719 0 0.893592119
vn 0.448879719 0 0.893592119
vn 0.448879719 0 0.893592119
vn 0.318328887 0 0.947980404
vn 0.318328887 0 0.947980404
vn 0.318328887 0 0.947980404
vn 0.318328887 0 0.947980404
vn 0.198288128 0 0.980143845
vn 0.198288128 0 0.980143845
vn 0.198288128 0 0.980143845
vn 0.198288128 0 0.980143845
vn 0.092542477 0 0.995708764
vn 0.092542477 0 0.995708764
vn 0.092542477 0 0.995708764
vn 0.092542477 0 0.995708764
vn 0.0217243657 -0 0.999763966
vn 0.0217243657 0 0.999763966
vn 0.0217243657 0 0.999763966
vn 0.0217243657 -0 0.999763966
vn -0.0217243657 -0 0.999763966
vn -0.0217243657 -0 0.999763966
vn -0.0217243657 -0 0.999763966
vn -0.0217243657 -0 0.999763966
vn -0.092542477 -0 0.995708764
vn -0.092542477 -0 0.995708764
vn -0.092542477 -0 0.995708764
vn -0.092542477 -0 0.995708764
vn -0.198288128 -0 0.980143845
vn -0.198288128 -0 0.980143845
vn -0.198288128 -0 0.980143845
vn -0.198288128 -0 0.980143845
vn -0.318328887 -0 0.947980404
vn -0.318328887 -0 0.947980404
vn -0.318328887 -0 0.947980404
vn -0.318328887 -0 0.947980404
vn -0.448879719 -0 0.893592119
vn -0.448879719 -0 0.893592119
vn -0.448879719 -0 0.893592119
vn -0.448879719 -0 0.893592119
vn -0.582122028 -0 0.813101411
vn -0.582122028 -0 0.813101411
vn -0.582122028 -0 0.813101411
vn -0.582122028 -0 0.813101411
vn -0.707106829 -0 0.707106829
vn -0.707106829 -0 0.707106829
vn -0.707106829 -0 0.707106829
vn -0.707106829 -0 0.707106829
vn -0.813101411 -0 0.582122028
vn -0.813101411 -0 0.582122028
vn -0.813101411 -0 0.582122028
vn -0.813101411 -0 0.582122028
vn -0.893591344 -0 0.448881447
vn -0.893591344 -0 0.448881447
vn -0.893591344 -0 0.448881447
vn -0.893591344 -0 0.448881447
vn -0.947979867 -0 0.318330139
vn -0.947979867 -0 0.318330139
vn -0.947979867 -0 0.318330139
vn -0.947979867 -0 0.318330139
vn -0.980144262 -0 0.19828622
vn -0.980144262 -0 0.19828622
vn -0.980144262 -0 0.19828622
vn -0.980144262 -0 0.19828622
vn -0.995708883 -0 0.0925409868
vn -0.995708883 -0 0.0925409868
vn -0.995708883 -0 0.0925409868
vn -0.995708883 -0 0.0925409868
vn -0.999763966 -0 0.0217243303
vn -0.999763966 -0 0.0217243303
vn -0.999763966 -0 0.0217243303
vn -0.999763966 -0 0.0217243303
vn -0.999763966 -0 -0.0217243303
vn -0.999763966 0 -0.0217243303
g 
f 5/1/1 18/2/2 19/3/3 20/4/4 21/5/5 22/6/6 1/7/7 17/8/8 16/9/9 15/10/10 14/11/11 13/12/12 6/13/13 7/14/14 28/15/15 29/16/16 30/17/17 31/18/18 32/19/19 2/20/20 27/21/21 26/22/22 25/23/23 24/24/24 23/25/25 8/26/26 11/27/27 48/28/28 49/29/29 50/30/30 51/31/31 52/32/32 4/33/33 47/34/34 46/35/35 45/36/36 44/37/37 43/38/38 12/39/39 9/40/40 38/41/41 39/42/42 40/43/43 41/44/44 42/45/45 3/46/46 37/47/47 36/48/48 35/49/49 34/50/50 33/51/51 10/52/52
f 53/53/53 104/54/54 103/55/55 102/56/56 101/57/57 100/58/58 99/59/59 98/60/60 97/61/61 96/62/62 95/63/63 94/64/64 93/65/65 92/66/66 91/67/67 90/68/68 89/69/69 88/70/70 87/71/71 86/72/72 85/73/73 84/74/74 83/75/75 82/76/76 81/77/77 80/78/78 79/79/79 78/80/80 77/81/81 76/82/82 75/83/83 74/84/84 73/85/85 72/86/86 71/87/87 70/88/88 69/89/89 68/90/90 67/91/91 66/92/92 65/93/93 64/94/94 63/95/95 62/96/96 61/97/97 60/98/98 59/99/99 58/100/100 57/101/101 56/102/102 55/103/103 54/104/104
f 5/53/105 53/53/106 54/104/107 18/104/108
f 18/105/109 54/106/110 55/107/111 19/108/112
f 19/108/113 55/107/114 56/109/115 20/110/116
f 20/110/117 56/109/118 57/111/119 21/112/120
f 21/112/121 57/111/122 58/113/123 22/114/124
f 22/115/125 58/116/126 59/117/127 1/118/128
f 1/118/129 59/117/130 60/119/131 17/120/132
f 17/120/133 60/119/134 61/121/135 16/122/136
f 16/122/137 61/121/138 62/123/139 15/124/140
f 15/10/141 62/125/142 63/126/143 14/11/144
f 14/11/145 63/126/146 64/127/147 13/12/148
f 13/12/149 64/127/150 65/128/151 6/13/152
f 6/13/153 65/128/154 66/129/155 7/14/156
f 7/14/157 66/129/158 67/130/159 28/15/160
f 28/15/161 67/130/162 68/131/163 29/16/164
f 29/16/165 68/131/166 69/132/167 30/17/168
f 30/133/169 69/134/170 70/135/171 31/136/172
f 31/136/173 70/135/174 71/137/175 32/138/176
f 32/138/177 71/137/178 72/139/179 2/140/180
f 2/140/181 72/139/182 73/141/183 27/142/184
f 27/85/185 73/85/186 74/84/187 26/84/188
f 26/84/189 74/84/190 75/83/191 25/83/192
f 25/83/193 75/83/194 76/82/195 24/82/196
f 24/82/197 76/82/198 77/81/199 23/81/200
f 23/81/201 77/81/202 78/80/203 8/80/204
f 8/80/205 78/80/206 79/79/207 11/79/208
f 11/79/209 79/79/210 80/78/211 48/78/212
f 48/143/213 80/144/214 81/145/215 49/146/216
f 49/146/217 81/145/218 82/147/219 50/148/220
f 50/148/221 82/147/222 83/149/223 51/150/224
f 51/150/225 83/149/226 84/151/227 52/152/228
f 52/153/229 84/154/230 85/155/231 4/156/232
f 4/156/233 85/155/234 86/157/235 47/158/236
f 47/158/237 86/157/238 87/159/239 46/160/240
f 46/160/241 87/159/242 88/161/243 45/162/244
f 45/36/245 88/163/246 89/164/247 44/37/248
f 44/37/249 89/164/250 90/165/251 43/38/252
f 43/38/253 90/165/254 91/166/255 12/39/256
f 12/39/257 91/166/258 92/167/259 9/40/260
f 9/40/261 92/167/262 93/168/263 38/41/264
f 38/41/265 93/168/266 94/169/267 39/42/268
f 39/42/269 94/169/270 95/170/271 40/43/272
f 40/171/273 95/172/274 96/173/275 41/174/276
f 41/174/277 96/173/278 97/175/279 42/176/280
f 42/176/281 97/175/282 98/177/283 3/178/284
f 3/178/285 98/177/286 99/179/287 37/180/288
f 37/59/289 99/59/290 100/58/291 36/58/292
f 36/58/293 100/58/294 101/57/295 35/57/296
f 35/57/297 101/57/298 102/56/299 34/56/300
f 34/56/301 102/56/302 103/55/303 33/55/304
f 33/55/305 103/55/306 104/54/307 10/54/308
f 10/54/309 104/54/310 53/53/311 5/53/312
