# File exported by Houdini 20.0.688 (www.sidefx.com)
# 4 points
# 4 vertices
# 1 primitives
# Bounds: [-0.324999988, 0.685673416, 0.626725793] to [0.324999988, 1.03799057, 0.981510997]
g 
v -0.324999988 0.685673416 0.981510997
v 0.324999988 0.685673416 0.981510997
v -0.324999988 1.03799057 0.626725793
v 0.324999988 1.03799057 0.626725793
vt 0.998026431 0.00195320649 0
vt 0.998026371 0.768163323 0
vt 0.00195313711 0.768163383 0
vt 0.001953125 0.001953125 0
vn 0 -0.709570527 -0.704634428
vn -0 -0.709570527 -0.704634428
vn -0 -0.709570527 -0.704634428
vn 0 -0.709570527 -0.704634428
g 
f 1/1/1 3/2/2 4/3/3 2/4/4
