# File exported by Houdini 20.0.688 (www.sidefx.com)
# 6 points
# 24 vertices
# 8 primitives
# Bounds: [-0.0299999993, -0.0500000007, -0.0299999993] to [0.0299999993, 0.0500000007, 0.0299999993]
g 
v 2.99999985e-16 0.0500000007 0
v 0.0299999993 0 0
v -1.31134159e-09 0 -0.0299999993
v -0.0299999993 0 2.62268318e-09
v 3.57746416e-10 0 0.0299999993
v 2.99999985e-16 -0.0500000007 0
vt 0.496151865 0.497793764 0
vt 0.16009672 0.133205026 0
vt 0.496151835 0.001953125 0
vt 0.832206964 0.133205086 0
vt 0.990350544 0.45747453 0
vt 0.001953125 0.45747456 0
vt 0.832207024 0.631251931 0
vt 0.496151805 0.995840669 0
vt 0.496151954 0.5 0
vt 0.160096794 0.631251931 0
vt 0.001953125 0.955521405 0
vt 0.990350544 0.955521464 0
vn 0.650944531 0.390566707 -0.650944531
vn 0.650944531 0.390566736 -0.650944591
vn 0.650944531 0.390566736 -0.650944591
vn -0.650944531 0.390566707 -0.650944531
vn -0.650944591 0.390566736 -0.650944531
vn -0.650944591 0.390566736 -0.650944531
vn -0.650944531 0.390566707 0.650944531
vn -0.650944531 0.390566736 0.650944531
vn -0.650944531 0.390566736 0.650944531
vn 0.650944531 0.390566707 0.650944531
vn 0.650944531 0.390566736 0.650944531
vn 0.650944531 0.390566736 0.650944531
vn 0.650944531 -0.390566736 -0.650944591
vn 0.650944531 -0.390566707 -0.650944531
vn 0.650944531 -0.390566736 -0.650944591
vn -0.650944591 -0.390566736 -0.650944531
vn -0.650944531 -0.390566707 -0.650944531
vn -0.650944591 -0.390566736 -0.650944531
vn -0.650944531 -0.390566736 0.650944531
vn -0.650944531 -0.390566707 0.650944531
vn -0.650944531 -0.390566736 0.650944531
vn 0.650944531 -0.390566736 0.650944531
vn 0.650944531 -0.390566707 0.650944531
vn 0.650944531 -0.390566736 0.650944531
g 
f 1/1/1 2/2/2 3/3/3
f 1/1/4 3/3/5 4/4/6
f 1/1/7 4/4/8 5/5/9
f 1/1/10 5/6/11 2/2/12
f 2/7/13 6/8/14 3/9/15
f 3/9/16 6/8/17 4/10/18
f 4/10/19 6/8/20 5/11/21
f 5/12/22 6/8/23 2/7/24
