# File exported by Houdini 20.0.688 (www.sidefx.com)
# 12 points
# 60 vertices
# 20 primitives
# Bounds: [-0.0255195256, -0.0268328208, -0.0299999993] to [0.0255195256, 0.0268328208, 0.0299999993]
g 
v 0 0 -0.0299999993
v 0 0.0268328208 -0.0134163937
v 0.0255195256 0.00829180982 -0.0134163955
v 0.0157719366 -0.0217082072 -0.0134163974
v -0.0157719366 -0.0217082072 -0.0134163974
v -0.0255195256 0.00829180982 -0.0134163955
v -0.0157719366 0.0217082072 0.0134163974
v -0.0255195256 -0.00829180982 0.0134163955
v 0 -0.0268328208 0.0134163937
v 0.0255195256 -0.00829180982 0.0134163955
v 0.0157719366 0.0217082072 0.0134163974
v 0 0 0.0299999993
vt 0.560379386 0.162682354 0
vt 0.385973781 0.304032266 0
vt 0.350764036 0.0823176801 0
vt 0.595589161 0.38439694 0
vt 0.358281761 0.801757872 0
vt 0.582774699 0.801757812 0
vt 0.470528245 0.996174395 0
vt 0.176358551 0.223667473 0
vt 0.211568207 0.445382059 0
vt 0.141148925 0.001953125 0
vt 0.001953125 0.365017325 0
vt 0.246035516 0.996174335 0
vt 0.769994497 0.243047148 0
vt 0.771367908 0.733398497 0
vt 0.995860636 0.733398557 0
vt 0.883614123 0.92781496 0
vt 0.659121394 0.92781508 0
vt 0.823128164 0.416453958 0
vt 0.997533441 0.55780375 0
vt 0.787918329 0.638168514 0
vt 0.133789062 0.801757872 0
vt 0.578303039 0.718533158 0
vt 0.368687868 0.798897743 0
vt 0.403897554 0.577183366 0
vt 0.229492188 0.435833484 0
vt 0.439107269 0.35546875 0
vt 0.546875 0.733398438 0
vt 0.613512874 0.496818572 0
vn 0.356822014 0.491123706 -0.794654369
vn 0.356822044 0.491123706 -0.794654369
vn 0.356822014 0.491123706 -0.794654369
vn 0.577350557 -0.187592372 -0.79465431
vn 0.577350557 -0.187592372 -0.79465425
vn 0.577350616 -0.187592387 -0.79465431
vn 0 -0.607062161 -0.794654369
vn 0 -0.607062161 -0.794654369
vn 0 -0.607062161 -0.794654369
vn -0.577350616 -0.187592387 -0.79465431
vn -0.577350557 -0.187592372 -0.79465425
vn -0.577350557 -0.187592372 -0.79465431
vn -0.356822014 0.491123706 -0.794654369
vn -0.356822044 0.491123706 -0.794654369
vn -0.356822014 0.491123706 -0.794654369
vn -0.57735002 0.794654667 -0.187592536
vn -0.57735002 0.794654727 -0.187592536
vn -0.57735002 0.794654667 -0.187592536
vn -0.934172332 -0.303530753 -0.187592819
vn -0.934172332 -0.303530753 -0.187592819
vn -0.934172392 -0.303530753 -0.187592819
vn -0 -0.982246876 -0.1875927
vn -0 -0.982246995 -0.18759273
vn -0 -0.982246995 -0.18759273
vn 0.934172332 -0.303530753 -0.187592819
vn 0.934172392 -0.303530753 -0.187592819
vn 0.934172332 -0.303530753 -0.187592819
vn 0.57735002 0.794654667 -0.187592536
vn 0.57735002 0.794654667 -0.187592536
vn 0.57735002 0.794654727 -0.187592536
vn 0 0.982246995 0.18759273
vn 0 0.982246876 0.1875927
vn 0 0.982246995 0.18759273
vn -0.934172392 0.303530753 0.187592819
vn -0.934172332 0.303530753 0.187592819
vn -0.934172332 0.303530753 0.187592819
vn -0.57735002 -0.794654667 0.187592536
vn -0.57735002 -0.794654667 0.187592536
vn -0.57735002 -0.794654727 0.187592536
vn 0.57735002 -0.794654727 0.187592536
vn 0.57735002 -0.794654667 0.187592536
vn 0.57735002 -0.794654667 0.187592536
vn 0.934172332 0.303530753 0.187592819
vn 0.934172332 0.303530753 0.187592819
vn 0.934172392 0.303530753 0.187592819
vn -0 0.607062161 0.794654369
vn -0 0.607062161 0.794654369
vn -0 0.607062161 0.794654369
vn 0.577350557 0.187592372 0.79465431
vn 0.577350557 0.187592372 0.79465425
vn 0.577350616 0.187592387 0.79465431
vn 0.356822014 -0.491123706 0.794654369
vn 0.356822044 -0.491123706 0.794654369
vn 0.356822014 -0.491123706 0.794654369
vn -0.356822014 -0.491123706 0.794654369
vn -0.356822044 -0.491123706 0.794654369
vn -0.356822014 -0.491123706 0.794654369
vn -0.577350616 0.187592387 0.79465431
vn -0.577350557 0.187592372 0.79465425
vn -0.577350557 0.187592372 0.79465431
g 
f 3/1/1 1/2/2 2/3/3
f 4/4/4 1/2/5 3/1/6
f 5/5/7 1/6/8 4/7/9
f 6/8/10 1/2/11 5/9/12
f 2/3/13 1/2/14 6/8/15
f 7/10/16 2/3/17 6/8/18
f 8/11/19 6/8/20 5/9/21
f 9/12/22 5/5/23 4/7/24
f 10/13/25 4/4/26 3/1/27
f 11/14/28 3/15/29 2/16/30
f 11/14/31 2/16/32 7/17/33
f 7/18/34 6/19/35 8/20/36
f 8/21/37 5/5/38 9/12/39
f 9/22/40 4/23/41 10/24/42
f 10/24/43 3/25/44 11/26/45
f 7/17/46 12/27/47 11/14/48
f 11/26/49 12/28/50 10/24/51
f 10/24/52 12/28/53 9/22/54
f 9/22/55 12/28/56 8/20/57
f 8/20/58 12/28/59 7/18/60
