# File exported by Houdini 20.0.688 (www.sidefx.com)
# 24 points
# 24 vertices
# 6 primitives
# Bounds: [0.218169019, -1, -0.257507771] to [0.922585011, 0.5, 0.446908236]
g 
v 0.922585011 -1 0.0638860464
v 0.601191223 -1 0.446908236
v 0.922585011 0.5 0.0638860464
v 0.601191223 0.5 0.446908236
v 0.218169019 -1 0.125514418
v 0.539562821 -1 -0.257507771
v 0.218169019 0.5 0.125514418
v 0.539562821 0.5 -0.257507771
v 0.539562821 0.5 -0.257507771
v 0.539562821 0.5 -0.257507771
v 0.218169019 0.5 0.125514418
v 0.218169019 0.5 0.125514418
v 0.539562821 -1 -0.257507771
v 0.539562821 -1 -0.257507771
v 0.218169019 -1 0.125514418
v 0.218169019 -1 0.125514418
v 0.601191223 0.5 0.446908236
v 0.601191223 0.5 0.446908236
v 0.922585011 0.5 0.0638860464
v 0.922585011 0.5 0.0638860464
v 0.601191223 -1 0.446908236
v 0.601191223 -1 0.446908236
v 0.922585011 -1 0.0638860464
v 0.922585011 -1 0.0638860464
vt 0.742663503 0.746903419 0
vt 0.00195317296 0.746903479 0
vt 0.001953125 0.5 0
vt 0.742663503 0.5 0
vt 0.742663562 0.995926857 0
vt 0.00195317692 0.995926917 0
vt 0.001953125 0.749023438 0
vt 0.742663503 0.749023438 0
vt 0.992020667 0.248856574 0
vt 0.745117188 0.248856574 0
vt 0.745117188 0.00195316202 0
vt 0.992020607 0.001953125 0
vt 0.745117188 0.250976562 0
vt 0.992020667 0.250976562 0
vt 0.992020667 0.497879982 0
vt 0.745117188 0.497879982 0
vt 0.742663503 0.248856589 0
vt 0.001953125 0.248856574 0
vt 0.00195313338 0.001953125 0
vt 0.742663562 0.00195315015 0
vt 0.742663562 0.497880012 0
vt 0.001953125 0.497880012 0
vt 0.00195317692 0.250976562 0
vt 0.742663562 0.250976592 0
vn 0.766044557 0 0.642787635
vn 0.766044557 -0 0.642787635
vn 0.766044557 0 0.642787635
vn 0.766044557 -0 0.642787635
vn -0.766044557 -0 -0.642787635
vn -0.766044557 0 -0.642787635
vn -0.766044557 -0 -0.642787635
vn -0.766044557 0 -0.642787635
vn -0 1 -0
vn 0.642787576 -0 -0.766044378
vn -0 1 0
vn -0.642787576 -0 0.766044378
vn -0 -1 -0
vn 0.642787576 -0 -0.766044378
vn -0 -1 0
vn -0.642787576 -0 0.766044378
vn 0 1 -0
vn -0.642787576 -0 0.766044378
vn -0 1 -0
vn 0.642787576 -0 -0.766044378
vn 0 -1 -0
vn -0.642787576 -0 0.766044378
vn -0 -1 -0
vn 0.642787576 -0 -0.766044378
g 
f 1/1/1 3/2/3 4/3/4 2/4/2
f 5/5/5 7/6/7 8/7/8 6/8/6
f 11/9/11 17/10/17 19/11/19 9/12/9
f 13/13/13 23/14/23 21/15/21 15/16/15
f 14/17/14 10/18/10 20/19/20 24/20/24
f 22/21/22 18/22/18 12/23/12 16/24/16
