# File exported by Houdini 20.0.688 (www.sidefx.com)
# 8 points
# 36 vertices
# 12 primitives
# Bounds: [1.78098536, 2.94067574, -0.362651646] to [2.00566506, 3.00877714, 0.893844604]
g 
v 1.78098536 2.94067574 0.893844604
v 1.78098536 3.00877714 0.893844604
v 1.78098536 3.0087769 -0.362651646
v 1.78098536 2.94067574 -0.362651646
v 2.00566506 3.0087769 -0.362651646
v 2.00566506 2.94067574 -0.362651646
v 2.00566506 3.00877714 0.893844604
v 2.00566506 2.94067574 0.893844604
vt 0.210760057 0.999999523 0
vt 0.221360862 0.999999523 0
vt 0.221360862 5.36441803e-07 0
vt 0.210760057 5.36441803e-07 0
vt 0.823221087 0.684868574 0
vt 0.805577636 0.684868574 0
vt 0.805577636 0.98248291 0
vt 0.823221087 0.98248291 0
vt 0.236967027 1 0
vt 0.247567832 1 0
vt 0.247567832 5.96046448e-08 0
vt 0.236967027 5.96046448e-08 0
vt 0.857087135 0.684868574 0
vt 0.839443684 0.684868574 0
vt 0.839443684 0.98248291 0
vt 0.857087135 0.98248291 0
vt 0.0245663896 1 0
vt 0.0999451652 1 0
vt 0.0999450609 5.96046448e-08 0
vt 0.0245663896 5.96046448e-08 0
vt 0.128653437 1 0
vt 0.195471972 1 0
vt 0.195471972 5.96046448e-08 0
vt 0.128653437 5.96046448e-08 0
vn -1 0 0
vn -1 0 0
vn -1 0 0
vn -1 0 0
vn -1 0 0
vn -1 0 0
vn 0 0 -1
vn 0 0 -1
vn 0 0 -1
vn 0 0 -1
vn 0 0 -1
vn 0 0 -1
vn 1 0 0
vn 1 0 0
vn 1 0 0
vn 1 0 0
vn 1 0 0
vn 1 0 0
vn 0 0 1
vn 0 0 1
vn 0 0 1
vn 0 0 1
vn 0 0 1
vn 0 0 1
vn 0 -1 0
vn 0 -1 0
vn 0 -1 0
vn 0 -1 0
vn 0 -1 0
vn 0 -1 0
vn 0 1 0
vn 0 1 0
vn 0 1 0
vn 0 1 0
vn 0 1 0
vn 0 1 0
g 
f 1/1/1 2/2/2 3/3/3
f 1/1/4 3/3/5 4/4/6
f 4/5/7 3/6/8 5/7/9
f 4/5/10 5/7/11 6/8/12
f 6/9/13 5/10/14 7/11/15
f 6/9/16 7/11/17 8/12/18
f 8/13/19 7/14/20 2/15/21
f 8/13/22 2/15/23 1/16/24
f 4/17/25 6/18/26 8/19/27
f 4/17/28 8/19/29 1/20/30
f 5/21/31 3/22/32 2/23/33
f 5/21/34 2/23/35 7/24/36
