# File exported by Houdini 20.0.688 (www.sidefx.com)
# 314 points
# 1554 vertices
# 518 primitives
# Bounds: [3.33119869, 0.0145335197, -2.80166698] to [3.95604229, 3.01083827, 2.95112348]
g 
v 3.55452967 2.96580863 2.951123
v 3.55452967 3.01083827 2.951123
v 3.55452967 3.01083732 -2.80166698
v 3.55452967 2.96580768 -2.80166698
v 3.95604229 3.01083732 -2.80166698
v 3.95604229 2.96580768 -2.80166698
v 3.95604229 3.01083827 2.951123
v 3.95604229 2.96580863 2.951123
v 3.55443597 1.8434577 2.94723773
v 3.55443597 2.95993638 2.94723749
v 3.55443597 2.95993638 2.31423736
v 3.55443597 1.8434577 2.31423759
v 3.95443606 2.95993638 2.31423736
v 3.95443606 1.8434577 2.31423759
v 3.95443606 2.95993638 2.94723749
v 3.95443606 1.8434577 2.94723773
v 3.55443597 1.8434577 2.30790758
v 3.55443597 2.95993638 2.30790734
v 3.55443597 2.95993614 1.67490745
v 3.55443597 1.84345758 1.67490768
v 3.95443606 2.95993614 1.67490745
v 3.95443606 1.84345758 1.67490768
v 3.95443606 2.95993638 2.30790734
v 3.95443606 1.8434577 2.30790758
v 3.55443597 1.84345758 1.66857767
v 3.55443597 2.95993614 1.66857743
v 3.55443597 2.95993614 1.03557754
v 3.55443597 1.84345746 1.03557765
v 3.95443606 2.95993614 1.03557754
v 3.95443606 1.84345746 1.03557765
v 3.95443606 2.95993614 1.66857743
v 3.95443606 1.84345758 1.66857767
v 3.55443597 1.84345746 1.02924764
v 3.55443597 2.95993614 1.02924752
v 3.55443597 2.95993614 0.396247596
v 3.55443597 1.84345734 0.396247774
v 3.95443606 2.95993614 0.396247596
v 3.95443606 1.84345734 0.396247774
v 3.95443606 2.95993614 1.02924752
v 3.95443606 1.84345746 1.02924764
v 3.55443597 1.84345734 0.389917791
v 3.55443597 2.95993614 0.389917612
v 3.55443597 2.9599359 -0.243082494
v 3.55443597 1.84345722 -0.243082315
v 3.95443606 2.9599359 -0.243082494
v 3.95443606 1.84345722 -0.243082315
v 3.95443606 2.95993614 0.389917612
v 3.95443606 1.84345734 0.389917791
v 3.55443597 1.84345722 -0.249412388
v 3.55443597 2.9599359 -0.249412566
v 3.55443597 2.9599359 -0.882412434
v 3.55443597 1.8434571 -0.882412195
v 3.95443606 2.9599359 -0.882412434
v 3.95443606 1.8434571 -0.882412195
v 3.95443606 2.9599359 -0.249412566
v 3.95443606 1.84345722 -0.249412388
v 3.55443597 1.8434571 -0.888742328
v 3.55443597 2.9599359 -0.888742566
v 3.55443597 2.95993567 -1.52174258
v 3.55443597 1.84345698 -1.52174234
v 3.95443606 2.95993567 -1.52174258
v 3.95443606 1.84345698 -1.52174234
v 3.95443606 2.9599359 -0.888742566
v 3.95443606 1.8434571 -0.888742328
v 3.55443597 1.84345698 -1.52807248
v 3.55443597 2.95993567 -1.52807271
v 3.55443597 2.95993567 -2.16107225
v 3.55443597 1.84345686 -2.16107202
v 3.95443606 2.95993567 -2.16107225
v 3.95443606 1.84345686 -2.16107202
v 3.95443606 2.95993567 -1.52807271
v 3.95443606 1.84345698 -1.52807248
v 3.55443597 1.84345686 -2.16740251
v 3.55443597 2.95993567 -2.16740274
v 3.55443597 2.95993543 -2.8004024
v 3.55443597 1.84345686 -2.80040216
v 3.95443606 2.95993543 -2.8004024
v 3.95443606 1.84345686 -2.80040216
v 3.95443606 2.95993567 -2.16740274
v 3.95443606 1.84345686 -2.16740251
v 3.34505272 0.153499365 2.94487524
v 3.34505272 0.819611073 2.944875
v 3.34505272 0.819610834 2.31207442
v 3.34505272 0.153499126 2.31207466
v 3.51648116 0.153499126 2.31207466
v 3.51648116 0.819610834 2.31207442
v 3.94505262 0.819610834 2.31207442
v 3.94505262 0.153499126 2.31207466
v 3.94505262 0.819611073 2.944875
v 3.94505262 0.153499365 2.94487524
v 3.51648116 0.153499365 2.94487524
v 3.51648116 0.819611073 2.944875
v 3.51648116 0.0196106434 2.31207466
v 3.94505262 0.0196106434 2.31207466
v 3.94505262 0.0196108818 2.94487524
v 3.51648116 0.0196108818 2.94487524
v 3.34505272 0.153499126 1.80000496
v 3.34505272 0.819610834 1.80000484
v 3.34505272 0.819610834 1.67294574
v 3.34505272 0.153499126 1.67294586
v 3.92165089 0.153499126 1.67294586
v 3.92165089 0.819610834 1.67294574
v 3.94505262 0.819610834 1.67294574
v 3.94505262 0.153499126 1.67294586
v 3.94505262 0.153499126 1.80000496
v 3.94505262 0.819610834 1.80000484
v 3.94505262 0.819610834 2.30574656
v 3.94505262 0.153499126 2.30574656
v 3.36541653 0.153499126 2.30574656
v 3.36541653 0.819610834 2.30574656
v 3.34505272 0.819610834 2.30574656
v 3.34505272 0.153499126 2.30574656
v 3.92165089 0.0196106434 1.80000496
v 3.94505262 0.0196106434 1.80000496
v 3.94505262 0.0196106434 2.30574656
v 3.92165089 0.0196106434 2.30574656
v 3.36541653 0.819610834 1.80000484
v 3.92165089 0.0196106434 1.67294586
v 3.94505262 0.0196106434 1.67294586
v 3.36541653 0.153499126 1.80000496
v 3.36541653 0.153499126 1.67294586
v 3.92165089 0.153499126 2.30574656
v 3.51648116 0.153499126 2.30574656
v 3.51648116 0.0196106434 2.30574656
v 3.92165089 0.819610834 1.80000484
v 3.51648116 0.819610834 1.80000484
v 3.51648116 0.819610834 2.30574656
v 3.92165089 0.819610834 2.30574656
v 3.51648116 0.153499126 1.80000496
v 3.51648116 0.153499126 1.67294586
v 3.51648116 0.0196106434 1.67294586
v 3.51648116 0.0196106434 1.80000496
v 3.34505272 0.153499126 1.66661799
v 3.34505272 0.819610834 1.66661787
v 3.34505272 0.819610596 1.03381717
v 3.34505272 0.153498888 1.03381729
v 3.92182493 0.153498888 1.03381729
v 3.92182493 0.819610596 1.03381717
v 3.94505262 0.819610596 1.03381717
v 3.94505262 0.153498888 1.03381729
v 3.94505262 0.819610834 1.66661787
v 3.94505262 0.153499126 1.66661799
v 3.36454058 0.153499126 1.66661799
v 3.36454058 0.819610834 1.66661787
v 3.92182493 0.019610405 1.03381729
v 3.94505262 0.019610405 1.03381729
v 3.94505262 0.0196106434 1.66661799
v 3.92182493 0.0196106434 1.66661799
v 3.36454058 0.819610596 1.03381717
v 3.36454058 0.153498888 1.03381729
v 3.92182493 0.153499126 1.66661799
v 3.51648116 0.153499126 1.66661799
v 3.51648116 0.0196106434 1.66661799
v 3.51648116 0.153498888 1.03381729
v 3.51648116 0.019610405 1.03381729
v 3.34505272 0.153498888 0.876959682
v 3.34505272 0.819610596 0.876959562
v 3.34505272 0.819610596 0.394688368
v 3.34505272 0.153498888 0.394688457
v 3.92216849 0.153498888 0.394688457
v 3.92216849 0.819610596 0.394688368
v 3.94505262 0.819610596 0.394688368
v 3.94505262 0.153498888 0.394688457
v 3.94505262 0.153498888 0.876959682
v 3.94505262 0.819610596 0.876959562
v 3.94505262 0.819610596 1.02748919
v 3.94505262 0.153498888 1.0274893
v 3.36478972 0.153498888 1.0274893
v 3.36478972 0.819610596 1.02748919
v 3.34505272 0.819610596 1.02748919
v 3.34505272 0.153498888 1.0274893
v 3.92216849 0.019610405 0.876959682
v 3.94505262 0.019610405 0.876959682
v 3.94505262 0.019610405 1.0274893
v 3.92216849 0.019610405 1.0274893
v 3.36478972 0.819610596 0.876959562
v 3.92216849 0.019610405 0.394688487
v 3.94505262 0.019610405 0.394688487
v 3.36478972 0.153498888 0.876959682
v 3.36478972 0.153498888 0.394688457
v 3.92216849 0.153498888 1.0274893
v 3.51648116 0.153498888 1.0274893
v 3.51648116 0.019610405 1.0274893
v 3.51648116 0.153498888 0.876959682
v 3.51648116 0.153498888 0.394688457
v 3.51648116 0.019610405 0.394688487
v 3.51648116 0.019610405 0.876959682
v 3.36478972 0.819610596 0.394688368
v 3.51648116 0.819610596 0.394688368
v 3.34505272 0.153498888 0.38836056
v 3.34505272 0.819610596 0.388360471
v 3.34505272 0.819610596 -0.244440168
v 3.34505272 0.153498888 -0.244440049
v 3.51648116 0.153498888 -0.244440049
v 3.51648116 0.819610596 -0.244440168
v 3.94505262 0.819610596 -0.244440168
v 3.94505262 0.153498888 -0.244440049
v 3.94505262 0.819610596 0.388360471
v 3.94505262 0.153498888 0.38836056
v 3.51648116 0.153498888 0.38836056
v 3.51648116 0.819610596 0.388360471
v 3.51648116 0.019610405 -0.244440049
v 3.94505262 0.019610405 -0.244440049
v 3.94505262 0.019610405 0.38836059
v 3.51648116 0.019610405 0.38836059
v 3.34505272 0.153498888 -0.250768095
v 3.34505272 0.819610596 -0.250768214
v 3.34505272 0.819610357 -0.883569002
v 3.34505272 0.15349865 -0.883568883
v 3.51648116 0.15349865 -0.883568883
v 3.51648116 0.819610357 -0.883569002
v 3.94505262 0.819610357 -0.883569002
v 3.94505262 0.15349865 -0.883568883
v 3.94505262 0.819610596 -0.250768214
v 3.94505262 0.153498888 -0.250768095
v 3.51648116 0.153498888 -0.250768095
v 3.51648116 0.819610596 -0.250768214
v 3.51648116 0.0196101665 -0.883568883
v 3.94505262 0.0196101665 -0.883568883
v 3.94505262 0.019610405 -0.250768095
v 3.51648116 0.019610405 -0.250768095
v 3.34505272 0.15349865 -0.889897227
v 3.34505272 0.819610357 -0.889897346
v 3.34505272 0.819610357 -1.52269816
v 3.34505272 0.15349865 -1.52269804
v 3.51648116 0.15349865 -1.52269804
v 3.51648116 0.819610357 -1.52269816
v 3.94505262 0.819610357 -1.52269816
v 3.94505262 0.15349865 -1.52269804
v 3.94505262 0.819610357 -0.889897346
v 3.94505262 0.15349865 -0.889897227
v 3.51648116 0.15349865 -0.889897227
v 3.51648116 0.819610357 -0.889897346
v 3.51648116 0.0196101665 -1.52269804
v 3.94505262 0.0196101665 -1.52269804
v 3.94505262 0.0196101665 -0.889897227
v 3.51648116 0.0196101665 -0.889897227
v 3.34505272 0.15349865 -1.52902603
v 3.34505272 0.819610357 -1.52902615
v 3.34505272 0.819610119 -2.16182709
v 3.34505272 0.153498411 -2.16182685
v 3.51648116 0.153498411 -2.16182685
v 3.51648116 0.819610119 -2.16182709
v 3.94505262 0.819610119 -2.16182709
v 3.94505262 0.153498411 -2.16182685
v 3.94505262 0.819610357 -1.52902615
v 3.94505262 0.15349865 -1.52902603
v 3.51648116 0.15349865 -1.52902603
v 3.51648116 0.819610357 -1.52902615
v 3.51648116 0.0196099281 -2.16182685
v 3.94505262 0.0196099281 -2.16182685
v 3.94505262 0.0196101665 -1.52902603
v 3.51648116 0.0196101665 -1.52902603
v 3.34505272 0.153498411 -2.16815495
v 3.34505272 0.819610119 -2.16815519
v 3.34505272 0.819610119 -2.80095577
v 3.34505272 0.153498411 -2.80095553
v 3.51648116 0.153498411 -2.80095553
v 3.51648116 0.819610119 -2.80095577
v 3.94505262 0.819610119 -2.80095577
v 3.94505262 0.153498411 -2.80095553
v 3.94505262 0.819610119 -2.16815519
v 3.94505262 0.153498411 -2.16815495
v 3.51648116 0.153498411 -2.16815495
v 3.51648116 0.819610119 -2.16815519
v 3.51648116 0.0196099281 -2.80095553
v 3.94505262 0.0196099281 -2.80095553
v 3.94505262 0.0196099281 -2.16815495
v 3.51648116 0.0196099281 -2.16815495
v 3.36541653 0.819610834 1.67294574
v 3.51648116 0.819610596 0.876959562
v 3.92216849 0.819610596 0.876959562
v 3.92182493 0.819610834 1.66661787
v 3.92216849 0.819610596 1.02748919
v 3.33119869 0.82060504 0.731798947
v 3.33119869 0.857165098 0.731798768
v 3.33119869 0.857164621 -2.80166578
v 3.33119869 0.820604563 -2.80166578
v 3.95604229 0.857164621 -2.80166578
v 3.95604229 0.820604563 -2.80166578
v 3.95604229 0.820605278 1.93939316
v 3.95604229 0.857165337 1.93939316
v 3.95604229 0.857165575 2.95112324
v 3.95604229 0.820605516 2.95112324
v 3.33119869 0.857165575 2.95112324
v 3.33119869 0.820605516 2.95112324
v 3.33119869 0.820605278 1.93939316
v 3.33119869 0.857165337 1.93939316
v 3.95604229 0.857165098 0.731798947
v 3.95604229 0.82060504 0.731798768
v 3.88671923 0.857165337 1.76218235
v 3.88671923 0.857165098 0.897538185
v 3.88671923 0.621530056 0.897538185
v 3.88671923 0.621530294 1.76218235
v 3.36839628 0.857165337 1.76218235
v 3.36839628 0.857165098 0.897538066
v 3.36839628 0.621530056 0.897538066
v 3.36839628 0.621530294 1.76218235
v 3.51550293 0.0145344734 2.95112348
v 3.47894311 0.0145344734 2.95112348
v 3.47894406 0.0145335197 -2.80166554
v 3.51550388 0.0145335197 -2.80166554
v 3.47894406 0.151875496 -2.80166554
v 3.51550388 0.151875496 -2.80166554
v 3.47894335 0.15187645 2.95112348
v 3.51550317 0.15187645 2.95112348
v 3.55452967 1.79526353 2.951123
v 3.55452967 1.84029329 2.951123
v 3.55452967 1.84029245 -2.8016665
v 3.55452967 1.79526269 -2.8016665
v 3.95604229 1.84029245 -2.8016665
v 3.95604229 1.79526269 -2.8016665
v 3.95604229 1.84029329 2.951123
v 3.95604229 1.79526353 2.951123
vt 0.824539959 0.181396246 0
vt 0.804455996 0.181396246 0
vt 0.804455996 0.218206525 0
vt 0.824539959 0.218206525 0
vt 0.612676799 0.150804877 0
vt 0.612676799 0.130890012 0
vt 0.593913436 0.130890012 0
vt 0.593913436 0.150804877 0
vt 0.79189384 0.181396127 0
vt 0.771809936 0.181396127 0
vt 0.771809936 0.218206406 0
vt 0.79189384 0.218206406 0
vt 0.581351221 0.150804758 0
vt 0.581351221 0.130889893 0
vt 0.562587857 0.130889893 0
vt 0.562587857 0.150804758 0
vt 0.668802559 0.194275916 0
vt 0.687565982 0.194275916 0
vt 0.687565923 0.157465637 0
vt 0.668802559 0.157465637 0
vt 0.700128019 0.194275796 0
vt 0.718891382 0.194275796 0
vt 0.718891382 0.157465518 0
vt 0.700128019 0.157465518 0
vt 0.950058997 1 0
vt 0.950058997 0.506229758 0
vt 0.945974231 0.506229758 0
vt 0.945974231 1 0
vt 0.299986601 1 0
vt 0.299986601 0.506229758 0
vt 0.281293929 0.506229758 0
vt 0.281293929 1 0
vt 0.916765034 1 0
vt 0.916765034 0.506229758 0
vt 0.912680209 0.506229758 0
vt 0.912680209 1 0
vt 0.23747693 1 0
vt 0.23747687 0.506229758 0
vt 0.218784198 0.506229758 0
vt 0.218784258 1 0
vt 0.612528622 0.0998980999 0
vt 0.612528622 0.118433416 0
vt 0.616613328 0.118433416 0
vt 0.616613328 0.0998980999 0
vt 0.348169357 0.108972251 0
vt 0.348169357 0.127507567 0
vt 0.352254093 0.127507567 0
vt 0.352254093 0.108972251 0
vt 0.135852724 0.493770242 0
vt 0.13585268 0 0
vt 0.131767929 0 0
vt 0.131767973 0.493770242 0
vt 0.425006092 1 0
vt 0.425006092 0.506229758 0
vt 0.406313419 0.506229758 0
vt 0.406313419 1 0
vt 0.900118053 1 0
vt 0.900118053 0.506229758 0
vt 0.896033287 0.506229758 0
vt 0.896033287 1 0
vt 0.206222028 1 0
vt 0.206221968 0.506229758 0
vt 0.187529296 0.506229758 0
vt 0.187529355 1 0
vt 0.735526443 0.0998983383 0
vt 0.735526443 0.118433654 0
vt 0.739611208 0.118433654 0
vt 0.739611208 0.0998983383 0
vt 0.429433137 0.0944039226 0
vt 0.429433137 0.112939239 0
vt 0.433517903 0.112939239 0
vt 0.433517903 0.0944039226 0
vt 0.0692648441 0.493770242 0
vt 0.0692648143 0 0
vt 0.0651800483 0 0
vt 0.0651801005 0.493770242 0
vt 0.518770874 1 0
vt 0.518770874 0.506229758 0
vt 0.500078201 0.506229758 0
vt 0.500078201 1 0
vt 0.152499631 0.493770242 0
vt 0.152499631 0 0
vt 0.14841485 0 0
vt 0.14841491 0.493770242 0
vt 0.143712282 1 0
vt 0.143712223 0.506229758 0
vt 0.12501955 0.506229758 0
vt 0.12501961 1 0
vt 0.752173305 0.0998983383 0
vt 0.752173305 0.118433654 0
vt 0.756258011 0.118433654 0
vt 0.756258011 0.0998983383 0
vt 0.906332195 0.266858697 0
vt 0.906332195 0.285394013 0
vt 0.910416901 0.285394013 0
vt 0.910416901 0.266858697 0
vt 0.102558777 0.493770242 0
vt 0.10255871 0 0
vt 0.0984739661 0 0
vt 0.0984739959 0.493770242 0
vt 0.393751264 1 0
vt 0.393751264 0.506229758 0
vt 0.375058591 0.506229758 0
vt 0.375058591 1 0
vt 0.0859118029 0.493770242 0
vt 0.0859118029 0 0
vt 0.0818270221 0 0
vt 0.0818270817 0.493770242 0
vt 0.0812024847 1 0
vt 0.0812024176 0.506229758 0
vt 0.0625097454 0.506229758 0
vt 0.062509805 1 0
vt 0.534755051 0.0965157151 0
vt 0.534755051 0.115051031 0
vt 0.538839817 0.115051031 0
vt 0.538839817 0.0965157151 0
vt 0.906332195 0.235866964 0
vt 0.906332195 0.25440228 0
vt 0.910416901 0.25440228 0
vt 0.910416901 0.235866964 0
vt 0.933412075 1 0
vt 0.933412075 0.506229758 0
vt 0.929327309 0.506229758 0
vt 0.929327369 1 0
vt 0.362496406 1 0
vt 0.362496406 0.506229758 0
vt 0.343803734 0.506229758 0
vt 0.343803734 1 0
vt 0.883471131 1 0
vt 0.883471012 0.506229758 0
vt 0.879386306 0.506229758 0
vt 0.879386365 1 0
vt 0.268731833 1 0
vt 0.268731773 0.506229758 0
vt 0.250039101 0.506229758 0
vt 0.25003916 1 0
vt 0.59588176 0.0998980999 0
vt 0.59588176 0.118433416 0
vt 0.599966526 0.118433416 0
vt 0.599966526 0.0998980999 0
vt 0.579234838 0.0998981595 0
vt 0.579234838 0.118433475 0
vt 0.583319604 0.118433475 0
vt 0.583319604 0.0998981595 0
vt 0.185793638 0.493770242 0
vt 0.185793638 0 0
vt 0.181708857 0 0
vt 0.181708917 0.493770242 0
vt 0.487515897 1 0
vt 0.487515897 0.506229758 0
vt 0.468823224 0.506229758 0
vt 0.468823224 1 0
vt 0.202440605 0.493770242 0
vt 0.202440545 0 0
vt 0.198355794 0 0
vt 0.198355839 0.493770242 0
vt 0.0499476418 1 0
vt 0.0499475785 0.506229758 0
vt 0.0312549025 0.506229758 0
vt 0.0312549621 1 0
vt 0.912677646 0.168185651 0
vt 0.912677646 0.186720967 0
vt 0.916762412 0.186720967 0
vt 0.916762412 0.168185651 0
vt 0.906332076 0.328842044 0
vt 0.906332076 0.34737736 0
vt 0.910416842 0.34737736 0
vt 0.910416842 0.328842044 0
vt 0.966706097 1 0
vt 0.966706097 0.506229758 0
vt 0.962621331 0.506229758 0
vt 0.962621331 1 0
vt 0.331241578 1 0
vt 0.331241578 0.506229758 0
vt 0.312548906 0.506229758 0
vt 0.312548906 1 0
vt 0.983353019 1 0
vt 0.983352959 0.506229758 0
vt 0.979268193 0.506229758 0
vt 0.979268253 1 0
vt 0.0186927393 1 0
vt 0.0186926778 0.506229758 0
vt 0 0.506229758 0
vt 6.08596551e-08 1 0
vt 0.906332195 0.29785037 0
vt 0.906332195 0.316385686 0
vt 0.910416961 0.316385686 0
vt 0.910416961 0.29785037 0
vt 0.562587857 0.0998982191 0
vt 0.562587857 0.118433535 0
vt 0.566672623 0.118433535 0
vt 0.566672623 0.0998982191 0
vt 0.219087571 0.493770242 0
vt 0.219087571 0 0
vt 0.215002805 0 0
vt 0.215002805 0.493770242 0
vt 0.456261069 1 0
vt 0.456261069 0.506229758 0
vt 0.437568396 0.506229758 0
vt 0.437568396 1 0
vt 0.169146657 0.493770242 0
vt 0.169146597 0 0
vt 0.165061846 0 0
vt 0.165061876 0.493770242 0
vt 0.112457387 1 0
vt 0.11245732 0.506229758 0
vt 0.0937646478 0.506229758 0
vt 0.0937647074 1 0
vt 0.906332076 0.204875231 0
vt 0.906332076 0.223410547 0
vt 0.910416842 0.223410547 0
vt 0.910416842 0.204875231 0
vt 0.879386365 0.0965157151 0
vt 0.879386365 0.115051031 0
vt 0.883471131 0.115051031 0
vt 0.883471131 0.0965157151 0
vt 0.119205683 0.493770242 0
vt 0.119205683 0 0
vt 0.115120903 0 0
vt 0.115120903 0.493770242 0
vt 0.550025702 1 0
vt 0.550025702 0.506229758 0
vt 0.531333029 0.506229758 0
vt 0.531333029 1 0
vt 0.99999994 1 0
vt 0.99999994 0.506229758 0
vt 0.995915174 0.506229758 0
vt 0.995915234 1 0
vt 0.174967185 1 0
vt 0.174967125 0.506229758 0
vt 0.156274453 0.506229758 0
vt 0.156274512 1 0
vt 0.412786096 0.0944039226 0
vt 0.412786096 0.112939239 0
vt 0.416870862 0.112939239 0
vt 0.416870862 0.0944039226 0
vt 0.896033168 0.0965157151 0
vt 0.896033168 0.115051031 0
vt 0.900117934 0.115051031 0
vt 0.900117934 0.0965157151 0
vt 0.502063811 0.493774116 0
vt 0.502063811 0.199178934 0
vt 0.497980326 0.199178934 0
vt 0.497980356 0.493774116 0
vt 0.611200273 0.339146018 0
vt 0.611200273 0.633737326 0
vt 0.631228089 0.633737326 0
vt 0.631228089 0.339146018 0
vt 0.269024521 0.434558451 0
vt 0.269024521 0.139963269 0
vt 0.264941067 0.139963269 0
vt 0.264941067 0.434558451 0
vt 0.785621703 0.339146018 0
vt 0.785621703 0.633737326 0
vt 0.793632925 0.633737326 0
vt 0.793632925 0.339146018 0
vt 0.285670102 0.127507627 0
vt 0.285670102 0.107648373 0
vt 0.281586677 0.107648373 0
vt 0.281586677 0.127507627 0
vt 0.452233255 0.117595315 0
vt 0.452233255 0.109651506 0
vt 0.4481498 0.109651506 0
vt 0.4481498 0.117595315 0
vt 0.26902464 0.493774116 0
vt 0.264941067 0.493774116 0
vt 0.611200273 0.279930353 0
vt 0.631228089 0.279930353 0
vt 0.697989166 0.096806109 0
vt 0.697989166 0.104749858 0
vt 0.70207262 0.104749858 0
vt 0.70207262 0.096806109 0
vt 0.765593886 0.279930353 0
vt 0.765593886 0.339146018 0
vt 0.785621822 0.279930353 0
vt 0.452233255 0.13745451 0
vt 0.4481498 0.13745451 0
vt 0.900115371 0.127511442 0
vt 0.896031976 0.127511442 0
vt 0.896031976 0.186727107 0
vt 0.900115371 0.186727107 0
vt 0.765593886 0.633737326 0
vt 0.603189051 0.339146018 0
vt 0.603189051 0.633737326 0
vt 0.515445948 0.493774116 0
vt 0.515445888 0.199178934 0
vt 0.514625967 0.199178934 0
vt 0.514625967 0.493774116 0
vt 0.0515243299 0.199178934 0
vt 0.0515242703 0.493770242 0
vt 0.0526179187 0.493770242 0
vt 0.0526179187 0.199178934 0
vt 0.33478725 0.434558451 0
vt 0.33478725 0.139963269 0
vt 0.331523716 0.139963269 0
vt 0.331523716 0.434558451 0
vt 0.833282471 0.339146018 0
vt 0.833282471 0.633737326 0
vt 0.834234059 0.633737326 0
vt 0.834234059 0.339146018 0
vt 0.232469633 0.12642312 0
vt 0.232469633 0.127507567 0
vt 0.235733181 0.127507567 0
vt 0.235733181 0.12642312 0
vt 0.484704673 0.110595107 0
vt 0.484704673 0.109651506 0
vt 0.48144114 0.109651506 0
vt 0.48144114 0.110595107 0
vt 0.33478725 0.493774116 0
vt 0.331523716 0.493774116 0
vt 0.0515243299 0.139963269 0
vt 0.0526179187 0.139963269 0
vt 0.791719139 0.0963261127 0
vt 0.791719139 0.0972697139 0
vt 0.792539001 0.0972697139 0
vt 0.792539001 0.0963261127 0
vt 0.807288706 0.279930353 0
vt 0.807288706 0.339146018 0
vt 0.826222897 0.339146018 0
vt 0.826223016 0.279930353 0
vt 0.484704673 0.136370063 0
vt 0.484704673 0.117595315 0
vt 0.48144114 0.117595315 0
vt 0.48144114 0.136370063 0
vt 0.822566688 0.109729767 0
vt 0.821746767 0.109729767 0
vt 0.821746767 0.168945432 0
vt 0.822566688 0.168945432 0
vt 0.807288706 0.633737326 0
vt 0.826222897 0.633737326 0
vt 0.485418141 0.493774116 0
vt 0.485418141 0.199178934 0
vt 0.481334627 0.199178934 0
vt 0.481334686 0.493774116 0
vt 0.0189423859 0.199178934 0
vt 0.0189423859 0.493770242 0
vt 0.0200278778 0.493770242 0
vt 0.0200278778 0.199178934 0
vt 0.302315831 0.434558451 0
vt 0.302315831 0.139963269 0
vt 0.298232347 0.139963269 0
vt 0.298232347 0.434558451 0
vt 0.893770039 0.493774116 0
vt 0.893770039 0.199178934 0
vt 0.89285934 0.199178934 0
vt 0.89285934 0.493774116 0
vt 0.248295382 0.126431227 0
vt 0.248295382 0.127507567 0
vt 0.252378851 0.127507567 0
vt 0.252378851 0.126431227 0
vt 0.0514329821 0.127507567 0
vt 0.0523436852 0.127507567 0
vt 0.0523436852 0.123458445 0
vt 0.0514329821 0.123458445 0
vt 0.302315831 0.493774116 0
vt 0.298232406 0.493774116 0
vt 0.0189423859 0.139963269 0
vt 0.0200278778 0.139963269 0
vt 0.912677586 0.154826283 0
vt 0.912677586 0.155729353 0
vt 0.916761041 0.155729353 0
vt 0.916761041 0.154826283 0
vt 0.847881734 0.646193027 0
vt 0.847881734 0.705408692 0
vt 0.86682409 0.705408692 0
vt 0.86682421 0.646193027 0
vt 0.859121561 0.109729767 0
vt 0.855038047 0.109729767 0
vt 0.855038047 0.168945432 0
vt 0.859121561 0.168945432 0
vt 0.417864084 0.493774116 0
vt 0.417864054 0.199178934 0
vt 0.414751977 0.199178934 0
vt 0.414752007 0.493774116 0
vt 0.670759916 0.339146018 0
vt 0.670759916 0.633737326 0
vt 0.671829343 0.633737326 0
vt 0.671829343 0.339146018 0
vt 0.365786433 0.434558451 0
vt 0.365786433 0.139963269 0
vt 0.364815056 0.139963269 0
vt 0.364815056 0.434558451 0
vt 0.545707822 0.493774116 0
vt 0.545707822 0.199178934 0
vt 0.54478544 0.199178934 0
vt 0.54478544 0.493774116 0
vt 0.0378994383 0.126447141 0
vt 0.0378994383 0.127507567 0
vt 0.0388708189 0.127507567 0
vt 0.0388708189 0.126447141 0
vt 0.698960364 0.118120909 0
vt 0.698960364 0.117206275 0
vt 0.697988987 0.117206275 0
vt 0.697988987 0.118120909 0
vt 0.365786433 0.493774116 0
vt 0.364815116 0.493774116 0
vt 0.670759916 0.279930353 0
vt 0.671829343 0.279930353 0
vt 0.772781312 0.0963550806 0
vt 0.772781312 0.0972697139 0
vt 0.77589339 0.0972697139 0
vt 0.77589339 0.0963550806 0
vt 0.847865701 0.279930353 0
vt 0.847865701 0.339146018 0
vt 0.86682409 0.339146018 0
vt 0.86682421 0.279930353 0
vt 0.841504514 0.109729767 0
vt 0.838392437 0.109729767 0
vt 0.838392437 0.168945432 0
vt 0.841504574 0.168945432 0
vt 0.644712746 0.339146018 0
vt 0.644712746 0.633737326 0
vt 0.651801527 0.633737326 0
vt 0.651801527 0.339146018 0
vt 0.468772531 0.493774116 0
vt 0.468772531 0.199178934 0
vt 0.464689016 0.199178934 0
vt 0.464689016 0.493774116 0
vt 0.69240272 0.705408692 0
vt 0.69240272 1 0
vt 0.712430537 1 0
vt 0.712430537 0.705408692 0
vt 0.285670221 0.434558451 0
vt 0.285670191 0.139963269 0
vt 0.281586736 0.139963269 0
vt 0.281586766 0.434558451 0
vt 0.745020509 0.705408692 0
vt 0.745020509 1 0
vt 0.753031731 1 0
vt 0.753031731 0.705408692 0
vt 0.314877987 0.107648373 0
vt 0.314877987 0.127507567 0
vt 0.318961501 0.127507567 0
vt 0.318961501 0.107648373 0
vt 0.468879014 0.117595315 0
vt 0.468879014 0.109651506 0
vt 0.46479553 0.109651506 0
vt 0.46479553 0.117595315 0
vt 0.285670221 0.493774116 0
vt 0.281586766 0.493774116 0
vt 0.69240272 0.646193027 0
vt 0.712430537 0.646193027 0
vt 0.912680089 0.107107401 0
vt 0.912680089 0.11505115 0
vt 0.916763544 0.11505115 0
vt 0.916763544 0.107107401 0
vt 0.724992692 0.646193027 0
vt 0.724992692 0.705408692 0
vt 0.745020628 0.646193027 0
vt 0.468879014 0.13745451 0
vt 0.46479553 0.13745451 0
vt 0.80918473 0.109729767 0
vt 0.805101216 0.109729767 0
vt 0.805101216 0.168945432 0
vt 0.80918473 0.168945432 0
vt 0.724992692 1 0
vt 0.684391558 0.705408692 0
vt 0.684391558 1 0
vt 0.452126801 0.493774116 0
vt 0.452126801 0.199178934 0
vt 0.448043317 0.199178934 0
vt 0.448043317 0.493774116 0
vt 0.570599079 0.705408692 0
vt 0.570599079 1 0
vt 0.590626895 1 0
vt 0.590626895 0.705408692 0
vt 0.352252841 0.434558451 0
vt 0.352252811 0.139963269 0
vt 0.348169357 0.139963269 0
vt 0.348169386 0.434558451 0
vt 0.826222897 0.705408692 0
vt 0.826222897 1 0
vt 0.834234059 1 0
vt 0.834234059 0.705408692 0
vt 0.331523657 0.107648373 0
vt 0.331523657 0.127507567 0
vt 0.335607171 0.127507567 0
vt 0.335607171 0.107648373 0
vt 0.685426891 0.125150025 0
vt 0.685426891 0.117206275 0
vt 0.681343377 0.117206275 0
vt 0.681343377 0.125150025 0
vt 0.352252841 0.493774116 0
vt 0.348169386 0.493774116 0
vt 0.570599079 0.646193027 0
vt 0.590626895 0.646193027 0
vt 0.505886674 0.0959562063 0
vt 0.505886674 0.103899956 0
vt 0.509970188 0.103899956 0
vt 0.509970188 0.0959562063 0
vt 0.80619508 0.646193027 0
vt 0.80619508 0.705408692 0
vt 0.826223016 0.646193027 0
vt 0.685426891 0.145009279 0
vt 0.681343377 0.145009279 0
vt 0.88346982 0.127511442 0
vt 0.879386306 0.127511442 0
vt 0.879386306 0.186727107 0
vt 0.88346982 0.186727107 0
vt 0.80619508 1 0
vt 0.562587857 0.705408692 0
vt 0.562587857 1 0
vt 0.435481131 0.493774116 0
vt 0.435481131 0.199178934 0
vt 0.431397706 0.199178934 0
vt 0.431397706 0.493774116 0
vt 0.651801527 0.705408692 0
vt 0.651801527 1 0
vt 0.671829343 1 0
vt 0.671829343 0.705408692 0
vt 0.318961531 0.434558451 0
vt 0.318961501 0.139963269 0
vt 0.314878017 0.139963269 0
vt 0.314878047 0.434558451 0
vt 0.704419374 0.339146018 0
vt 0.704419374 0.633737326 0
vt 0.712430537 0.633737326 0
vt 0.712430537 0.339146018 0
vt 0.269024521 0.127507627 0
vt 0.269024521 0.107648373 0
vt 0.264941037 0.107648373 0
vt 0.264941037 0.127507627 0
vt 0.668781281 0.125150025 0
vt 0.668781281 0.117206275 0
vt 0.664697766 0.117206275 0
vt 0.664697766 0.125150025 0
vt 0.318961531 0.493774116 0
vt 0.314878047 0.493774116 0
vt 0.651801527 0.646193027 0
vt 0.671829343 0.646193027 0
vt 0.681343377 0.096806109 0
vt 0.681343377 0.104749858 0
vt 0.685426891 0.104749858 0
vt 0.685426891 0.096806109 0
vt 0.684391558 0.279930353 0
vt 0.684391558 0.339146018 0
vt 0.704419494 0.279930353 0
vt 0.668781281 0.145009279 0
vt 0.664697766 0.145009279 0
vt 0.792539001 0.109729767 0
vt 0.788455606 0.109729767 0
vt 0.788455606 0.168945432 0
vt 0.792539001 0.168945432 0
vt 0.684391558 0.633737326 0
vt 0.643790364 0.705408692 0
vt 0.643790364 1 0
vt 0.402189821 0.493774116 0
vt 0.402189821 0.199178934 0
vt 0.398106366 0.199178934 0
vt 0.398106366 0.493774116 0
vt 0.611200273 0.705408692 0
vt 0.611200273 1 0
vt 0.631228089 1 0
vt 0.631228089 0.705408692 0
vt 0.252378881 0.434558451 0
vt 0.252378851 0.139963269 0
vt 0.248295367 0.139963269 0
vt 0.248295397 0.434558451 0
vt 0.745020509 0.339146018 0
vt 0.745020509 0.633737326 0
vt 0.753031731 0.633737326 0
vt 0.753031731 0.339146018 0
vt 0.0181417763 0.107648253 0
vt 0.0181417763 0.127507448 0
vt 0.022225216 0.127507448 0
vt 0.022225216 0.107648253 0
vt 0.385544151 0.117595315 0
vt 0.385544151 0.109651506 0
vt 0.381460667 0.109651506 0
vt 0.381460667 0.117595315 0
vt 0.252378881 0.493774116 0
vt 0.248295397 0.493774116 0
vt 0.611200273 0.646193027 0
vt 0.631228089 0.646193027 0
vt 0.664697766 0.096806109 0
vt 0.664697766 0.104749858 0
vt 0.668781281 0.104749858 0
vt 0.668781281 0.096806109 0
vt 0.724992692 0.279930353 0
vt 0.724992692 0.339146018 0
vt 0.745020628 0.279930353 0
vt 0.385544151 0.13745451 0
vt 0.381460667 0.13745451 0
vt 0.538838506 0.127511442 0
vt 0.534755051 0.127511442 0
vt 0.534755051 0.186727107 0
vt 0.538838506 0.186727107 0
vt 0.724992692 0.633737326 0
vt 0.603189051 0.705408692 0
vt 0.603189051 1 0
vt 0.385544091 0.493774116 0
vt 0.385544091 0.199178934 0
vt 0.381460637 0.199178934 0
vt 0.381460637 0.493774116 0
vt 0.570599079 0.339146018 0
vt 0.570599079 0.633737326 0
vt 0.590626895 0.633737326 0
vt 0.590626895 0.339146018 0
vt 0.235733211 0.434558451 0
vt 0.235733211 0.139963269 0
vt 0.231649712 0.139963269 0
vt 0.231649712 0.434558451 0
vt 0.785621703 0.705408692 0
vt 0.785621703 1 0
vt 0.793632925 1 0
vt 0.793632925 0.705408692 0
vt 0.302315861 0.127507627 0
vt 0.302315861 0.107648373 0
vt 0.298232377 0.107648373 0
vt 0.298232377 0.127507627 0
vt 0.718718112 0.125150025 0
vt 0.718718112 0.117206275 0
vt 0.714634657 0.117206275 0
vt 0.714634657 0.125150025 0
vt 0.235733211 0.493774116 0
vt 0.231649771 0.493774116 0
vt 0.570599079 0.279930353 0
vt 0.590626895 0.279930353 0
vt 0.714634657 0.096806109 0
vt 0.714634657 0.104749858 0
vt 0.718718112 0.104749858 0
vt 0.718718112 0.096806109 0
vt 0.765593886 0.646193027 0
vt 0.765593886 0.705408692 0
vt 0.785621822 0.646193027 0
vt 0.718718112 0.145009279 0
vt 0.714634657 0.145009279 0
vt 0.775893271 0.109729767 0
vt 0.771809876 0.109729767 0
vt 0.771809876 0.168945432 0
vt 0.775893271 0.168945432 0
vt 0.765593886 1 0
vt 0.562587857 0.339146018 0
vt 0.562587857 0.633737326 0
vt 0.825830221 0.109729767 0
vt 0.825830221 0.168945432 0
vt 0.788455606 0.0963261127 0
vt 0.788455606 0.0972697139 0
vt 0.33560729 0.493774116 0
vt 0.335607171 0.434558451 0
vt 0.485524565 0.110595107 0
vt 0.485524565 0.109651506 0
vt 0.231649712 0.12642312 0
vt 0.231649712 0.127507567 0
vt 0.335607171 0.139963269 0
vt 0.518709481 0.493774116 0
vt 0.518709421 0.199178934 0
vt 0.842475951 0.109729767 0
vt 0.842475951 0.168945432 0
vt 0.702072501 0.143948853 0
vt 0.702072501 0.125150025 0
vt 0.698960364 0.125150025 0
vt 0.698960364 0.143948853 0
vt 0.771809936 0.0963550806 0
vt 0.771809936 0.0972697139 0
vt 0.368898541 0.493774116 0
vt 0.368898541 0.434558451 0
vt 0.702072501 0.118120909 0
vt 0.702072501 0.117206275 0
vt 0.0347873494 0.126447141 0
vt 0.0347873494 0.127507567 0
vt 0.368898541 0.139963269 0
vt 0.418835491 0.493774116 0
vt 0.418835461 0.199178934 0
vt 0.771809936 0.0893259645 0
vt 0.772781312 0.0893259645 0
vt 0.643790364 0.339146018 0
vt 0.643790364 0.633737326 0
vt 0.77589339 0.0893259645 0
vt 0.880297065 0.493774116 0
vt 0.880297005 0.199178934 0
vt 0.879386306 0.199178934 0
vt 0.879386306 0.493774116 0
vt 0.912677586 0.147785604 0
vt 0.916761041 0.147785604 0
vt 0.788455606 0.0893259645 0
vt 0.791719139 0.0893259645 0
vt 0.532223284 0.493774116 0
vt 0.532223284 0.199178934 0
vt 0.531271636 0.199178934 0
vt 0.531271636 0.493774116 0
vt 0.792539001 0.0893259645 0
vt 0.231649712 0.107648373 0
vt 0.232469633 0.107648373 0
vt 0.485524565 0.13745451 0
vt 0.485524565 0.136370063 0
vt 0.484704673 0.13745451 0
vt 0.80619508 0.339146018 0
vt 0.80619508 0.633737326 0
vt 0.48144114 0.13745451 0
vt 0.80619508 0.279930353 0
vt 0.0325900428 0.139963269 0
vt 0.0325900428 0.199178934 0
vt 0.235733181 0.107648373 0
vt 0.846796274 0.705408692 0
vt 0.846796274 1 0
vt 0.847881734 1 0
vt 0.398106366 0.137454391 0
vt 0.399191856 0.137454391 0
vt 0.399191856 0.133405328 0
vt 0.398106366 0.133405328 0
vt 0.846796274 0.646193027 0
vt 0 0.139963269 0
vt 0 0.199178934 0
vt 0.248295382 0.107648373 0
vt 0.252378851 0.107648373 0
vt 0.0347873494 0.107648373 0
vt 0.0378994383 0.107648373 0
vt 0.702072501 0.145009279 0
vt 0.698960364 0.145009279 0
vt 0.846796274 0.339146018 0
vt 0.846796274 0.633737326 0
vt 0.847865701 0.633737326 0
vt 0.697988987 0.143948853 0
vt 0.697988987 0.145009279 0
vt 0.846796274 0.279930353 0
vt 0.651801527 0.279930353 0
vt 0.0388708189 0.107648373 0
vt 0.493325084 0.164111555 0
vt 0.477020532 0.164111555 0
vt 0.477020532 0.186721087 0
vt 0.493325084 0.186721087 0
vt 0.862526059 0.238519073 0
vt 0.846221507 0.238519073 0
vt 0.846221507 0.267473221 0
vt 0.862526059 0.267473221 0
vt 0.464455217 0.180247366 0
vt 0.448150665 0.180247366 0
vt 0.448150665 0.186721087 0
vt 0.464455217 0.186721087 0
vt 0.522191048 0.157766938 0
vt 0.505886495 0.157766938 0
vt 0.505886495 0.186721087 0
vt 0.522191048 0.186721087 0
vt 0.51241529 0.145310521 0
vt 0.51241529 0.116356373 0
vt 0.505886614 0.116356373 0
vt 0.505886614 0.145310521 0
vt 0.771809995 0.237136483 0
vt 0.801009953 0.237136483 0
vt 0.801009953 0.230662823 0
vt 0.771809995 0.230662823 0
vt 0.771809995 0.267473102 0
vt 0.801009953 0.267473102 0
vt 0.801009953 0.24486351 0
vt 0.771809995 0.24486351 0
vt 0.412786335 0.157766819 0
vt 0.412786335 0.186720967 0
vt 0.435587764 0.186720967 0
vt 0.435587764 0.157766819 0
vt 0.464455217 0.149910808 0
vt 0.448150665 0.149910808 0
vt 0.448150665 0.17252028 0
vt 0.464455217 0.17252028 0
vt 0.493325084 0.156384468 0
vt 0.477020532 0.156384468 0
vt 0.493325084 0.149910808 0
vt 0.477020532 0.149910808 0
vt 0.759247661 0.16326791 0
vt 0.753668129 0.16326791 0
vt 0.753668129 0.267478526 0
vt 0.759247661 0.267478526 0
vt 0.799271703 0.238270462 0
vt 0.799271703 0.243803084 0
vt 0.775049508 0.243803084 0
vt 0.775049508 0.238270462 0
vt 0.00557955215 0.127507567 0
vt 0.00557955215 0.103489399 0
vt 0 0.103489399 0
vt 0 0.127507567 0
vt 0.741106033 0.16326791 0
vt 0.735526502 0.16326791 0
vt 0.735526502 0.267478526 0
vt 0.741106033 0.267478526 0
vt 0.623594284 0.16326791 0
vt 0.599372149 0.16326791 0
vt 0.599372149 0.267478526 0
vt 0.623594344 0.267478526 0
vt 0.586809993 0.16326791 0
vt 0.562587857 0.16326791 0
vt 0.562587857 0.267478526 0
vt 0.586809993 0.267478526 0
vt 0.637865007 0.10819912 0
vt 0.636156499 0.10819912 0
vt 0.636156499 0.145009398 0
vt 0.637865007 0.145009398 0
vt 0.908040583 0.359832108 0
vt 0.906332076 0.359832108 0
vt 0.906332076 0.420577168 0
vt 0.908040583 0.420577168 0
vt 0.650427103 0.145009398 0
vt 0.652135611 0.145009398 0
vt 0.652135611 0.10819912 0
vt 0.650427103 0.10819912 0
vt 0.908040643 0.433028996 0
vt 0.906332135 0.433028996 0
vt 0.906332135 0.493774116 0
vt 0.908040643 0.493774116 0
vt 0.673279166 0.267478526 0
vt 0.673279166 0.206733406 0
vt 0.63615638 0.206733406 0
vt 0.63615638 0.267478526 0
vt 0.685841441 0.206733406 0
vt 0.685841441 0.267478526 0
vt 0.722964287 0.267478526 0
vt 0.722964287 0.206733406 0
vt 0.833656192 0.230662823 0
vt 0.813571513 0.230662823 0
vt 0.813571513 0.267473102 0
vt 0.833656192 0.267473102 0
vt 0.754289806 0.15080452 0
vt 0.754289806 0.130890906 0
vt 0.735526443 0.130890906 0
vt 0.735526443 0.15080452 0
vt 0.656240046 0.157465637 0
vt 0.636155367 0.157465637 0
vt 0.636155367 0.194275916 0
vt 0.656240046 0.194275916 0
vt 0.431549549 0.145308554 0
vt 0.431549549 0.12539494 0
vt 0.412786216 0.12539494 0
vt 0.412786216 0.145308554 0
vt 0.381460637 0.186721087 0
vt 0.40022406 0.186721087 0
vt 0.400224 0.149910808 0
vt 0.381460637 0.149910808 0
vt 0.837102175 0.218206525 0
vt 0.855865538 0.218206525 0
vt 0.855865538 0.181396246 0
vt 0.837102175 0.181396246 0
vn -1 0 0
vn -1 0 0
vn -1 0 0
vn -1 0 0
vn -1 0 0
vn -1 0 0
vn 0 0 -1
vn 0 0 -1
vn 0 0 -1
vn 0 0 -1
vn 0 0 -1
vn 0 0 -1
vn 1 0 0
vn 1 0 0
vn 1 0 0
vn 1 0 0
vn 1 0 0
vn 1 0 0
vn 0 0 1
vn 0 0 1
vn 0 0 1
vn 0 0 1
vn 0 0 1
vn 0 0 1
vn 0 -1 1.54829607e-07
vn 0 -1 1.03219627e-07
vn 0 -1 1.54829607e-07
vn 0 -1 1.54829607e-07
vn 0 -1 1.54829607e-07
vn 0 -1 2.06439594e-07
vn 0 1 -1.54829522e-07
vn 0 1 -1.03219797e-07
vn 0 1 -1.54829522e-07
vn 0 1 -1.54829522e-07
vn 0 1 -1.54829522e-07
vn 0 1 -2.06439253e-07
vn -1 1.50312871e-07 0
vn -1 6.74708303e-07 0
vn -1 1.50312871e-07 0
vn -1 1.50312871e-07 0
vn -1 1.50312871e-07 0
vn -1 -3.7408256e-07 0
vn 0 -2.13545121e-07 -1
vn 0 -2.13545178e-07 -1
vn 0 -2.13545121e-07 -1
vn 0 -2.13545121e-07 -1
vn 0 -2.13545121e-07 -1
vn 0 -2.13545064e-07 -1
vn 1 1.53711834e-08 0
vn 1 0 0
vn 1 1.53711834e-08 0
vn 1 1.53711834e-08 0
vn 1 1.53711834e-08 0
vn 1 3.07423669e-08 0
vn 0 2.13545121e-07 1
vn 0 2.13545178e-07 1
vn 0 2.13545121e-07 1
vn 0 2.13545121e-07 1
vn 0 2.13545121e-07 1
vn 0 2.13545064e-07 1
vn 0 -1 0
vn 0 -1 0
vn 0 -1 0
vn 0 -1 0
vn 0 -1 0
vn 0 -1 0
vn 0 1 0
vn 0 1 0
vn 0 1 0
vn 0 1 0
vn 0 1 0
vn 0 1 0
vn -1 1.50312829e-07 0
vn -1 0 0
vn -1 1.50312829e-07 0
vn -1 1.50312829e-07 0
vn -1 1.50312829e-07 0
vn -1 3.00625658e-07 0
vn 0 -2.13545121e-07 -1
vn 0 -2.13545178e-07 -1
vn 0 -2.13545121e-07 -1
vn 0 -2.13545121e-07 -1
vn 0 -2.13545121e-07 -1
vn 0 -2.13545107e-07 -1
vn 1 1.53711834e-08 0
vn 1 0 0
vn 1 1.53711834e-08 0
vn 1 1.53711834e-08 0
vn 1 1.53711834e-08 0
vn 1 3.07423669e-08 0
vn 0 2.13545121e-07 1
vn 0 2.13545178e-07 1
vn 0 2.13545121e-07 1
vn 0 2.13545121e-07 1
vn 0 2.13545121e-07 1
vn 0 2.13545064e-07 1
vn 0 -1 2.35405338e-07
vn 0 -1 4.70810676e-07
vn 0 -1 2.35405338e-07
vn 0 -1 2.35405338e-07
vn 0 -1 2.35405338e-07
vn 0 -1 0
vn 0 1 -4.70810676e-07
vn 0 1 0
vn 0 1 -4.70810676e-07
vn 0 1 -4.70810676e-07
vn 0 1 -4.70810676e-07
vn 0 1 -9.41621352e-07
vn -1 7.51564144e-08 0
vn -1 0 0
vn -1 7.51564144e-08 0
vn -1 7.51564144e-08 0
vn -1 7.51564144e-08 0
vn -1 1.50312829e-07 0
vn 0 -1.06772561e-07 -1
vn 0 -1.06772532e-07 -1
vn 0 -1.06772561e-07 -1
vn 0 -1.06772561e-07 -1
vn 0 -1.06772561e-07 -1
vn 0 -1.0677261e-07 -1
vn 1 1.53711834e-08 0
vn 1 0 0
vn 1 1.53711834e-08 0
vn 1 1.53711834e-08 0
vn 1 1.53711834e-08 0
vn 1 3.07423669e-08 0
vn 0 2.13545121e-07 1
vn 0 2.13545178e-07 1
vn 0 2.13545121e-07 1
vn 0 2.13545121e-07 1
vn 0 2.13545121e-07 1
vn 0 2.13545107e-07 1
vn 0 -1 0
vn 0 -1 0
vn 0 -1 0
vn 0 -1 0
vn 0 -1 0
vn 0 -1 0
vn 0 1 0
vn 0 1 0
vn 0 1 0
vn 0 1 0
vn 0 1 0
vn 0 1 0
vn -1 -2.24619498e-07 0
vn -1 0 0
vn -1 -2.24619498e-07 0
vn -1 -2.24619498e-07 0
vn -1 -2.24619498e-07 0
vn -1 -4.49238996e-07 0
vn 0 -1.60158777e-07 -1
vn 0 -1.60158606e-07 -1
vn 0 -1.60158777e-07 -1
vn 0 -1.60158777e-07 -1
vn 0 -1.60158777e-07 -1
vn 0 -1.60158947e-07 -1
vn 1 3.45039723e-07 0
vn 1 6.74708247e-07 0
vn 1 3.45039723e-07 0
vn 1 3.45039723e-07 0
vn 1 3.45039723e-07 0
vn 1 1.53711834e-08 0
vn 0 1.06772561e-07 1
vn 0 1.06772532e-07 1
vn 0 1.06772561e-07 1
vn 0 1.06772561e-07 1
vn 0 1.06772561e-07 1
vn 0 1.0677261e-07 1
vn 0 -1 2.35405338e-07
vn 0 -1 4.70810676e-07
vn 0 -1 2.35405338e-07
vn 0 -1 2.35405338e-07
vn 0 -1 2.35405338e-07
vn 0 -1 0
vn 0 1 0
vn 0 1 0
vn 0 1 0
vn 0 1 0
vn 0 1 0
vn 0 1 0
vn -1 1.1273454e-07 0
vn -1 6.74707962e-07 0
vn -1 1.1273454e-07 0
vn -1 1.1273454e-07 0
vn -1 1.1273454e-07 0
vn -1 -4.49238883e-07 0
vn 0 -1.60158777e-07 -1
vn 0 -1.60158692e-07 -1
vn 0 -1.60158777e-07 -1
vn 0 -1.60158777e-07 -1
vn 0 -1.60158777e-07 -1
vn 0 -1.60158891e-07 -1
vn 1 1.15283569e-08 0
vn 1 -6.74708076e-07 0
vn 1 1.15283569e-08 0
vn 1 1.15283569e-08 0
vn 1 1.15283569e-08 0
vn 1 6.9776479e-07 0
vn 0 1.60158777e-07 1
vn 0 1.60158862e-07 1
vn 0 1.60158777e-07 1
vn 0 1.60158777e-07 1
vn 0 1.60158777e-07 1
vn 0 1.60158692e-07 1
vn 0 -1 2.35405338e-07
vn 0 -1 0
vn 0 -1 2.35405338e-07
vn 0 -1 2.35405338e-07
vn 0 -1 2.35405338e-07
vn 0 -1 4.70810676e-07
vn 0 1 -4.70810676e-07
vn 0 1 -9.41621352e-07
vn 0 1 -4.70810676e-07
vn 0 1 -4.70810676e-07
vn 0 1 -4.70810676e-07
vn 0 1 0
vn -1 4.87667023e-07 0
vn -1 6.74708303e-07 0
vn -1 4.87667023e-07 0
vn -1 4.87667023e-07 0
vn -1 4.87667023e-07 0
vn -1 3.00625743e-07 0
vn 0 -2.13545107e-07 -1
vn 0 -2.13545107e-07 -1
vn 0 -2.13545107e-07 -1
vn 0 -2.13545107e-07 -1
vn 0 -2.13545107e-07 -1
vn 0 -2.13545107e-07 -1
vn 1 -3.25825795e-07 0
vn 1 0 0
vn 1 -3.25825795e-07 0
vn 1 -3.25825795e-07 0
vn 1 -3.25825795e-07 0
vn 1 -6.5165159e-07 0
vn 0 1.60158777e-07 1
vn 0 1.60158947e-07 1
vn 0 1.60158777e-07 1
vn 0 1.60158777e-07 1
vn 0 1.60158777e-07 1
vn 0 1.60158635e-07 1
vn 0 -1 2.35405338e-07
vn 0 -1 4.70810676e-07
vn 0 -1 2.35405338e-07
vn 0 -1 2.35405338e-07
vn 0 -1 2.35405338e-07
vn 0 -1 0
vn 0 1 0
vn 0 1 0
vn 0 1 0
vn 0 1 0
vn 0 1 0
vn 0 1 0
vn -1 1.50312829e-07 0
vn -1 0 0
vn -1 1.50312829e-07 0
vn -1 1.50312829e-07 0
vn -1 1.50312829e-07 0
vn -1 3.00625658e-07 0
vn 0 -2.13545121e-07 -1
vn 0 -2.13545107e-07 -1
vn 0 -2.13545121e-07 -1
vn 0 -2.13545121e-07 -1
vn 0 -2.13545121e-07 -1
vn 0 -2.13545178e-07 -1
vn 1 1.53711781e-08 0
vn 1 0 0
vn 1 1.53711781e-08 0
vn 1 1.53711781e-08 0
vn 1 1.53711781e-08 0
vn 1 3.07423562e-08 0
vn 0 2.13545107e-07 1
vn 0 2.13545107e-07 1
vn 0 2.13545107e-07 1
vn 0 2.13545107e-07 1
vn 0 2.13545107e-07 1
vn 0 2.13545107e-07 1
vn 0 -1 2.35405338e-07
vn 0 -1 0
vn 0 -1 2.35405338e-07
vn 0 -1 2.35405338e-07
vn 0 -1 2.35405338e-07
vn 0 -1 4.70810676e-07
vn 0 1 -4.70810676e-07
vn 0 1 0
vn 0 1 -4.70810676e-07
vn 0 1 -4.70810676e-07
vn 0 1 -4.70810676e-07
vn 0 1 -9.41621352e-07
vn -1 1.50313213e-07 0
vn -1 6.74708986e-07 0
vn -1 1.50313213e-07 0
vn -1 1.50313213e-07 0
vn -1 1.50313213e-07 0
vn -1 -3.7408256e-07 0
vn 0 -2.13545121e-07 -1
vn 0 -2.13545107e-07 -1
vn 0 -2.13545121e-07 -1
vn 0 -2.13545121e-07 -1
vn 0 -2.13545121e-07 -1
vn 0 -2.13545178e-07 -1
vn 1 1.53711994e-08 0
vn 1 0 0
vn 1 1.53711994e-08 0
vn 1 1.53711994e-08 0
vn 1 1.53711994e-08 0
vn 1 3.07423988e-08 0
vn 0 2.13545121e-07 1
vn 0 2.13545107e-07 1
vn 0 2.13545121e-07 1
vn 0 2.13545121e-07 1
vn 0 2.13545121e-07 1
vn 0 2.13545178e-07 1
vn 0 -1 0
vn 0 -1 0
vn 0 -1 0
vn 0 -1 0
vn 0 -1 0
vn 0 -1 0
vn 0 1 0
vn 0 1 0
vn 0 1 0
vn 0 1 0
vn 0 1 0
vn 0 1 0
vn -1 1.50312857e-07 0
vn -1 6.74708531e-07 0
vn -1 1.50312857e-07 0
vn -1 1.50312857e-07 0
vn -1 1.50312857e-07 0
vn -1 -3.74082816e-07 0
vn 0 -2.13545121e-07 -1
vn 0 -2.13545107e-07 -1
vn 0 -2.13545121e-07 -1
vn 0 -2.13545121e-07 -1
vn 0 -2.13545121e-07 -1
vn 0 -2.13545178e-07 -1
vn 1 1.53711941e-08 0
vn 1 0 0
vn 1 1.53711941e-08 0
vn 1 1.53711941e-08 0
vn 1 1.53711941e-08 0
vn 1 3.07423882e-08 0
vn 0 2.13545121e-07 1
vn 0 2.13545107e-07 1
vn 0 2.13545121e-07 1
vn 0 2.13545121e-07 1
vn 0 2.13545121e-07 1
vn 0 2.13545178e-07 1
vn 0 -1 0
vn 0 -1 0
vn 0 -1 0
vn 0 -1 0
vn 0 -1 0
vn 0 -1 0
vn 0 1 0
vn 0 1 0
vn 0 1 0
vn 0 1 0
vn 0 1 0
vn 0 1 0
vn -1 -1.95168354e-07 0
vn -1 -1.13124236e-06 0
vn -1 -1.95168354e-07 0
vn -1 -1.95168354e-07 0
vn -1 -1.95168354e-07 0
vn -1 7.40905648e-07 0
vn 0 -2.68444239e-07 -1
vn 0 -3.57925728e-07 -1
vn 0 -3.57925813e-07 -1
vn 0 -2.68444239e-07 -1
vn 0 -3.57925813e-07 -1
vn 0 -1.1930868e-07 -1
vn 1 2.07196091e-08 0
vn 1 0 0
vn 1 3.10794128e-08 0
vn 1 2.07196091e-08 0
vn 1 3.10794128e-08 0
vn 1 2.07196091e-08 0
vn 0 2.1475546e-07 1
vn 0 3.57925671e-07 1
vn 0 3.57925813e-07 1
vn 0 2.1475546e-07 1
vn 0 3.57925813e-07 1
vn 0 3.57926268e-07 1
vn 0 -1 3.77748563e-07
vn 0 -1 3.77747909e-07
vn 0 -1 3.77748563e-07
vn 0 -1 3.77748563e-07
vn 0 -1 3.77748563e-07
vn 0 -1 3.77749245e-07
vn 0 1 -2.56411056e-07
vn 0 1 -2.74725295e-07
vn 0 1 -2.74725892e-07
vn 0 1 -2.56411056e-07
vn 0 1 -2.74725892e-07
vn 0 1 -3.11356359e-07
vn 1 0 0
vn 1 2.07196091e-08 0
vn 1 2.07196091e-08 0
vn 1 0 0
vn 1 2.07196091e-08 0
vn 1 0 0
vn 0 0 -1
vn 0 -2.68444239e-07 -1
vn 0 -1.1930868e-07 -1
vn 0 0 -1
vn 0 -1.1930868e-07 -1
vn 0 0 -1
vn 0 -1 3.60577701e-07
vn 0 -1 3.77747313e-07
vn 0 -1 3.60577701e-07
vn 0 -1 3.60577701e-07
vn 0 -1 3.60577701e-07
vn 0 -1 3.43408118e-07
vn 0 0 1
vn 0 2.38617247e-07 1
vn 0 2.1475546e-07 1
vn 0 0 1
vn 0 2.1475546e-07 1
vn 0 0 1
vn 0 1 -3.29671309e-07
vn 0 1 -2.56411056e-07
vn 0 1 -3.11356359e-07
vn 0 1 -3.29671309e-07
vn 0 1 -3.11356359e-07
vn 0 1 -4.39561205e-07
vn -1 0 0
vn -1 0 0
vn -1 0 0
vn -1 0 0
vn -1 0 0
vn -1 0 0
vn 0 2.38617247e-07 1
vn 0 3.57926012e-07 1
vn 0 3.57925671e-07 1
vn 0 2.38617247e-07 1
vn 0 3.57925671e-07 1
vn 0 2.1475546e-07 1
vn 0 -3.57925785e-07 -1
vn 0 -3.57926268e-07 -1
vn 0 -3.57925728e-07 -1
vn 0 -3.57925785e-07 -1
vn 0 -3.57925728e-07 -1
vn 0 -2.68444239e-07 -1
vn -1 -1.70654744e-07 0
vn -1 -3.16150476e-07 0
vn -1 -1.33880974e-07 0
vn -1 -1.70654744e-07 0
vn -1 -1.33880974e-07 0
vn -1 4.36487198e-07 0
vn 0 -7.15851769e-08 -1
vn 0 -1.78962935e-07 -1
vn 0 -1.78962935e-07 -1
vn 0 -7.15851769e-08 -1
vn 0 -1.78962935e-07 -1
vn 0 -5.96543117e-08 -1
vn 1 1.43751862e-07 0
vn 1 2.87503724e-07 0
vn 1 3.53862305e-07 0
vn 1 1.43751862e-07 0
vn 1 3.53862305e-07 0
vn 1 0 0
vn 0 0 1
vn 0 0 1
vn 0 0 1
vn 0 0 1
vn 0 0 1
vn 0 0 1
vn 0 -1 0
vn 0 -1 0
vn 0 -1 0
vn 0 -1 0
vn 0 -1 0
vn 0 -1 0
vn 0 1 0
vn 0 1 0
vn 0 1 0
vn 0 1 0
vn 0 1 0
vn 0 1 0
vn 1 0 0
vn 1 1.43751862e-07 0
vn 1 0 0
vn 1 0 0
vn 1 0 0
vn 1 0 0
vn 0 0 -1
vn 0 -7.15851769e-08 -1
vn 0 -5.96543117e-08 -1
vn 0 0 -1
vn 0 -5.96543117e-08 -1
vn 0 0 -1
vn 0 -1 0
vn 0 -1 0
vn 0 -1 0
vn 0 -1 0
vn 0 -1 0
vn 0 -1 0
vn 0 0 1
vn 0 0 1
vn 0 0 1
vn 0 0 1
vn 0 0 1
vn 0 0 1
vn 0 1 0
vn 0 1 0
vn 0 1 0
vn 0 1 0
vn 0 1 0
vn 0 1 0
vn -1 0 0
vn -1 0 0
vn -1 0 0
vn -1 0 0
vn -1 0 0
vn -1 0 0
vn 0 0 1
vn 0 0 1
vn 0 0 1
vn 0 0 1
vn 0 0 1
vn 0 0 1
vn -1 1.8522627e-07 0
vn -1 0 0
vn -1 1.8522627e-07 0
vn -1 1.8522627e-07 0
vn -1 1.8522627e-07 0
vn -1 3.7045254e-07 0
vn 0 -1.19308623e-07 -1
vn 0 -1.78962921e-07 -1
vn 0 -1.78962921e-07 -1
vn 0 -1.19308623e-07 -1
vn 0 -1.78962921e-07 -1
vn 0 -5.96543117e-08 -1
vn 1 1.03598143e-08 0
vn 1 0 0
vn 1 1.55397206e-08 0
vn 1 1.03598143e-08 0
vn 1 1.55397206e-08 0
vn 1 1.03598143e-08 0
vn 0 1.78962921e-07 1
vn 0 1.78962921e-07 1
vn 0 1.78962921e-07 1
vn 0 1.78962921e-07 1
vn 0 1.78962921e-07 1
vn 0 1.78962921e-07 1
vn 0 -1 3.77996543e-07
vn 0 -1 3.8017032e-07
vn 0 -1 3.78190265e-07
vn 0 -1 3.77996543e-07
vn 0 -1 3.78190265e-07
vn 0 -1 3.77143067e-07
vn 0 1 -4.53126233e-07
vn 0 1 -6.04168292e-07
vn 0 1 -4.53126233e-07
vn 0 1 -4.53126233e-07
vn 0 1 -4.53126233e-07
vn 0 1 -3.02084146e-07
vn 1 0 0
vn 1 1.03598143e-08 0
vn 1 1.03598143e-08 0
vn 1 0 0
vn 1 1.03598143e-08 0
vn 1 0 0
vn 0 0 -1
vn 0 -1.19308623e-07 -1
vn 0 -5.96543117e-08 -1
vn 0 0 -1
vn 0 -5.96543117e-08 -1
vn 0 0 -1
vn 0 -1 3.67972916e-07
vn 0 -1 3.77605176e-07
vn 0 -1 3.77605176e-07
vn 0 -1 3.67972916e-07
vn 0 -1 3.77605176e-07
vn 0 -1 3.71255737e-07
vn 0 0 1
vn 0 0 1
vn 0 0 1
vn 0 0 1
vn 0 0 1
vn 0 0 1
vn -1 0 0
vn -1 0 0
vn -1 0 0
vn -1 0 0
vn -1 0 0
vn -1 0 0
vn -1 -3.99355002e-07 0
vn -1 1.22810462e-07 0
vn -1 -1.88803412e-07 0
vn -1 -3.99355002e-07 0
vn -1 -1.88803412e-07 0
vn -1 -3.77606824e-07 0
vn 0 -1.78405884e-07 -1
vn 0 -1.34221409e-07 -1
vn 0 -1.34221722e-07 -1
vn 0 -1.78405884e-07 -1
vn 0 -1.34221722e-07 -1
vn 0 -1.93134952e-07 -1
vn 1 2.85721455e-08 0
vn 1 1.35933815e-08 0
vn 1 6.53263612e-08 0
vn 1 2.85721455e-08 0
vn 1 6.53263612e-08 0
vn 1 4.35509087e-08 0
vn 0 1.78962921e-07 1
vn 0 1.78960775e-07 1
vn 0 1.78962921e-07 1
vn 0 1.78962921e-07 1
vn 0 1.78962921e-07 1
vn 0 1.78965081e-07 1
vn 0 -1 0
vn 0 -1 0
vn 0 -1 0
vn 0 -1 0
vn 0 -1 0
vn 0 -1 0
vn 0 1 0
vn 0 1 0
vn 0 1 0
vn 0 1 0
vn 0 1 0
vn 0 1 0
vn 1 0 0
vn 1 2.85721455e-08 0
vn 1 4.35509087e-08 0
vn 1 0 0
vn 1 4.35509087e-08 0
vn 1 0 0
vn 0 -2.22590629e-07 -1
vn 0 -1.78405884e-07 -1
vn 0 -1.93134952e-07 -1
vn 0 -2.22590629e-07 -1
vn 0 -1.93134952e-07 -1
vn 0 -2.22592988e-07 -1
vn 0 -1 0
vn 0 -1 0
vn 0 -1 0
vn 0 -1 0
vn 0 -1 0
vn 0 -1 0
vn 0 0 1
vn 0 4.47402613e-08 1
vn 0 0 1
vn 0 0 1
vn 0 0 1
vn 0 0 1
vn -1 1.48777644e-07 0
vn -1 4.46332933e-07 0
vn -1 2.23166467e-07 0
vn -1 1.48777644e-07 0
vn -1 2.23166467e-07 0
vn -1 0 0
vn 0 -1.34221281e-07 -1
vn 0 -1.34221835e-07 -1
vn 0 -1.34222176e-07 -1
vn 0 -1.34221281e-07 -1
vn 0 -1.34222176e-07 -1
vn 0 -1.56314286e-07 -1
vn -1 1.85226227e-07 0
vn -1 0 0
vn -1 1.85226227e-07 0
vn -1 1.85226227e-07 0
vn -1 1.85226227e-07 0
vn -1 3.70452454e-07 0
vn 0 -1.3422212e-07 -1
vn 0 -1.78962893e-07 -1
vn 0 -1.78962921e-07 -1
vn 0 -1.3422212e-07 -1
vn 0 -1.78962921e-07 -1
vn 0 -5.96543401e-08 -1
vn 1 -1.80770712e-07 0
vn 1 0 0
vn 1 -2.71156068e-07 0
vn 1 -1.80770712e-07 0
vn 1 -2.71156068e-07 0
vn 1 7.70127372e-07 0
vn 0 1.69569546e-07 1
vn 0 1.34222077e-07 1
vn 0 1.3422212e-07 1
vn 0 1.69569546e-07 1
vn 0 1.3422212e-07 1
vn 0 1.34222375e-07 1
vn 0 -1 0
vn 0 -1 0
vn 0 -1 0
vn 0 -1 0
vn 0 -1 0
vn 0 -1 0
vn 0 1 0
vn 0 1 0
vn 0 1 0
vn 0 1 0
vn 0 1 0
vn 0 1 0
vn 1 1.42634724e-06 0
vn 1 -1.80770712e-07 0
vn 1 7.70127372e-07 0
vn 1 1.42634724e-06 0
vn 1 7.70127372e-07 0
vn 1 2.85269448e-06 0
vn 0 0 -1
vn 0 -1.3422212e-07 -1
vn 0 -5.96543401e-08 -1
vn 0 0 -1
vn 0 -5.96543401e-08 -1
vn 0 0 -1
vn 0 -1 0
vn 0 -1 0
vn 0 -1 0
vn 0 -1 0
vn 0 -1 0
vn 0 -1 0
vn 0 2.22590629e-07 1
vn 0 1.63678351e-07 1
vn 0 1.69569546e-07 1
vn 0 2.22590629e-07 1
vn 0 1.69569546e-07 1
vn 0 2.22590529e-07 1
vn 0 1 0
vn 0 1 0
vn 0 1 0
vn 0 1 0
vn 0 1 0
vn 0 1 0
vn -1 0 0
vn -1 0 0
vn -1 0 0
vn -1 0 0
vn -1 0 0
vn -1 0 0
vn 0 1.63678351e-07 1
vn 0 1.34222063e-07 1
vn 0 1.34222077e-07 1
vn 0 1.63678351e-07 1
vn 0 1.34222077e-07 1
vn 0 1.69569546e-07 1
vn 0 -1.78962921e-07 -1
vn 0 -1.78963163e-07 -1
vn 0 -1.78962893e-07 -1
vn 0 -1.78962921e-07 -1
vn 0 -1.78962893e-07 -1
vn 0 -1.3422212e-07 -1
vn -1 1.8522627e-07 0
vn -1 1.13124338e-06 0
vn -1 1.8522627e-07 0
vn -1 1.8522627e-07 0
vn -1 1.8522627e-07 0
vn -1 -7.6079084e-07 0
vn 0 -1.3422212e-07 -1
vn 0 -1.78962864e-07 -1
vn 0 -1.78962907e-07 -1
vn 0 -1.3422212e-07 -1
vn 0 -1.78962907e-07 -1
vn 0 -5.96543401e-08 -1
vn 1 1.03598108e-08 0
vn 1 0 0
vn 1 1.55397153e-08 0
vn 1 1.03598108e-08 0
vn 1 1.55397153e-08 0
vn 1 1.03598108e-08 0
vn 0 1.0737773e-07 1
vn 0 1.78962836e-07 1
vn 0 1.78962921e-07 1
vn 0 1.0737773e-07 1
vn 0 1.78962921e-07 1
vn 0 1.78963163e-07 1
vn 0 -1 3.77748222e-07
vn 0 -1 3.77747909e-07
vn 0 -1 3.77748222e-07
vn 0 -1 3.77748222e-07
vn 0 -1 3.77748222e-07
vn 0 -1 3.77748563e-07
vn 0 1 -4.21247137e-07
vn 0 1 -5.49452977e-07
vn 0 1 -4.12089719e-07
vn 0 1 -4.21247137e-07
vn 0 1 -4.12089719e-07
vn 0 1 -3.11356359e-07
vn 1 0 0
vn 1 1.03598108e-08 0
vn 1 1.03598108e-08 0
vn 1 0 0
vn 1 1.03598108e-08 0
vn 1 0 0
vn 0 0 -1
vn 0 -1.3422212e-07 -1
vn 0 -5.96543401e-08 -1
vn 0 0 -1
vn 0 -5.96543401e-08 -1
vn 0 0 -1
vn 0 -1 3.77748933e-07
vn 0 -1 3.77748933e-07
vn 0 -1 3.77748933e-07
vn 0 -1 3.77748933e-07
vn 0 -1 3.77748933e-07
vn 0 -1 3.77748933e-07
vn 0 0 1
vn 0 1.19308623e-07 1
vn 0 1.0737773e-07 1
vn 0 0 1
vn 0 1.0737773e-07 1
vn 0 0 1
vn 0 1 -3.2967128e-07
vn 0 1 -4.21247137e-07
vn 0 1 -3.11356359e-07
vn 0 1 -3.2967128e-07
vn 0 1 -3.11356359e-07
vn 0 1 -2.19780603e-07
vn -1 0 0
vn -1 0 0
vn -1 0 0
vn -1 0 0
vn -1 0 0
vn -1 0 0
vn 0 1.19308623e-07 1
vn 0 1.7896302e-07 1
vn 0 1.78962836e-07 1
vn 0 1.19308623e-07 1
vn 0 1.78962836e-07 1
vn 0 1.0737773e-07 1
vn 0 -1.78962921e-07 -1
vn 0 -1.78963163e-07 -1
vn 0 -1.78962864e-07 -1
vn 0 -1.78962921e-07 -1
vn 0 -1.78962864e-07 -1
vn 0 -1.3422212e-07 -1
vn -1 1.85226554e-07 0
vn -1 1.13124349e-06 0
vn -1 1.85226554e-07 0
vn -1 1.85226554e-07 0
vn -1 1.85226554e-07 0
vn -1 -7.60790499e-07 0
vn 0 -1.3422212e-07 -1
vn 0 -1.78962864e-07 -1
vn 0 -1.78962907e-07 -1
vn 0 -1.3422212e-07 -1
vn 0 -1.78962907e-07 -1
vn 0 -5.96543401e-08 -1
vn 1 1.03598108e-08 0
vn 1 0 0
vn 1 1.55397153e-08 0
vn 1 1.03598108e-08 0
vn 1 1.55397153e-08 0
vn 1 1.03598108e-08 0
vn 0 1.0737773e-07 1
vn 0 1.78962836e-07 1
vn 0 1.78962921e-07 1
vn 0 1.0737773e-07 1
vn 0 1.78962921e-07 1
vn 0 1.78963163e-07 1
vn 0 -1 0
vn 0 -1 0
vn 0 -1 0
vn 0 -1 0
vn 0 -1 0
vn 0 -1 0
vn 0 1 0
vn 0 1 0
vn 0 1 0
vn 0 1 0
vn 0 1 0
vn 0 1 0
vn 1 0 0
vn 1 1.03598108e-08 0
vn 1 1.03598108e-08 0
vn 1 0 0
vn 1 1.03598108e-08 0
vn 1 0 0
vn 0 0 -1
vn 0 -1.3422212e-07 -1
vn 0 -5.96543401e-08 -1
vn 0 0 -1
vn 0 -5.96543401e-08 -1
vn 0 0 -1
vn 0 -1 0
vn 0 -1 0
vn 0 -1 0
vn 0 -1 0
vn 0 -1 0
vn 0 -1 0
vn 0 0 1
vn 0 1.19308609e-07 1
vn 0 1.0737773e-07 1
vn 0 0 1
vn 0 1.0737773e-07 1
vn 0 0 1
vn 0 1 0
vn 0 1 0
vn 0 1 0
vn 0 1 0
vn 0 1 0
vn 0 1 0
vn -1 0 0
vn -1 0 0
vn -1 0 0
vn -1 0 0
vn -1 0 0
vn -1 0 0
vn 0 1.19308609e-07 1
vn 0 1.78963006e-07 1
vn 0 1.78962836e-07 1
vn 0 1.19308609e-07 1
vn 0 1.78962836e-07 1
vn 0 1.0737773e-07 1
vn 0 -1.78962921e-07 -1
vn 0 -1.78963163e-07 -1
vn 0 -1.78962864e-07 -1
vn 0 -1.78962921e-07 -1
vn 0 -1.78962864e-07 -1
vn 0 -1.3422212e-07 -1
vn -1 -1.95169321e-07 0
vn -1 0 0
vn -1 -1.95169321e-07 0
vn -1 -1.95169321e-07 0
vn -1 -1.95169321e-07 0
vn -1 -3.90338641e-07 0
vn 0 -2.68444239e-07 -1
vn 0 -3.57925813e-07 -1
vn 0 -3.57925842e-07 -1
vn 0 -2.68444239e-07 -1
vn 0 -3.57925842e-07 -1
vn 0 -1.1930868e-07 -1
vn 1 1.03598046e-08 0
vn 1 0 0
vn 1 1.55397064e-08 0
vn 1 1.03598046e-08 0
vn 1 1.55397064e-08 0
vn 1 1.03598046e-08 0
vn 0 1.0737773e-07 1
vn 0 1.78962836e-07 1
vn 0 1.78962921e-07 1
vn 0 1.0737773e-07 1
vn 0 1.78962921e-07 1
vn 0 1.78963163e-07 1
vn 0 -1 3.74314141e-07
vn 0 -1 3.77747909e-07
vn 0 -1 3.74314141e-07
vn 0 -1 3.74314141e-07
vn 0 -1 3.74314141e-07
vn 0 -1 3.708804e-07
vn 0 1 -4.21246341e-07
vn 0 1 -5.4945059e-07
vn 0 1 -4.12088525e-07
vn 0 1 -4.21246341e-07
vn 0 1 -4.12088525e-07
vn 0 1 -3.84616555e-07
vn 1 0 0
vn 1 1.03598046e-08 0
vn 1 1.03598046e-08 0
vn 1 0 0
vn 1 1.03598046e-08 0
vn 1 0 0
vn 0 0 -1
vn 0 -2.68444239e-07 -1
vn 0 -1.1930868e-07 -1
vn 0 0 -1
vn 0 -1.1930868e-07 -1
vn 0 0 -1
vn 0 -1 3.77748933e-07
vn 0 -1 3.77748933e-07
vn 0 -1 3.77748933e-07
vn 0 -1 3.77748933e-07
vn 0 -1 3.77748933e-07
vn 0 -1 3.77748933e-07
vn 0 0 1
vn 0 1.19308609e-07 1
vn 0 1.0737773e-07 1
vn 0 0 1
vn 0 1.0737773e-07 1
vn 0 0 1
vn 0 1 -4.39561575e-07
vn 0 1 -4.21246341e-07
vn 0 1 -3.84616555e-07
vn 0 1 -4.39561575e-07
vn 0 1 -3.84616555e-07
vn 0 1 -4.39561205e-07
vn -1 0 0
vn -1 0 0
vn -1 0 0
vn -1 0 0
vn -1 0 0
vn -1 0 0
vn 0 1.19308609e-07 1
vn 0 1.78963006e-07 1
vn 0 1.78962836e-07 1
vn 0 1.19308609e-07 1
vn 0 1.78962836e-07 1
vn 0 1.0737773e-07 1
vn 0 -3.57925842e-07 -1
vn 0 -3.5792641e-07 -1
vn 0 -3.57925813e-07 -1
vn 0 -3.57925842e-07 -1
vn 0 -3.57925813e-07 -1
vn 0 -2.68444239e-07 -1
vn -1 -1.95169832e-07 0
vn -1 -1.13124418e-06 0
vn -1 -1.95169832e-07 0
vn -1 -1.95169832e-07 0
vn -1 -1.95169832e-07 0
vn -1 7.40904397e-07 0
vn 0 -2.68444239e-07 -1
vn 0 -3.57925813e-07 -1
vn 0 -3.57925842e-07 -1
vn 0 -2.68444239e-07 -1
vn 0 -3.57925842e-07 -1
vn 0 -1.1930868e-07 -1
vn 1 2.07196305e-08 0
vn 1 0 0
vn 1 3.10794448e-08 0
vn 1 2.07196305e-08 0
vn 1 3.10794448e-08 0
vn 1 2.07196305e-08 0
vn 0 2.1475546e-07 1
vn 0 3.57925671e-07 1
vn 0 3.57925842e-07 1
vn 0 2.1475546e-07 1
vn 0 3.57925842e-07 1
vn 0 3.57926325e-07 1
vn 0 -1 0
vn 0 -1 0
vn 0 -1 0
vn 0 -1 0
vn 0 -1 0
vn 0 -1 0
vn 0 1 0
vn 0 1 0
vn 0 1 0
vn 0 1 0
vn 0 1 0
vn 0 1 0
vn 1 0 0
vn 1 2.07196305e-08 0
vn 1 2.07196305e-08 0
vn 1 0 0
vn 1 2.07196305e-08 0
vn 1 0 0
vn 0 0 -1
vn 0 -2.68444239e-07 -1
vn 0 -1.1930868e-07 -1
vn 0 0 -1
vn 0 -1.1930868e-07 -1
vn 0 0 -1
vn 0 -1 0
vn 0 -1 0
vn 0 -1 0
vn 0 -1 0
vn 0 -1 0
vn 0 -1 0
vn 0 0 1
vn 0 2.38617247e-07 1
vn 0 2.1475546e-07 1
vn 0 0 1
vn 0 2.1475546e-07 1
vn 0 0 1
vn 0 1 0
vn 0 1 0
vn 0 1 0
vn 0 1 0
vn 0 1 0
vn 0 1 0
vn -1 0 0
vn -1 0 0
vn -1 0 0
vn -1 0 0
vn -1 0 0
vn -1 0 0
vn 0 2.38617247e-07 1
vn 0 3.57926041e-07 1
vn 0 3.57925671e-07 1
vn 0 2.38617247e-07 1
vn 0 3.57925671e-07 1
vn 0 2.1475546e-07 1
vn 0 -3.57925842e-07 -1
vn 0 -3.5792641e-07 -1
vn 0 -3.57925813e-07 -1
vn 0 -3.57925842e-07 -1
vn 0 -3.57925813e-07 -1
vn 0 -2.68444239e-07 -1
vn -1 0 0
vn -1 0 0
vn -1 0 0
vn -1 0 0
vn -1 0 0
vn -1 0 0
vn 0 -1 0
vn 0 -1 0
vn 0 -1 0
vn 0 -1 0
vn 0 -1 0
vn 0 -1 0
vn 1 0 0
vn 1 5.15955279e-08 0
vn 1 1.43751862e-07 0
vn 1 0 0
vn 1 1.43751862e-07 0
vn 1 0 0
vn 0 1 0
vn 0 1 0
vn 0 1 0
vn 0 1 0
vn 0 1 0
vn 0 1 0
vn 0 -1 0
vn 0 -1 0
vn 0 -1 0
vn 0 -1 0
vn 0 -1 0
vn 0 -1 0
vn 1 5.15955279e-08 0
vn 1 0 0
vn 1 2.87503724e-07 0
vn 1 5.15955279e-08 0
vn 1 2.87503724e-07 0
vn 1 1.43751862e-07 0
vn -1 -1.22101156e-07 0
vn -1 0 0
vn -1 -3.16150476e-07 0
vn -1 -1.22101156e-07 0
vn -1 -3.16150476e-07 0
vn -1 -1.70654744e-07 0
vn -1 0 0
vn -1 1.48777644e-07 0
vn -1 0 0
vn -1 0 0
vn -1 0 0
vn -1 0 0
vn 0 1 0
vn 0 1 0
vn 0 1 0
vn 0 1 0
vn 0 1 0
vn 0 1 0
vn 0 -1 0
vn 0 -1 0
vn 0 -1 0
vn 0 -1 0
vn 0 -1 0
vn 0 -1 0
vn 1 0 0
vn 1 1.35933815e-08 0
vn 1 2.85721455e-08 0
vn 1 0 0
vn 1 2.85721455e-08 0
vn 1 0 0
vn 0 1 0
vn 0 1 0
vn 0 1 0
vn 0 1 0
vn 0 1 0
vn 0 1 0
vn 0 -1 0
vn 0 -1 0
vn 0 -1 0
vn 0 -1 0
vn 0 -1 0
vn 0 -1 0
vn 1 1.35933815e-08 0
vn 1 0 0
vn 1 1.35933815e-08 0
vn 1 1.35933815e-08 0
vn 1 1.35933815e-08 0
vn 1 2.85721455e-08 0
vn -1 1.84215679e-07 0
vn -1 1.18888966e-06 0
vn -1 1.22810462e-07 0
vn -1 1.84215679e-07 0
vn -1 1.22810462e-07 0
vn -1 -3.99355002e-07 0
vn 0 1 0
vn 0 1 0
vn 0 1 0
vn 0 1 0
vn 0 1 0
vn 0 1 0
vn 0 -1 0
vn 0 -1 0
vn 0 -1 0
vn 0 -1 0
vn 0 -1 0
vn 0 -1 0
vn 0 -1.34221651e-07 -1
vn 0 -1.34223825e-07 -1
vn 0 -1.34221835e-07 -1
vn 0 -1.34221651e-07 -1
vn 0 -1.34221835e-07 -1
vn 0 -1.34221281e-07 -1
vn 0 -1 0
vn 0 -1 0
vn 0 -1 0
vn 0 -1 0
vn 0 -1 0
vn 0 -1 0
vn 0 -1.78962921e-07 -1
vn 0 -1.78962935e-07 -1
vn 0 -1.78962921e-07 -1
vn 0 -1.78962921e-07 -1
vn 0 -1.78962921e-07 -1
vn 0 -1.78962921e-07 -1
vn 0 -1 3.68081032e-07
vn 0 -1 3.67972916e-07
vn 0 -1 3.71255737e-07
vn 0 -1 3.68081032e-07
vn 0 -1 3.71255737e-07
vn 0 -1 3.87453696e-07
vn 0 -1 0
vn 0 -1 0
vn 0 -1 0
vn 0 -1 0
vn 0 -1 0
vn 0 -1 0
vn 0 -1.78962907e-07 -1
vn 0 -1.78962893e-07 -1
vn 0 -1.78962907e-07 -1
vn 0 -1.78962907e-07 -1
vn 0 -1.78962907e-07 -1
vn 0 -1.78962921e-07 -1
vn 0 -1 0
vn 0 -1 0
vn 0 -1 0
vn 0 -1 0
vn 0 -1 0
vn 0 -1 0
vn 0 1 0
vn 0 1 0
vn 0 1 0
vn 0 1 0
vn 0 1 0
vn 0 1 0
vn 0 0 1
vn 0 0 1
vn 0 0 1
vn 0 0 1
vn 0 0 1
vn 0 0 1
vn 0 -1 0
vn 0 -1 0
vn 0 -1 0
vn 0 -1 0
vn 0 -1 0
vn 0 -1 0
vn 0 1 0
vn 0 1 0
vn 0 1 0
vn 0 1 0
vn 0 1 0
vn 0 1 0
vn 0 0 1
vn 0 0 1
vn 0 0 1
vn 0 0 1
vn 0 0 1
vn 0 0 1
vn 0 1 0
vn 0 1 0
vn 0 1 0
vn 0 1 0
vn 0 1 0
vn 0 1 0
vn 0 0 1
vn 0 0 1
vn 0 0 1
vn 0 0 1
vn 0 0 1
vn 0 0 1
vn 0 0 -1
vn 0 0 -1
vn 0 -7.15851769e-08 -1
vn 0 0 -1
vn 0 -7.15851769e-08 -1
vn 0 0 -1
vn 0 -1 0
vn 0 -1 0
vn 0 -1 0
vn 0 -1 0
vn 0 -1 0
vn 0 -1 0
vn 0 1.78962921e-07 1
vn 0 1.78962921e-07 1
vn 0 1.78962921e-07 1
vn 0 1.78962921e-07 1
vn 0 1.78962921e-07 1
vn 0 1.78962921e-07 1
vn 0 1 -3.8017032e-07
vn 0 1 -5.06893741e-07
vn 0 1 -3.8017032e-07
vn 0 1 -3.8017032e-07
vn 0 1 -3.8017032e-07
vn 0 1 -2.53446871e-07
vn 0 0 1
vn 0 0 1
vn 0 0 1
vn 0 0 1
vn 0 0 1
vn 0 0 1
vn 0 0 -1
vn 0 0 -1
vn 0 0 -1
vn 0 0 -1
vn 0 0 -1
vn 0 0 -1
vn 0 -1 3.77609467e-07
vn 0 -1 3.77996543e-07
vn 0 -1 3.77143067e-07
vn 0 -1 3.77609467e-07
vn 0 -1 3.77143067e-07
vn 0 -1 3.77609808e-07
vn 0 -1 0
vn 0 -1 0
vn 0 -1 0
vn 0 -1 0
vn 0 -1 0
vn 0 -1 0
vn 0 1 0
vn 0 1 0
vn 0 1 0
vn 0 1 0
vn 0 1 0
vn 0 1 0
vn 0 1.19308595e-07 1
vn 0 1.78964754e-07 1
vn 0 1.78962893e-07 1
vn 0 1.19308595e-07 1
vn 0 1.78962893e-07 1
vn 0 4.47402613e-08 1
vn 0 1 0
vn 0 1 0
vn 0 1 0
vn 0 1 0
vn 0 1 0
vn 0 1 0
vn 0 0 1
vn 0 1.19308595e-07 1
vn 0 4.47402613e-08 1
vn 0 0 1
vn 0 4.47402613e-08 1
vn 0 0 1
vn 0 -2.22590643e-07 -1
vn 0 -1.56314286e-07 -1
vn 0 -1.78405884e-07 -1
vn 0 -2.22590643e-07 -1
vn 0 -1.78405884e-07 -1
vn 0 -2.22590629e-07 -1
vn 0 -1 0
vn 0 -1 0
vn 0 -1 0
vn 0 -1 0
vn 0 -1 0
vn 0 -1 0
vn 0 -1.56314286e-07 -1
vn 0 -1.34222176e-07 -1
vn 0 -1.34221409e-07 -1
vn 0 -1.56314286e-07 -1
vn 0 -1.34221409e-07 -1
vn 0 -1.78405884e-07 -1
vn -1 5.40599376e-06 0
vn -1 5.40599376e-06 0
vn -1 0 0
vn -1 5.40599376e-06 0
vn -1 0 0
vn -1 0 0
vn 0 0 -1
vn 0 0 -1
vn 0 0 -1
vn 0 0 -1
vn 0 0 -1
vn 0 0 -1
vn 1 0 0
vn 1 7.20030539e-06 0
vn 1 0 0
vn 1 0 0
vn 1 0 0
vn 1 0 0
vn 0 0 1
vn 0 0 1
vn 0 0 1
vn 0 0 1
vn 0 0 1
vn 0 0 1
vn 0 -1 1.88570581e-07
vn 0 -1 1.8857051e-07
vn 0 -1 1.88570581e-07
vn 0 -1 1.88570581e-07
vn 0 -1 1.88570581e-07
vn 0 -1 1.88570652e-07
vn 4.65690171e-08 1 -1.78548859e-07
vn -2.35147354e-07 1 -1.2916675e-07
vn 0 1 -1.88570581e-07
vn 4.65690171e-08 1 -1.78548859e-07
vn 0 1 -1.88570581e-07
vn 0 1 -1.8857051e-07
vn 2.57458934e-14 1 -1.34982656e-07
vn 0 1 -1.61979216e-07
vn 2.57458934e-14 1 -1.34982656e-07
vn 2.57458934e-14 1 -1.34982656e-07
vn 2.57458934e-14 1 -1.34982656e-07
vn 5.14917868e-14 1 -1.07986104e-07
vn 2.57459103e-14 -1 1.34982699e-07
vn 0 -1 1.61979216e-07
vn 2.57459103e-14 -1 1.34982699e-07
vn 2.57459103e-14 -1 1.34982699e-07
vn 2.57459103e-14 -1 1.34982699e-07
vn 5.14918207e-14 -1 1.07986175e-07
vn 1 -1.90642368e-06 0
vn 1 0 0
vn 1 5.92935612e-06 0
vn 1 -1.90642368e-06 0
vn 1 5.92935612e-06 0
vn 1 5.92935612e-06 0
vn -1 5.40599376e-06 0
vn -1 0 0
vn -1 5.40599376e-06 0
vn -1 5.40599376e-06 0
vn -1 5.40599376e-06 0
vn -1 5.40599376e-06 0
vn -1 0 0
vn -1 0 0
vn -1 0 0
vn -1 0 0
vn -1 0 0
vn -1 5.40599376e-06 0
vn -1 0 0
vn -1 0 0
vn -1 0 0
vn -1 0 0
vn -1 0 0
vn -1 0 0
vn 1 5.92935612e-06 0
vn 1 5.92935612e-06 0
vn 1 7.20030539e-06 0
vn 1 5.92935612e-06 0
vn 1 7.20030539e-06 0
vn 1 0 0
vn 9.60033475e-08 1 -1.86582554e-07
vn 1.22859944e-06 1 -2.31651356e-07
vn 1.44005014e-07 1 -1.98759153e-07
vn 9.60033475e-08 1 -1.86582554e-07
vn 1.44005014e-07 1 -1.98759153e-07
vn -2.35147354e-07 1 -1.2916675e-07
vn 0 1 -3.15363366e-07
vn 0 1 5.20373646e-07
vn 0 1 -3.15363366e-07
vn 0 1 -3.15363366e-07
vn 0 1 -3.15363366e-07
vn 0 1 -1.15110049e-06
vn 1.16422541e-07 1 -2.5780156e-07
vn 2.34958264e-07 1 -1.36943243e-07
vn 4.65690171e-08 1 -1.78548859e-07
vn 1.16422541e-07 1 -2.5780156e-07
vn 4.65690171e-08 1 -1.78548859e-07
vn -4.72029683e-07 1 -2.67002747e-07
vn 2.34958264e-07 1 -1.36943243e-07
vn 9.60033475e-08 1 -1.86582554e-07
vn -2.35147354e-07 1 -1.2916675e-07
vn 2.34958264e-07 1 -1.36943243e-07
vn -2.35147354e-07 1 -1.2916675e-07
vn 4.65690171e-08 1 -1.78548859e-07
vn 0 1 -2.65994231e-07
vn 0 1 -2.65994231e-07
vn 0 1 -2.65994231e-07
vn 0 1 -2.65994231e-07
vn 0 1 -2.65994231e-07
vn 0 1 -2.65994231e-07
vn 1 0 0
vn 1 0 0
vn 1 0 0
vn 1 0 0
vn 1 0 0
vn 1 0 0
vn 0 0 -1
vn 0 0 -1
vn 0 0 -1
vn 0 0 -1
vn 0 0 -1
vn 0 0 -1
vn -2.44011233e-07 0 1
vn -2.44011233e-07 0 1
vn -2.44011233e-07 0 1
vn -2.44011233e-07 0 1
vn -2.44011233e-07 0 1
vn -2.44011233e-07 0 1
vn 0 -1 1.65742108e-07
vn 0 -1 1.65985767e-07
vn 0 -1 1.65742108e-07
vn 0 -1 1.65742108e-07
vn 0 -1 1.65742108e-07
vn 0 -1 1.65498435e-07
vn 0 0 -1
vn 0 0 -1
vn 0 0 -1
vn 0 0 -1
vn 0 0 -1
vn 0 0 -1
vn 0 1 -1.63217635e-07
vn 0 1 -1.6259439e-07
vn 0 1 -1.63217635e-07
vn 0 1 -1.63217635e-07
vn 0 1 -1.63217635e-07
vn 0 1 -1.6384088e-07
vn 0 0 1
vn 0 0 1
vn 0 0 1
vn 0 0 1
vn 0 0 1
vn 0 0 1
vn 1 0 1.45054145e-07
vn 1 0 1.2433199e-07
vn 1 0 1.45054145e-07
vn 1 0 1.45054145e-07
vn 1 0 1.45054145e-07
vn 1 0 1.65776285e-07
vn -1 2.41406156e-06 -1.45054145e-07
vn -1 0 -1.65776001e-07
vn -1 2.41406156e-06 -1.45054145e-07
vn -1 2.41406156e-06 -1.45054145e-07
vn -1 2.41406156e-06 -1.45054145e-07
vn -1 4.82812311e-06 -1.24332288e-07
vn -1 0 0
vn -1 0 0
vn -1 0 0
vn -1 0 0
vn -1 0 0
vn -1 0 0
vn 0 0 -1
vn 0 0 -1
vn 0 0 -1
vn 0 0 -1
vn 0 0 -1
vn 0 0 -1
vn 1 0 0
vn 1 0 0
vn 1 0 0
vn 1 0 0
vn 1 0 0
vn 1 0 0
vn 0 0 1
vn 0 0 1
vn 0 0 1
vn 0 0 1
vn 0 0 1
vn 0 0 1
vn 0 -1 1.54829564e-07
vn 0 -1 1.54829692e-07
vn 0 -1 1.54829564e-07
vn 0 -1 1.54829564e-07
vn 0 -1 1.54829564e-07
vn 0 -1 1.54829436e-07
vn 0 1 -1.29024613e-07
vn 0 1 -1.54829436e-07
vn 0 1 -1.29024613e-07
vn 0 1 -1.29024613e-07
vn 0 1 -1.29024613e-07
vn 0 1 -1.03219797e-07
g group1
f 1/1/1 2/2/2 3/3/3
f 1/1/4 3/3/5 4/4/6
f 4/5/7 3/6/8 5/7/9
f 4/5/10 5/7/11 6/8/12
f 6/9/13 5/10/14 7/11/15
f 6/9/16 7/11/17 8/12/18
f 8/13/19 7/14/20 2/15/21
f 8/13/22 2/15/23 1/16/24
f 4/17/25 6/18/26 8/19/27
f 4/17/28 8/19/29 1/20/30
f 5/21/31 3/22/32 2/23/33
f 5/21/34 2/23/35 7/24/36
f 9/25/37 10/26/38 11/27/39
f 9/25/40 11/27/41 12/28/42
f 12/29/43 11/30/44 13/31/45
f 12/29/46 13/31/47 14/32/48
f 14/33/49 13/34/50 15/35/51
f 14/33/52 15/35/53 16/36/54
f 16/37/55 15/38/56 10/39/57
f 16/37/58 10/39/59 9/40/60
f 12/41/61 14/42/62 16/43/63
f 12/41/64 16/43/65 9/44/66
f 13/45/67 11/46/68 10/47/69
f 13/45/70 10/47/71 15/48/72
f 17/49/73 18/50/74 19/51/75
f 17/49/76 19/51/77 20/52/78
f 20/53/79 19/54/80 21/55/81
f 20/53/82 21/55/83 22/56/84
f 22/57/85 21/58/86 23/59/87
f 22/57/88 23/59/89 24/60/90
f 24/61/91 23/62/92 18/63/93
f 24/61/94 18/63/95 17/64/96
f 20/65/97 22/66/98 24/67/99
f 20/65/100 24/67/101 17/68/102
f 21/69/103 19/70/104 18/71/105
f 21/69/106 18/71/107 23/72/108
f 25/73/109 26/74/110 27/75/111
f 25/73/112 27/75/113 28/76/114
f 28/77/115 27/78/116 29/79/117
f 28/77/118 29/79/119 30/80/120
f 30/81/121 29/82/122 31/83/123
f 30/81/124 31/83/125 32/84/126
f 32/85/127 31/86/128 26/87/129
f 32/85/130 26/87/131 25/88/132
f 28/89/133 30/90/134 32/91/135
f 28/89/136 32/91/137 25/92/138
f 29/93/139 27/94/140 26/95/141
f 29/93/142 26/95/143 31/96/144
f 33/97/145 34/98/146 35/99/147
f 33/97/148 35/99/149 36/100/150
f 36/101/151 35/102/152 37/103/153
f 36/101/154 37/103/155 38/104/156
f 38/105/157 37/106/158 39/107/159
f 38/105/160 39/107/161 40/108/162
f 40/109/163 39/110/164 34/111/165
f 40/109/166 34/111/167 33/112/168
f 36/113/169 38/114/170 40/115/171
f 36/113/172 40/115/173 33/116/174
f 37/117/175 35/118/176 34/119/177
f 37/117/178 34/119/179 39/120/180
f 41/121/181 42/122/182 43/123/183
f 41/121/184 43/123/185 44/124/186
f 44/125/187 43/126/188 45/127/189
f 44/125/190 45/127/191 46/128/192
f 46/129/193 45/130/194 47/131/195
f 46/129/196 47/131/197 48/132/198
f 48/133/199 47/134/200 42/135/201
f 48/133/202 42/135/203 41/136/204
f 44/137/205 46/138/206 48/139/207
f 44/137/208 48/139/209 41/140/210
f 45/141/211 43/142/212 42/143/213
f 45/141/214 42/143/215 47/144/216
f 49/145/217 50/146/218 51/147/219
f 49/145/220 51/147/221 52/148/222
f 52/149/223 51/150/224 53/151/225
f 52/149/226 53/151/227 54/152/228
f 54/153/229 53/154/230 55/155/231
f 54/153/232 55/155/233 56/156/234
f 56/157/235 55/158/236 50/159/237
f 56/157/238 50/159/239 49/160/240
f 52/161/241 54/162/242 56/163/243
f 52/161/244 56/163/245 49/164/246
f 53/165/247 51/166/248 50/167/249
f 53/165/250 50/167/251 55/168/252
f 57/169/253 58/170/254 59/171/255
f 57/169/256 59/171/257 60/172/258
f 60/173/259 59/174/260 61/175/261
f 60/173/262 61/175/263 62/176/264
f 62/177/265 61/178/266 63/179/267
f 62/177/268 63/179/269 64/180/270
f 64/181/271 63/182/272 58/183/273
f 64/181/274 58/183/275 57/184/276
f 60/185/277 62/186/278 64/187/279
f 60/185/280 64/187/281 57/188/282
f 61/189/283 59/190/284 58/191/285
f 61/189/286 58/191/287 63/192/288
f 65/193/289 66/194/290 67/195/291
f 65/193/292 67/195/293 68/196/294
f 68/197/295 67/198/296 69/199/297
f 68/197/298 69/199/299 70/200/300
f 70/201/301 69/202/302 71/203/303
f 70/201/304 71/203/305 72/204/306
f 72/205/307 71/206/308 66/207/309
f 72/205/310 66/207/311 65/208/312
f 68/209/313 70/210/314 72/211/315
f 68/209/316 72/211/317 65/212/318
f 69/213/319 67/214/320 66/215/321
f 69/213/322 66/215/323 71/216/324
f 73/217/325 74/218/326 75/219/327
f 73/217/328 75/219/329 76/220/330
f 76/221/331 75/222/332 77/223/333
f 76/221/334 77/223/335 78/224/336
f 78/225/337 77/226/338 79/227/339
f 78/225/340 79/227/341 80/228/342
f 80/229/343 79/230/344 74/231/345
f 80/229/346 74/231/347 73/232/348
f 76/233/349 78/234/350 80/235/351
f 76/233/352 80/235/353 73/236/354
f 77/237/355 75/238/356 74/239/357
f 77/237/358 74/239/359 79/240/360
f 81/241/361 82/242/362 83/243/363
f 81/241/364 83/243/365 84/244/366
f 85/245/367 86/246/368 87/247/369
f 85/245/370 87/247/371 88/248/372
f 88/249/373 87/250/374 89/251/375
f 88/249/376 89/251/377 90/252/378
f 91/253/379 92/254/380 82/255/381
f 91/253/382 82/255/383 81/256/384
f 93/257/385 94/258/386 95/259/387
f 93/257/388 95/259/389 96/260/390
f 86/261/391 83/262/392 82/263/393
f 86/261/394 82/263/395 92/264/396
f 94/265/397 88/249/398 90/252/399
f 94/265/400 90/252/401 95/266/402
f 93/267/403 85/245/404 88/248/405
f 93/267/406 88/248/407 94/268/408
f 91/269/409 81/270/410 84/271/411
f 91/269/412 84/271/413 85/272/414
f 95/273/415 90/274/416 91/253/417
f 95/273/418 91/253/419 96/275/420
f 87/276/421 86/261/422 92/264/423
f 87/276/424 92/264/425 89/277/426
f 91/278/427 85/279/428 93/280/429
f 91/278/430 93/280/431 96/281/432
f 90/274/433 89/282/434 92/254/435
f 90/274/436 92/254/437 91/253/438
f 84/283/439 83/284/440 86/246/441
f 84/283/442 86/246/443 85/245/444
f 97/285/445 98/286/446 99/287/447
f 97/285/448 99/287/449 100/288/450
f 101/289/451 102/290/452 103/291/453
f 101/289/454 103/291/455 104/292/456
f 105/293/457 106/294/458 107/295/459
f 105/293/460 107/295/461 108/296/462
f 109/297/463 110/298/464 111/299/465
f 109/297/466 111/299/467 112/300/468
f 113/301/469 114/302/470 115/303/471
f 113/301/472 115/303/473 116/304/474
f 117/305/475 98/306/476 111/307/477
f 117/305/478 111/307/479 110/308/480
f 114/309/481 105/293/482 108/296/483
f 114/309/484 108/296/485 115/310/486
f 118/311/487 101/289/488 104/292/489
f 118/311/490 104/292/491 119/312/492
f 120/313/493 97/314/494 100/315/495
f 120/313/496 100/315/497 121/316/498
f 116/317/499 122/318/500 123/319/501
f 116/317/502 123/319/503 124/320/504
f 125/321/505 126/322/506 127/323/507
f 125/321/508 127/323/509 128/324/510
f 129/325/511 130/326/512 131/327/513
f 129/325/514 131/327/515 132/328/516
f 122/318/517 128/329/518 127/330/519
f 122/318/520 127/330/521 123/319/522
f 133/331/523 134/332/524 135/333/525
f 133/331/526 135/333/527 136/334/528
f 137/335/529 138/336/530 139/337/531
f 137/335/532 139/337/533 140/338/534
f 140/339/535 139/340/536 141/341/537
f 140/339/538 141/341/539 142/342/540
f 143/343/541 144/344/542 134/345/543
f 143/343/544 134/345/545 133/346/546
f 145/347/547 146/348/548 147/349/549
f 145/347/550 147/349/551 148/350/552
f 149/351/553 135/352/554 134/353/555
f 149/351/556 134/353/557 144/354/558
f 146/355/559 140/339/560 142/342/561
f 146/355/562 142/342/563 147/356/564
f 145/357/565 137/335/566 140/338/567
f 145/357/568 140/338/569 146/358/570
f 143/359/571 133/360/572 136/361/573
f 143/359/574 136/361/575 150/362/576
f 148/363/577 151/364/578 152/365/579
f 148/363/580 152/365/581 153/366/582
f 152/367/583 154/368/584 155/369/585
f 152/367/586 155/369/587 153/370/588
f 156/371/589 157/372/590 158/373/591
f 156/371/592 158/373/593 159/374/594
f 160/375/595 161/376/596 162/377/597
f 160/375/598 162/377/599 163/378/600
f 164/379/601 165/380/602 166/381/603
f 164/379/604 166/381/605 167/382/606
f 168/383/607 169/384/608 170/385/609
f 168/383/610 170/385/611 171/386/612
f 172/387/613 173/388/614 174/389/615
f 172/387/616 174/389/617 175/390/618
f 176/391/619 157/392/620 170/393/621
f 176/391/622 170/393/623 169/394/624
f 173/395/625 164/379/626 167/382/627
f 173/395/628 167/382/629 174/396/630
f 177/397/631 160/375/632 163/378/633
f 177/397/634 163/378/635 178/398/636
f 179/399/637 156/400/638 159/401/639
f 179/399/640 159/401/641 180/402/642
f 175/403/643 181/404/644 182/405/645
f 175/403/646 182/405/647 183/406/648
f 184/407/649 185/408/650 186/409/651
f 184/407/652 186/409/653 187/410/654
f 180/411/655 188/412/656 189/413/657
f 180/411/658 189/413/659 185/414/660
f 190/415/661 191/416/662 192/417/663
f 190/415/664 192/417/665 193/418/666
f 194/419/667 195/420/668 196/421/669
f 194/419/670 196/421/671 197/422/672
f 197/423/673 196/424/674 198/425/675
f 197/423/676 198/425/677 199/426/678
f 200/427/679 201/428/680 191/429/681
f 200/427/682 191/429/683 190/430/684
f 202/431/685 203/432/686 204/433/687
f 202/431/688 204/433/689 205/434/690
f 195/435/691 192/436/692 191/437/693
f 195/435/694 191/437/695 201/438/696
f 203/439/697 197/423/698 199/426/699
f 203/439/700 199/426/701 204/440/702
f 202/441/703 194/419/704 197/422/705
f 202/441/706 197/422/707 203/442/708
f 200/443/709 190/444/710 193/445/711
f 200/443/712 193/445/713 194/446/714
f 204/447/715 199/448/716 200/427/717
f 204/447/718 200/427/719 205/449/720
f 196/450/721 195/435/722 201/438/723
f 196/450/724 201/438/725 198/451/726
f 200/452/727 194/453/728 202/454/729
f 200/452/730 202/454/731 205/455/732
f 199/448/733 198/456/734 201/428/735
f 199/448/736 201/428/737 200/427/738
f 193/457/739 192/458/740 195/420/741
f 193/457/742 195/420/743 194/419/744
f 206/459/745 207/460/746 208/461/747
f 206/459/748 208/461/749 209/462/750
f 210/463/751 211/464/752 212/465/753
f 210/463/754 212/465/755 213/466/756
f 213/467/757 212/468/758 214/469/759
f 213/467/760 214/469/761 215/470/762
f 216/471/763 217/472/764 207/473/765
f 216/471/766 207/473/767 206/474/768
f 218/475/769 219/476/770 220/477/771
f 218/475/772 220/477/773 221/478/774
f 211/479/775 208/480/776 207/481/777
f 211/479/778 207/481/779 217/482/780
f 219/483/781 213/467/782 215/470/783
f 219/483/784 215/470/785 220/484/786
f 218/485/787 210/463/788 213/466/789
f 218/485/790 213/466/791 219/486/792
f 216/487/793 206/488/794 209/489/795
f 216/487/796 209/489/797 210/490/798
f 220/491/799 215/492/800 216/471/801
f 220/491/802 216/471/803 221/493/804
f 212/494/805 211/479/806 217/482/807
f 212/494/808 217/482/809 214/495/810
f 216/496/811 210/497/812 218/498/813
f 216/496/814 218/498/815 221/499/816
f 215/492/817 214/500/818 217/472/819
f 215/492/820 217/472/821 216/471/822
f 209/501/823 208/502/824 211/464/825
f 209/501/826 211/464/827 210/463/828
f 222/503/829 223/504/830 224/505/831
f 222/503/832 224/505/833 225/506/834
f 226/507/835 227/508/836 228/509/837
f 226/507/838 228/509/839 229/510/840
f 229/511/841 228/512/842 230/513/843
f 229/511/844 230/513/845 231/514/846
f 232/515/847 233/516/848 223/517/849
f 232/515/850 223/517/851 222/518/852
f 234/519/853 235/520/854 236/521/855
f 234/519/856 236/521/857 237/522/858
f 227/523/859 224/524/860 223/525/861
f 227/523/862 223/525/863 233/526/864
f 235/527/865 229/511/866 231/514/867
f 235/527/868 231/514/869 236/528/870
f 234/529/871 226/507/872 229/510/873
f 234/529/874 229/510/875 235/530/876
f 232/531/877 222/532/878 225/533/879
f 232/531/880 225/533/881 226/534/882
f 236/535/883 231/536/884 232/515/885
f 236/535/886 232/515/887 237/537/888
f 228/538/889 227/523/890 233/526/891
f 228/538/892 233/526/893 230/539/894
f 232/540/895 226/541/896 234/542/897
f 232/540/898 234/542/899 237/543/900
f 231/536/901 230/544/902 233/516/903
f 231/536/904 233/516/905 232/515/906
f 225/545/907 224/546/908 227/508/909
f 225/545/910 227/508/911 226/507/912
f 238/547/913 239/548/914 240/549/915
f 238/547/916 240/549/917 241/550/918
f 242/551/919 243/552/920 244/553/921
f 242/551/922 244/553/923 245/554/924
f 245/555/925 244/556/926 246/557/927
f 245/555/928 246/557/929 247/558/930
f 248/559/931 249/560/932 239/561/933
f 248/559/934 239/561/935 238/562/936
f 250/563/937 251/564/938 252/565/939
f 250/563/940 252/565/941 253/566/942
f 243/567/943 240/568/944 239/569/945
f 243/567/946 239/569/947 249/570/948
f 251/571/949 245/555/950 247/558/951
f 251/571/952 247/558/953 252/572/954
f 250/573/955 242/551/956 245/554/957
f 250/573/958 245/554/959 251/574/960
f 248/575/961 238/576/962 241/577/963
f 248/575/964 241/577/965 242/578/966
f 252/579/967 247/580/968 248/559/969
f 252/579/970 248/559/971 253/581/972
f 244/582/973 243/567/974 249/570/975
f 244/582/976 249/570/977 246/583/978
f 248/584/979 242/585/980 250/586/981
f 248/584/982 250/586/983 253/587/984
f 247/580/985 246/588/986 249/560/987
f 247/580/988 249/560/989 248/559/990
f 241/589/991 240/590/992 243/552/993
f 241/589/994 243/552/995 242/551/996
f 254/591/997 255/592/998 256/593/999
f 254/591/1000 256/593/1001 257/594/1002
f 261/599/1009 260/600/1010 262/601/1011
f 261/599/1012 262/601/1013 263/602/1014
f 264/603/1015 265/604/1016 255/605/1017
f 264/603/1018 255/605/1019 254/606/1020
f 266/607/1021 267/608/1022 268/609/1023
f 266/607/1024 268/609/1025 269/610/1026
f 259/611/1027 256/612/1028 255/613/1029
f 259/611/1030 255/613/1031 265/614/1032
f 267/615/1033 261/599/1034 263/602/1035
f 267/615/1036 263/602/1037 268/616/1038
f 264/619/1045 254/620/1046 257/621/1047
f 264/619/1048 257/621/1049 258/622/1050
f 268/623/1051 263/624/1052 264/603/1053
f 268/623/1054 264/603/1055 269/625/1056
f 260/626/1057 259/611/1058 265/614/1059
f 260/626/1060 265/614/1061 262/627/1062
f 264/628/1063 258/629/1064 266/630/1065
f 264/628/1066 266/630/1067 269/631/1068
f 263/624/1069 262/632/1070 265/604/1071
f 263/624/1072 265/604/1073 264/603/1074
f 123/635/1081 129/325/1082 132/328/1083
f 123/635/1084 132/328/1085 124/636/1086
f 109/637/1087 112/638/1088 97/314/1089
f 109/637/1090 97/314/1091 120/313/1092
f 119/639/1093 104/640/1094 105/293/1095
f 119/639/1096 105/293/1097 114/309/1098
f 270/641/1099 99/642/1100 98/306/1101
f 270/641/1102 98/306/1103 117/305/1104
f 118/643/1105 119/644/1106 114/302/1107
f 118/643/1108 114/302/1109 113/301/1110
f 104/640/1111 103/645/1112 106/294/1113
f 104/640/1114 106/294/1115 105/293/1116
f 112/646/1117 111/647/1118 98/286/1119
f 112/646/1120 98/286/1121 97/285/1122
f 182/648/1123 184/407/1124 187/410/1125
f 182/648/1126 187/410/1127 183/649/1128
f 161/650/1129 189/651/1130 271/652/1131
f 161/650/1132 271/652/1133 272/653/1134
f 168/654/1135 171/655/1136 156/400/1137
f 168/654/1138 156/400/1139 179/399/1140
f 178/656/1141 163/657/1142 164/379/1143
f 178/656/1144 164/379/1145 173/395/1146
f 188/658/1147 158/659/1148 157/392/1149
f 188/658/1150 157/392/1151 176/391/1152
f 177/660/1153 178/661/1154 173/388/1155
f 177/660/1156 173/388/1157 172/387/1158
f 163/657/1159 162/662/1160 165/380/1161
f 163/657/1162 165/380/1163 164/379/1164
f 171/663/1165 170/664/1166 157/372/1167
f 171/663/1168 157/372/1169 156/371/1170
f 189/651/1171 188/658/1172 176/391/1173
f 189/651/1174 176/391/1175 271/652/1176
f 182/665/1177 168/654/1178 179/399/1179
f 182/665/1180 179/399/1181 184/666/1182
f 159/667/1183 158/668/1184 188/412/1185
f 159/667/1186 188/412/1187 180/411/1188
f 184/666/1189 179/399/1190 180/402/1191
f 184/666/1192 180/402/1193 185/669/1194
f 136/670/1195 135/671/1196 149/672/1197
f 136/670/1198 149/672/1199 150/673/1200
f 152/674/1201 143/359/1202 150/362/1203
f 152/674/1204 150/362/1205 154/675/1206
f 123/676/1207 109/637/1208 120/313/1209
f 123/676/1210 120/313/1211 129/677/1212
f 100/678/1213 99/679/1214 270/680/1215
f 100/678/1216 270/680/1217 121/681/1218
f 129/677/1219 120/313/1220 121/316/1221
f 129/677/1222 121/316/1223 130/682/1224
f 126/322/1225 117/305/1226 110/308/1227
f 126/322/1228 110/308/1229 127/323/1230
f 123/319/1231 127/330/1232 110/298/1233
f 123/319/1234 110/298/1235 109/297/1236
f 131/683/1237 118/643/1238 113/301/1239
f 131/683/1240 113/301/1241 132/684/1242
f 103/685/1243 102/686/1244 125/321/1245
f 103/685/1246 125/321/1247 106/687/1248
f 108/688/1249 107/689/1250 128/329/1251
f 108/688/1252 128/329/1253 122/318/1254
f 106/687/1255 125/321/1256 128/324/1257
f 106/687/1258 128/324/1259 107/690/1260
f 115/691/1261 108/688/1262 122/318/1263
f 115/691/1264 122/318/1265 116/317/1266
f 131/692/1267 130/693/1268 101/289/1269
f 131/692/1270 101/289/1271 118/311/1272
f 132/684/1273 113/301/1274 116/304/1275
f 132/684/1276 116/304/1277 124/694/1278
f 142/695/1279 141/696/1280 273/697/1281
f 142/695/1282 273/697/1283 151/364/1284
f 139/698/1285 138/699/1286 273/700/1287
f 139/698/1288 273/700/1289 141/701/1290
f 147/702/1291 142/695/1292 151/364/1293
f 147/702/1294 151/364/1295 148/363/1296
f 155/703/1297 154/704/1298 137/335/1299
f 155/703/1300 137/335/1301 145/357/1302
f 155/705/1303 145/347/1304 148/350/1305
f 155/705/1306 148/350/1307 153/706/1308
f 186/707/1309 177/660/1310 172/387/1311
f 186/707/1312 172/387/1313 187/708/1314
f 162/709/1315 161/650/1316 272/653/1317
f 162/709/1318 272/653/1319 165/710/1320
f 167/711/1321 166/712/1322 274/713/1323
f 167/711/1324 274/713/1325 181/404/1326
f 165/710/1327 272/653/1328 274/714/1329
f 165/710/1330 274/714/1331 166/715/1332
f 174/716/1333 167/711/1334 181/404/1335
f 174/716/1336 181/404/1337 175/403/1338
f 186/717/1339 185/414/1340 160/375/1341
f 186/717/1342 160/375/1343 177/397/1344
f 187/708/1345 172/387/1346 175/390/1347
f 187/708/1348 175/390/1349 183/718/1350
f 185/414/1351 189/413/1352 161/376/1353
f 185/414/1354 161/376/1355 160/375/1356
f 275/719/1357 276/720/1358 277/721/1359
f 275/719/1360 277/721/1361 278/722/1362
f 281/727/1369 282/728/1370 283/729/1371
f 281/727/1372 283/729/1373 284/730/1374
f 284/731/1375 283/732/1376 285/733/1377
f 284/731/1378 285/733/1379 286/734/1380
f 287/735/1381 281/736/1382 284/737/1383
f 287/735/1384 284/737/1385 286/738/1386
f 282/739/1387 288/740/1388 285/741/1389
f 282/739/1390 285/741/1391 283/742/1392
f 279/743/1393 277/744/1394 276/745/1395
f 279/743/1396 276/745/1397 289/746/1398
f 278/747/1399 280/748/1400 290/749/1401
f 278/747/1402 290/749/1403 275/750/1404
f 280/751/1405 279/752/1406 289/753/1407
f 280/751/1408 289/753/1409 290/754/1410
f 287/755/1411 288/756/1412 276/720/1413
f 287/755/1414 276/720/1415 275/719/1416
f 286/757/1417 285/758/1418 288/756/1419
f 286/757/1420 288/756/1421 287/755/1422
f 291/759/1423 292/760/1424 293/761/1425
f 291/759/1426 293/761/1427 294/762/1428
f 290/754/1429 289/753/1430 282/728/1431
f 290/754/1432 282/728/1433 281/727/1434
f 295/763/1435 296/764/1436 276/745/1437
f 295/763/1438 276/745/1439 288/740/1440
f 296/764/1441 292/765/1442 289/746/1443
f 296/764/1444 289/746/1445 276/745/1446
f 292/765/1447 291/766/1448 282/739/1449
f 292/765/1450 282/739/1451 289/746/1452
f 291/766/1453 295/763/1454 288/740/1455
f 291/766/1456 288/740/1457 282/739/1458
f 293/767/1459 297/768/1460 298/769/1461
f 293/767/1462 298/769/1463 294/770/1464
f 296/771/1465 295/772/1466 298/773/1467
f 296/771/1468 298/773/1469 297/774/1470
f 295/775/1471 291/776/1472 294/777/1473
f 295/775/1474 294/777/1475 298/778/1476
f 292/779/1477 296/780/1478 297/781/1479
f 292/779/1480 297/781/1481 293/782/1482
f 299/783/1483 300/784/1484 301/785/1485
f 299/783/1486 301/785/1487 302/786/1488
f 304/791/1495 303/792/1496 305/793/1497
f 304/791/1498 305/793/1499 306/794/1500
f 306/795/1501 305/796/1502 300/797/1503
f 306/795/1504 300/797/1505 299/798/1506
f 302/799/1507 304/800/1508 306/801/1509
f 302/799/1510 306/801/1511 299/802/1512
f 303/803/1513 301/804/1514 300/805/1515
f 303/803/1516 300/805/1517 305/806/1518
f 307/807/1519 308/808/1520 309/809/1521
f 307/807/1522 309/809/1523 310/810/1524
f 312/815/1531 311/816/1532 313/817/1533
f 312/815/1534 313/817/1535 314/818/1536
f 314/819/1537 313/820/1538 308/821/1539
f 314/819/1540 308/821/1541 307/822/1542
f 310/823/1543 312/824/1544 314/825/1545
f 310/823/1546 314/825/1547 307/826/1548
f 311/827/1549 309/828/1550 308/829/1551
f 311/827/1552 308/829/1553 313/830/1554
g group1 group2
f 258/595/1003 259/596/1004 260/597/1005
f 258/595/1006 260/597/1007 261/598/1008
f 266/617/1039 258/595/1040 261/598/1041
f 266/617/1042 261/598/1043 267/618/1044
f 257/633/1075 256/634/1076 259/596/1077
f 257/633/1078 259/596/1079 258/595/1080
f 278/723/1363 277/724/1364 279/725/1365
f 278/723/1366 279/725/1367 280/726/1368
f 302/787/1489 301/788/1490 303/789/1491
f 302/787/1492 303/789/1493 304/790/1494
f 310/811/1525 309/812/1526 311/813/1527
f 310/811/1528 311/813/1529 312/814/1530
