# File exported by Houdini 20.0.688 (www.sidefx.com)
# 8 points
# 18 vertices
# 6 primitives
# Bounds: [-5.87666941, 0.0130932331, -3.96457887] to [3.96175766, 0.0130944252, 3.95893645]
g 
v -5.87666941 0.0130944252 3.95893645
v -5.87666941 0.0130932331 -3.96457887
v 3.53753734 0.0130932331 -3.96457887
v 3.96175766 0.0130932331 -3.96457887
v 3.96175766 0.0130944252 3.95893645
v 0.0764407218 0.0130944252 3.95893645
v 3.53753734 0.0130944252 3.95893645
v 0.0764407218 0.0130932331 -3.96457887
vt 0.99999994 0.956881285 0
vt 0 0.956881285 0
vt 0 1 0
vt 0.99999994 1 0
vt 0.99999994 0.605087399 0
vt 0 0.605087638 0
vt 0.99999994 0 0
vt 0 0 0
vn 0 1 -1.63130807e-07
vn 0 1 -1.62978125e-07
vn 0 1 -1.63056228e-07
vn 0 1 -1.63130807e-07
vn 0 1 -1.63056228e-07
vn 0 1 -1.6319467e-07
vn 0 1 -1.6311337e-07
vn 0 1 -1.63022591e-07
vn 0 1 -1.62978125e-07
vn 0 1 -1.6311337e-07
vn 0 1 -1.62978125e-07
vn 0 1 -1.63130807e-07
vn 0 1 -1.63165581e-07
vn 0 1 -1.63007627e-07
vn 0 1 -1.63022591e-07
vn 0 1 -1.63165581e-07
vn 0 1 -1.63022591e-07
vn 0 1 -1.6311337e-07
g 
f 3/1/1 7/2/2 5/3/3
f 3/1/4 5/3/5 4/4/6
f 8/5/7 6/6/8 7/2/9
f 8/5/10 7/2/11 3/1/12
f 2/7/13 1/8/14 6/6/15
f 2/7/16 6/6/17 8/5/18
