# File exported by Houdini 20.0.688 (www.sidefx.com)
# 16 points
# 60 vertices
# 20 primitives
# Bounds: [-5.87666941, 0.0130932331, -3.96457934] to [3.96175766, 3.01309443, 3.95893645]
g 
v -5.87666941 0.0130944252 3.95893645
v -5.87666941 0.0130932331 -3.96457887
v -5.87666941 3.01309323 -3.96457934
v -5.87666941 3.01309443 3.95893598
v 3.53753734 0.0130932331 -3.96457887
v 3.96175766 0.0130932331 -3.96457887
v 3.96175766 3.01309323 -3.96457934
v 3.53753734 3.01309323 -3.96457934
v 3.96175766 0.0130944252 3.95893645
v 3.96175766 3.01309443 3.95893598
v 0.0764407218 0.0130944252 3.95893645
v 0.0764407218 3.01309443 3.95893598
v 0.0764407218 3.01309323 -3.96457934
v 3.53753734 3.01309443 3.95893598
v 3.53753734 0.0130944252 3.95893645
v 0.0764407218 0.0130932331 -3.96457887
vt 0.669017494 1 0
vt 1 1 0
vt 1 0.556014955 0
vt 0.669017494 0.556014955 0
vt 0.647770643 0.443985045 0
vt 0.665491283 0.443985045 0
vt 0.665491223 0 0
vt 0.647770584 0 0
vt 0 0.443985045 0
vt 0.330982536 0.443985045 0
vt 0.330982536 0 0
vt 0 0 0
vt 0.665491283 0.782290757 0
vt 0.665491283 0.448715091 0
vt 0.334508747 0.448715091 0
vt 0.334508747 0.782290757 0
vt 0.330982536 0.666424394 0
vt 0 0.666424394 0
vt 0 1 0
vt 0.330982536 1 0
vt 0.330982536 0.448714972 0
vt 0 0.448714972 0
vt 0 0.47248584 0
vt 0.330982536 0.47248584 0
vt 0.665491283 1 0
vt 0.665491283 0.97622937 0
vt 0.334508747 0.97622937 0
vt 0.334508747 1 0
vt 0.669017494 0.55128485 0
vt 0.917691946 0.55128485 0
vt 0.917691827 0.107299805 0
vt 0.669017494 0.107299805 0
vn 1 4.25940101e-08 0
vn 1 8.51880202e-08 0
vn 1 4.25940101e-08 0
vn 1 4.25940101e-08 0
vn 1 4.25940101e-08 0
vn 1 0 0
vn 0 1.5894571e-07 1
vn 0 1.58945625e-07 1
vn 0 1.5894571e-07 1
vn 0 1.5894571e-07 1
vn 0 1.5894571e-07 1
vn 0 1.58945809e-07 1
vn -1 -7.6714135e-10 0
vn -1 -1.5342827e-09 0
vn -1 -7.6714135e-10 0
vn -1 -7.6714135e-10 0
vn -1 -7.6714135e-10 0
vn -1 0 0
vn 0 -1.58945724e-07 -1
vn 0 -1.58945724e-07 -1
vn 0 -1.58945724e-07 -1
vn 0 -1.58945724e-07 -1
vn 0 -1.58945724e-07 -1
vn 0 -1.58945724e-07 -1
vn 0 -1 1.2723882e-07
vn 0 -1 1.19690952e-07
vn 0 -1 1.2130802e-07
vn 0 -1 1.2723882e-07
vn 0 -1 1.2130802e-07
vn 0 -1 1.61744012e-07
vn 0 -1 1.41860227e-07
vn 0 -1 1.41860227e-07
vn 0 -1 1.40940301e-07
vn 0 -1 1.41860227e-07
vn 0 -1 1.40940301e-07
vn 0 -1 1.40020362e-07
vn 0 -1.5894571e-07 -1
vn 0 -1.58945767e-07 -1
vn 0 -1.5894571e-07 -1
vn 0 -1.5894571e-07 -1
vn 0 -1.5894571e-07 -1
vn 0 -1.58945625e-07 -1
vn 0 1.5894571e-07 1
vn 0 1.58945724e-07 1
vn 0 1.5894571e-07 1
vn 0 1.5894571e-07 1
vn 0 1.5894571e-07 1
vn 0 1.58945696e-07 1
vn 0 -1 1.40020362e-07
vn 0 -1 1.40940301e-07
vn 0 -1 1.19690952e-07
vn 0 -1 1.40020362e-07
vn 0 -1 1.19690952e-07
vn 0 -1 1.2723882e-07
vn 0 -1.58945767e-07 -1
vn 0 -1.58945724e-07 -1
vn 0 -1.58945724e-07 -1
vn 0 -1.58945767e-07 -1
vn 0 -1.58945724e-07 -1
vn 0 -1.5894571e-07 -1
g 
f 1/1/1 2/2/2 3/3/3
f 1/1/4 3/3/5 4/4/6
f 5/5/7 6/6/8 7/7/9
f 5/5/10 7/7/11 8/8/12
f 6/9/13 9/10/14 10/11/15
f 6/9/16 10/11/17 7/12/18
f 11/13/19 1/14/20 4/15/21
f 11/13/22 4/15/23 12/16/24
f 13/17/25 12/18/26 4/19/27
f 13/17/28 4/19/29 3/20/30
f 7/21/31 10/22/32 14/23/33
f 7/21/34 14/23/35 8/24/36
f 9/25/37 15/26/38 14/27/39
f 9/25/40 14/27/41 10/28/42
f 2/29/43 16/30/44 13/31/45
f 2/29/46 13/31/47 3/32/48
f 8/24/49 14/23/50 12/18/51
f 8/24/52 12/18/53 13/17/54
f 15/26/55 11/13/56 12/16/57
f 15/26/58 12/16/59 14/27/60
