# File exported by Houdini 20.0.688 (www.sidefx.com)
# 8 points
# 36 vertices
# 12 primitives
# Bounds: [-0.762236357, 0.0188756865, -2.04514956] to [2.54303694, 0.029346548, 2.51302671]
g 
v -0.762236357 0.0188764296 2.51302671
v -0.762236357 0.029346548 2.51302671
v -0.762236357 0.0293458048 -2.04514956
v -0.762236357 0.0188756865 -2.04514956
v 2.54303694 0.0293458048 -2.04514956
v 2.54303694 0.0188756865 -2.04514956
v 2.54303694 0.029346548 2.51302671
v 2.54303694 0.0188764296 2.51302671
vt 0.144012421 0.992375791 0
vt 0.144012421 0.897120297 0
vt 0.0791892186 0.897120297 0
vt 0.0791892186 0.992375791 0
vt 0.369623899 0.992551863 0
vt 0.369623899 0.899773955 0
vt 0.310822487 0.899773955 0
vt 0.310822487 0.992551863 0
vt 0.0784106925 0.992375791 0
vt 0.0784106627 0.897120297 0
vt 0.0135874823 0.897120297 0
vt 0.0135874823 0.992375791 0
vt 0.288566768 0.993300855 0
vt 0.288566768 0.900406063 0
vt 0.229691267 0.900406063 0
vt 0.229691267 0.993300855 0
vt 0.144790918 0.992375791 0
vt 0.205162615 0.992375791 0
vt 0.205162615 0.903770626 0
vt 0.144790918 0.903770685 0
vt 0.0246280879 0.892927349 0
vt 0.990890503 0.892927349 0
vt 0.990890503 0.0139382482 0
vt 0.0246280879 0.0139384866 0
vn -1 0 0
vn -1 0 0
vn -1 0 0
vn -1 0 0
vn -1 0 0
vn -1 0 0
vn 0 0 -1
vn 0 0 -1
vn 0 0 -1
vn 0 0 -1
vn 0 0 -1
vn 0 0 -1
vn 1 0 0
vn 1 0 0
vn 1 0 0
vn 1 0 0
vn 1 0 0
vn 1 0 0
vn 0 0 1
vn 0 0 1
vn 0 0 1
vn 0 0 1
vn 0 0 1
vn 0 0 1
vn 0 -1 1.62947273e-07
vn 0 -1 1.62700005e-07
vn 0 -1 1.62947273e-07
vn 0 -1 1.62947273e-07
vn 0 -1 1.62947273e-07
vn 0 -1 1.63194542e-07
vn 0 1 -1.63194542e-07
vn 0 1 -1.62205481e-07
vn 0 1 -1.63194542e-07
vn 0 1 -1.63194542e-07
vn 0 1 -1.63194542e-07
vn 0 1 -1.64183589e-07
g 
f 1/1/1 2/2/2 3/3/3
f 1/1/4 3/3/5 4/4/6
f 4/5/7 3/6/8 5/7/9
f 4/5/10 5/7/11 6/8/12
f 6/9/13 5/10/14 7/11/15
f 6/9/16 7/11/17 8/12/18
f 8/13/19 7/14/20 2/15/21
f 8/13/22 2/15/23 1/16/24
f 4/17/25 6/18/26 8/19/27
f 4/17/28 8/19/29 1/20/30
f 5/21/31 3/22/32 2/23/33
f 5/21/34 2/23/35 7/24/36
