# File exported by Houdini 20.0.688 (www.sidefx.com)
# 96 points
# 270 vertices
# 90 primitives
# Bounds: [1.83984888, 1.5553844, -0.314259827] to [1.93677473, 1.55538452, 0.854127884]
g 
v 1.89776647 1.5553844 -0.313328624
v 1.88831186 1.5553844 -0.314259827
v 1.85404336 1.5553844 -0.300065368
v 1.84801638 1.5553844 -0.29272145
v 1.89776647 1.5553844 -0.218265116
v 1.90685773 1.5553844 -0.221022949
v 1.90685773 1.5553844 -0.310570806
v 1.86138725 1.5553844 -0.306092352
v 1.88831186 1.5553844 -0.217333928
v 1.91523635 1.5553844 -0.306092352
v 1.86976588 1.5553844 -0.310570836
v 1.87885714 1.5553844 -0.218265116
v 1.92258024 1.5553844 -0.300065368
v 1.87885714 1.5553844 -0.313328624
v 1.86976588 1.5553844 -0.221022949
v 1.92860734 1.5553844 -0.29272145
v 1.86138725 1.5553844 -0.225501403
v 1.9330858 1.5553844 -0.284342855
v 1.85404336 1.5553844 -0.231528401
v 1.93584359 1.5553844 -0.275251538
v 1.84801638 1.5553844 -0.23887229
v 1.93677473 1.5553844 -0.26579687
v 1.84353793 1.5553844 -0.2472509
v 1.93584359 1.5553844 -0.256342232
v 1.84078002 1.5553844 -0.256342232
v 1.9330858 1.5553844 -0.247250915
v 1.83984888 1.5553844 -0.26579687
v 1.92860734 1.5553844 -0.238872305
v 1.84078002 1.5553844 -0.275251538
v 1.92258024 1.5553844 -0.231528401
v 1.84353793 1.5553844 -0.284342855
v 1.91523635 1.5553844 -0.225501403
v 1.89776647 1.5553844 0.222402215
v 1.88831186 1.5553844 0.221471041
v 1.85404336 1.5553844 0.23566547
v 1.84801638 1.5553844 0.243009418
v 1.89776647 1.5553844 0.317465752
v 1.90685773 1.5553844 0.314707905
v 1.90685773 1.5553844 0.225160062
v 1.86138725 1.5553844 0.229638547
v 1.88831186 1.5553844 0.318396896
v 1.91523635 1.5553844 0.229638547
v 1.86976588 1.5553844 0.225160062
v 1.87885714 1.5553844 0.317465752
v 1.92258024 1.5553844 0.23566547
v 1.87885714 1.5553844 0.222402215
v 1.86976588 1.5553844 0.314707905
v 1.92860734 1.5553844 0.243009359
v 1.86138725 1.5553844 0.31022945
v 1.9330858 1.5553844 0.251387984
v 1.85404336 1.5553844 0.304202467
v 1.93584359 1.5553844 0.260479301
v 1.84801638 1.5553844 0.296858579
v 1.93677473 1.5553844 0.269933969
v 1.84353793 1.5553844 0.288479954
v 1.93584359 1.5553844 0.279388636
v 1.84078002 1.5553844 0.279388636
v 1.9330858 1.5553844 0.288479954
v 1.83984888 1.5553844 0.269933969
v 1.92860734 1.5553844 0.296858579
v 1.84078002 1.5553844 0.260479301
v 1.92258024 1.5553844 0.304202467
v 1.84353793 1.5553844 0.251387984
v 1.91523635 1.5553844 0.31022945
v 1.89776647 1.55538452 0.758133173
v 1.88831186 1.55538452 0.75720191
v 1.85404336 1.55538452 0.771396399
v 1.84801638 1.55538452 0.778740287
v 1.89776647 1.55538452 0.853196621
v 1.90685773 1.55538452 0.850438714
v 1.90685773 1.55538452 0.760890961
v 1.86138725 1.55538452 0.765369415
v 1.88831186 1.55538452 0.854127884
v 1.91523635 1.55538452 0.765369415
v 1.86976588 1.55538452 0.760890961
v 1.87885714 1.55538452 0.853196621
v 1.92258024 1.55538452 0.771396399
v 1.87885714 1.55538452 0.758133173
v 1.86976588 1.55538452 0.850438714
v 1.92860734 1.55538452 0.778740287
v 1.86138725 1.55538452 0.845960379
v 1.9330858 1.55538452 0.787118912
v 1.85404336 1.55538452 0.839933395
v 1.93584359 1.55538452 0.796210289
v 1.84801638 1.55538452 0.832589388
v 1.93677473 1.55538452 0.805664897
v 1.84353793 1.55538452 0.824210882
v 1.93584359 1.55538452 0.815119505
v 1.84078002 1.55538452 0.815119505
v 1.9330858 1.55538452 0.824210882
v 1.83984888 1.55538452 0.805664897
v 1.92860734 1.55538452 0.832589388
v 1.84078002 1.55538452 0.796210289
v 1.92258024 1.55538452 0.839933395
v 1.84353793 1.55538452 0.787118912
v 1.91523635 1.55538452 0.845960379
vt 0.506248772 0.273055255 0
vt 0.548304677 0.275510192 0
vt 0.527480543 0.273055077 0
vt 0.485424757 0.275510192 0
vt 0.567920268 0.280326009 0
vt 0.465809464 0.280326009 0
vt 0.585573792 0.287317634 0
vt 0.448155612 0.287317634 0
vt 0.600586712 0.296215951 0
vt 0.433142751 0.296215951 0
vt 0.61238265 0.306679666 0
vt 0.421346843 0.306679666 0
vt 0.620507836 0.318305969 0
vt 0.413221657 0.318305969 0
vt 0.624649525 0.330648661 0
vt 0.40907979 0.330648661 0
vt 0.624649525 0.343233049 0
vt 0.620507836 0.355575502 0
vt 0.40907979 0.343233049 0
vt 0.61238265 0.367202044 0
vt 0.413221657 0.355575502 0
vt 0.421346843 0.367202044 0
vt 0.600586712 0.377665639 0
vt 0.585573792 0.386564076 0
vt 0.433142751 0.377665639 0
vt 0.448155612 0.386564076 0
vt 0.567920029 0.393555641 0
vt 0.465809464 0.393555641 0
vt 0.548304677 0.398371577 0
vt 0.485425115 0.398371577 0
vt 0.527480543 0.400826454 0
vt 0.506248772 0.400826454 0
vt 0.448154211 0.424704432 0
vt 0.485423505 0.41289717 0
vt 0.465809762 0.417712867 0
vt 0.433141023 0.433603108 0
vt 0.50624913 0.410441816 0
vt 0.421346426 0.444066107 0
vt 0.527478814 0.410441816 0
vt 0.413220286 0.455693007 0
vt 0.548304677 0.41289717 0
vt 0.409077793 0.468035042 0
vt 0.567918301 0.417712867 0
vt 0.409077793 0.480619788 0
vt 0.585573792 0.424704432 0
vt 0.413220286 0.492961884 0
vt 0.600586951 0.433603108 0
vt 0.421346426 0.504588842 0
vt 0.612381637 0.444066107 0
vt 0.620507836 0.455693007 0
vt 0.433141023 0.515051901 0
vt 0.62465024 0.468035042 0
vt 0.448154211 0.523950458 0
vt 0.465809762 0.530942082 0
vt 0.62465024 0.480619788 0
vt 0.620507836 0.492961884 0
vt 0.485423505 0.53575772 0
vt 0.50624913 0.538213074 0
vt 0.612381637 0.504588842 0
vt 0.527478814 0.538213074 0
vt 0.600586951 0.515051901 0
vt 0.548304677 0.53575772 0
vt 0.585573792 0.523950458 0
vt 0.567918301 0.530942082 0
vt 0.465804398 0.142940462 0
vt 0.50624913 0.135668516 0
vt 0.485423505 0.138123989 0
vt 0.448156953 0.149931192 0
vt 0.527484298 0.135668516 0
vt 0.433138371 0.158829808 0
vt 0.548299253 0.138123989 0
vt 0.421341062 0.169294477 0
vt 0.567918301 0.142940462 0
vt 0.413217545 0.180919707 0
vt 0.585576475 0.149931192 0
vt 0.409080416 0.193263531 0
vt 0.600584328 0.158829808 0
vt 0.409080416 0.205846667 0
vt 0.612381637 0.169294477 0
vt 0.413217545 0.218190312 0
vt 0.620505154 0.180919707 0
vt 0.624652982 0.193263531 0
vt 0.421341062 0.229815602 0
vt 0.624652982 0.205846667 0
vt 0.433138371 0.240280271 0
vt 0.448156953 0.249178767 0
vt 0.620505154 0.218190312 0
vt 0.612381637 0.229815602 0
vt 0.465804398 0.256169677 0
vt 0.485423505 0.260986149 0
vt 0.600584328 0.240280271 0
vt 0.50624913 0.263441443 0
vt 0.585576475 0.249178767 0
vt 0.527484298 0.263441443 0
vt 0.567918301 0.256169677 0
vt 0.548299253 0.260986149 0
vn 0 -1 0
vn 0 -1 0
vn 0 -1 0
vn 0 -1 0
vn 0 -1 0
vn 0 -1 0
vn 0 -1 0
vn 0 -1 0
vn 0 -1 0
vn 0 -1 0
vn 0 -1 0
vn 0 -1 0
vn 0 -1 0
vn 0 -1 0
vn 0 -1 0
vn 0 -1 0
vn 0 -1 0
vn 0 -1 0
vn 0 -1 0
vn 0 -1 0
vn 0 -1 0
vn 0 -1 0
vn 0 -1 0
vn 0 -1 0
vn 0 -1 0
vn 0 -1 0
vn 0 -1 0
vn 0 -1 0
vn 0 -1 0
vn 0 -1 0
vn 0 -1 0
vn 0 -1 0
vn 0 -1 0
vn 0 -1 0
vn 0 -1 0
vn 0 -1 0
vn 0 -1 0
vn 0 -1 0
vn 0 -1 0
vn 0 -1 0
vn 0 -1 0
vn 0 -1 0
vn 0 -1 0
vn 0 -1 0
vn 0 -1 0
vn 0 -1 0
vn 0 -1 0
vn 0 -1 0
vn 0 -1 0
vn 0 -1 0
vn 0 -1 0
vn 0 -1 0
vn 0 -1 0
vn 0 -1 0
vn 0 -1 0
vn 0 -1 0
vn 0 -1 0
vn 0 -1 0
vn 0 -1 0
vn 0 -1 0
vn 0 -1 0
vn 0 -1 0
vn 0 -1 0
vn 0 -1 0
vn 0 -1 0
vn 0 -1 0
vn 0 -1 0
vn 0 -1 0
vn 0 -1 0
vn 0 -1 0
vn 0 -1 0
vn 0 -1 0
vn 0 -1 0
vn 0 -1 0
vn 0 -1 0
vn 0 -1 0
vn 0 -1 0
vn 0 -1 0
vn 0 -1 0
vn 0 -1 0
vn 0 -1 0
vn 0 -1 0
vn 0 -1 0
vn 0 -1 0
vn 0 -1 0
vn 0 -1 0
vn 0 -1 0
vn 0 -1 0
vn 0 -1 0
vn 0 -1 0
vn 0 -1 0
vn 0 -1 0
vn 0 -1 0
vn 0 -1 0
vn 0 -1 0
vn 0 -1 0
vn 0 -1 0
vn 0 -1 0
vn 0 -1 0
vn 0 -1 0
vn 0 -1 0
vn 0 -1 0
vn 0 -1 0
vn 0 -1 0
vn 0 -1 0
vn 0 -1 0
vn 0 -1 0
vn 0 -1 0
vn 0 -1 0
vn 0 -1 0
vn 0 -1 0
vn 0 -1 0
vn 0 -1 0
vn 0 -1 0
vn 0 -1 0
vn 0 -1 0
vn 0 -1 0
vn 0 -1 0
vn 0 -1 0
vn 0 -1 0
vn 0 -1 0
vn 0 -1 0
vn 0 -1 0
vn 0 -1 0
vn 0 -1 0
vn 0 -1 0
vn 0 -1 0
vn 0 -1 0
vn 0 -1 0
vn 0 -1 0
vn 0 -1 0
vn 0 -1 0
vn 0 -1 0
vn 0 -1 0
vn 0 -1 0
vn 0 -1 0
vn 0 -1 0
vn 0 -1 0
vn 0 -1 0
vn 0 -1 0
vn 0 -1 0
vn 0 -1 0
vn 0 -1 0
vn 0 -1 0
vn 0 -1 0
vn 0 -1 0
vn 0 -1 0
vn 0 -1 0
vn 0 -1 0
vn 0 -1 0
vn 0 -1 0
vn 0 -1 0
vn 0 -1 0
vn 0 -1 0
vn 0 -1 0
vn 0 -1 0
vn 0 -1 0
vn 0 -1 0
vn 0 -1 0
vn 0 -1 0
vn 0 -1 0
vn 0 -1 0
vn 0 -1 0
vn 0 -1 0
vn 0 -1 0
vn 0 -1 0
vn 0 -1 0
vn 0 -1 0
vn 0 -1 0
vn 0 -1 0
vn 0 -1 0
vn 0 -1 0
vn 0 -1 0
vn 0 -1 0
vn 0 -1 0
vn 0 -1 0
vn 0 -1 0
vn 0 -1 0
vn 0 -1 0
vn 0 -1 0
vn 0 -1 0
vn 0 -1 0
vn 0 -1 0
vn 0 -1 0
vn 0 -1 0
vn 0 -1 0
vn 0 -1 0
vn 0 -1 0
vn 0 -1 0
vn 0 -1 0
vn 0 -1 0
vn 0 -1 0
vn 0 -1 0
vn 0 -1 0
vn 0 -1 0
vn 0 -1 0
vn 0 -1 0
vn 0 -1 0
vn 0 -1 0
vn 0 -1 0
vn 0 -1 0
vn 0 -1 0
vn 0 -1 0
vn 0 -1 0
vn 0 -1 0
vn 0 -1 0
vn 0 -1 0
vn 0 -1 0
vn 0 -1 0
vn 0 -1 0
vn 0 -1 0
vn 0 -1 0
vn 0 -1 0
vn 0 -1 0
vn 0 -1 0
vn 0 -1 0
vn 0 -1 0
vn 0 -1 0
vn 0 -1 0
vn 0 -1 0
vn 0 -1 0
vn 0 -1 0
vn 0 -1 0
vn 0 -1 0
vn 0 -1 0
vn 0 -1 0
vn 0 -1 0
vn 0 -1 0
vn 0 -1 0
vn 0 -1 0
vn 0 -1 0
vn 0 -1 0
vn 0 -1 0
vn 0 -1 0
vn 0 -1 0
vn 0 -1 0
vn 0 -1 0
vn 0 -1 0
vn 0 -1 0
vn 0 -1 0
vn 0 -1 0
vn 0 -1 0
vn 0 -1 0
vn 0 -1 0
vn 0 -1 0
vn 0 -1 0
vn 0 -1 0
vn 0 -1 0
vn 0 -1 0
vn 0 -1 0
vn 0 -1 0
vn 0 -1 0
vn 0 -1 0
vn 0 -1 0
vn 0 -1 0
vn 0 -1 0
vn 0 -1 0
vn 0 -1 0
vn 0 -1 0
vn 0 -1 0
vn 0 -1 0
vn 0 -1 0
vn 0 -1 0
vn 0 -1 0
vn 0 -1 0
vn 0 -1 0
vn 0 -1 0
vn 0 -1 0
vn 0 -1 0
vn 0 -1 0
g group1
f 29/1/1 25/2/2 27/3/3
f 25/2/4 29/1/5 31/4/6
f 25/2/7 31/4/8 23/5/9
f 23/5/10 31/4/11 4/6/12
f 23/5/13 4/6/14 21/7/15
f 21/7/16 4/6/17 3/8/18
f 21/7/19 3/8/20 19/9/21
f 19/9/22 3/8/23 8/10/24
f 19/9/25 8/10/26 17/11/27
f 17/11/28 8/10/29 11/12/30
f 17/11/31 11/12/32 15/13/33
f 15/13/34 11/12/35 14/14/36
f 15/13/37 14/14/38 12/15/39
f 12/15/40 14/14/41 2/16/42
f 12/15/43 2/16/44 9/17/45
f 9/17/46 2/16/47 5/18/48
f 5/18/49 2/16/50 1/19/51
f 5/18/52 1/19/53 6/20/54
f 6/20/55 1/19/56 7/21/57
f 6/20/58 7/21/59 10/22/60
f 6/20/61 10/22/62 32/23/63
f 32/23/64 10/22/65 30/24/66
f 30/24/67 10/22/68 13/25/69
f 30/24/70 13/25/71 16/26/72
f 30/24/73 16/26/74 28/27/75
f 28/27/76 16/26/77 18/28/78
f 28/27/79 18/28/80 26/29/81
f 26/29/82 18/28/83 20/30/84
f 26/29/85 20/30/86 24/31/87
f 24/31/88 20/30/89 22/32/90
f 61/33/91 57/34/92 59/35/93
f 57/34/94 61/33/95 63/36/96
f 57/34/97 63/36/98 55/37/99
f 55/37/100 63/36/101 36/38/102
f 55/37/103 36/38/104 53/39/105
f 53/39/106 36/38/107 35/40/108
f 53/39/109 35/40/110 51/41/111
f 51/41/112 35/40/113 40/42/114
f 51/41/115 40/42/116 49/43/117
f 49/43/118 40/42/119 43/44/120
f 49/43/121 43/44/122 47/45/123
f 47/45/124 43/44/125 46/46/126
f 47/45/127 46/46/128 44/47/129
f 44/47/130 46/46/131 34/48/132
f 44/47/133 34/48/134 41/49/135
f 41/49/136 34/48/137 37/50/138
f 37/50/139 34/48/140 33/51/141
f 37/50/142 33/51/143 38/52/144
f 38/52/145 33/51/146 39/53/147
f 38/52/148 39/53/149 42/54/150
f 38/52/151 42/54/152 64/55/153
f 64/55/154 42/54/155 62/56/156
f 62/56/157 42/54/158 45/57/159
f 62/56/160 45/57/161 48/58/162
f 62/56/163 48/58/164 60/59/165
f 60/59/166 48/58/167 50/60/168
f 60/59/169 50/60/170 58/61/171
f 58/61/172 50/60/173 52/62/174
f 58/61/175 52/62/176 56/63/177
f 56/63/178 52/62/179 54/64/180
f 93/65/181 89/66/182 91/67/183
f 89/66/184 93/65/185 95/68/186
f 89/66/187 95/68/188 87/69/189
f 87/69/190 95/68/191 68/70/192
f 87/69/193 68/70/194 85/71/195
f 85/71/196 68/70/197 67/72/198
f 85/71/199 67/72/200 83/73/201
f 83/73/202 67/72/203 72/74/204
f 83/73/205 72/74/206 81/75/207
f 81/75/208 72/74/209 75/76/210
f 81/75/211 75/76/212 79/77/213
f 79/77/214 75/76/215 78/78/216
f 79/77/217 78/78/218 76/79/219
f 76/79/220 78/78/221 66/80/222
f 76/79/223 66/80/224 73/81/225
f 73/81/226 66/80/227 69/82/228
f 69/82/229 66/80/230 65/83/231
f 69/82/232 65/83/233 70/84/234
f 70/84/235 65/83/236 71/85/237
f 70/84/238 71/85/239 74/86/240
f 70/84/241 74/86/242 96/87/243
f 96/87/244 74/86/245 94/88/246
f 94/88/247 74/86/248 77/89/249
f 94/88/250 77/89/251 80/90/252
f 94/88/253 80/90/254 92/91/255
f 92/91/256 80/90/257 82/92/258
f 92/91/259 82/92/260 90/93/261
f 90/93/262 82/92/263 84/94/264
f 90/93/265 84/94/266 88/95/267
f 88/95/268 84/94/269 86/96/270
