# File exported by Houdini 20.0.688 (www.sidefx.com)
# 386 points
# 1536 vertices
# 384 primitives
# Bounds: [-0.810000002, -0.819999993, -0.409999996] to [0.00999999046, 0, 0.409999996]
g 
v -0.636713624 -0.646713614 -0.236713603
v -0.163286373 -0.646713614 -0.236713603
v -0.163286403 -0.646713614 0.236713603
v -0.636713624 -0.646713614 0.236713603
v -0.636713624 -0.173286393 -0.236713603
v -0.163286403 -0.173286393 -0.236713603
v -0.163286403 -0.173286363 0.236713603
v -0.636713624 -0.173286393 0.236713603
v -0.399999976 -0.409999996 -0.409999996
v 0.00999999046 -0.410000026 9.73755121e-09
v -0.400000036 -0.409999996 0.409999996
v -0.810000002 -0.410000026 -9.73755121e-09
v -0.400000006 -0.819999993 2.9655272e-08
v -0.400000006 0 -2.9655272e-08
v -0.110086262 -0.409999996 -0.289913803
v -0.400000006 -0.120086193 -0.289913774
v -0.68991375 -0.409999996 -0.289913803
v -0.400000006 -0.6999138 -0.289913774
v -0.110086262 -0.409999996 0.289913803
v -0.110086203 -0.120086253 4.35291192e-10
v -0.110086203 -0.69991374 0
v -0.68991375 -0.409999996 0.289913803
v -0.400000006 -0.120086193 0.289913774
v -0.400000006 -0.6999138 0.289913774
v -0.689913809 -0.120086253 -4.35291247e-10
v -0.689913809 -0.69991374 0
v -0.254632592 -0.555367351 -0.354734629
v -0.254632592 -0.264632612 -0.354734629
v -0.545367479 -0.264632612 -0.354734659
v -0.54536742 -0.555367351 -0.3547346
v -0.0452653766 -0.55536741 0.145367384
v -0.0452653468 -0.264632583 0.145367384
v -0.0452653468 -0.264632583 -0.145367399
v -0.0452654064 -0.55536741 -0.145367384
v -0.54536742 -0.555367351 0.354734629
v -0.54536742 -0.264632612 0.354734629
v -0.254632562 -0.264632612 0.354734659
v -0.254632592 -0.555367351 0.3547346
v -0.754734635 -0.55536741 -0.145367384
v -0.754734635 -0.264632583 -0.145367384
v -0.754734635 -0.264632583 0.145367399
v -0.754734635 -0.55536741 0.145367384
v -0.254632652 -0.764734566 0.145367414
v -0.254632622 -0.764734626 -0.145367414
v -0.54536736 -0.764734626 -0.145367414
v -0.54536736 -0.764734626 0.145367429
v -0.254632652 -0.0552654266 -0.145367414
v -0.254632622 -0.0552653372 0.145367414
v -0.54536736 -0.0552653968 0.145367414
v -0.54536736 -0.0552653968 -0.145367429
v -0.249778181 -0.409999996 -0.381488383
v -0.400000006 -0.259778202 -0.381488442
v -0.550221801 -0.409999996 -0.381488442
v -0.399999976 -0.560221791 -0.381488442
v -0.0185115635 -0.410000026 0.15022178
v -0.0185115635 -0.259778202 4.39237036e-10
v -0.0185115635 -0.409999996 -0.15022178
v -0.0185116231 -0.560221791 8.34550296e-09
v -0.550221801 -0.409999996 0.381488383
v -0.400000006 -0.259778202 0.381488442
v -0.249778211 -0.409999996 0.381488442
v -0.400000036 -0.560221791 0.381488442
v -0.781488419 -0.410000026 -0.15022178
v -0.781488419 -0.259778202 -4.39237036e-10
v -0.781488419 -0.409999996 0.15022178
v -0.781488419 -0.560221791 -8.34550296e-09
v -0.249778226 -0.791488409 3.11858273e-08
v -0.400000006 -0.791488409 -0.150221795
v -0.550221801 -0.791488409 -4.39237036e-10
v -0.400000006 -0.791488409 0.150221795
v -0.249778226 -0.028511554 -3.11858273e-08
v -0.400000006 -0.028511554 0.150221795
v -0.550221801 -0.028511554 4.39237036e-10
v -0.400000006 -0.0285116136 -0.150221795
v -0.127331257 -0.549296558 -0.272668719
v -0.127331257 -0.270703435 -0.272668749
v -0.260703444 -0.137331247 -0.272668749
v -0.539296567 -0.137331247 -0.272668689
v -0.672668695 -0.270703435 -0.272668719
v -0.672668695 -0.549296558 -0.272668719
v -0.539296567 -0.682668686 -0.272668749
v -0.260703474 -0.682668686 -0.272668749
v -0.127331287 -0.549296558 0.272668719
v -0.127331257 -0.270703435 0.272668749
v -0.127331316 -0.137331277 0.139296547
v -0.127331316 -0.137331247 -0.139296561
v -0.127331287 -0.682668686 -0.139296561
v -0.127331287 -0.682668686 0.139296561
v -0.672668755 -0.549296558 0.272668719
v -0.672668755 -0.270703435 0.272668749
v -0.539296508 -0.137331307 0.272668749
v -0.260703444 -0.137331247 0.272668719
v -0.260703444 -0.682668746 0.272668749
v -0.539296567 -0.682668746 0.272668749
v -0.672668695 -0.137331247 -0.139296532
v -0.672668695 -0.137331247 0.139296517
v -0.672668755 -0.682668746 0.139296561
v -0.672668755 -0.682668746 -0.139296517
v -0.197321713 -0.612678289 -0.293160379
v -0.180400163 -0.48365894 -0.338304996
v -0.324726522 -0.485273451 -0.395939171
v -0.326341033 -0.62959981 -0.338304996
v -0.180400163 -0.336341053 -0.338305056
v -0.197321743 -0.207321703 -0.293160409
v -0.326341063 -0.190400153 -0.338304996
v -0.324726522 -0.334726542 -0.395939171
v -0.47527343 -0.334726542 -0.395939171
v -0.473658949 -0.190400153 -0.338304996
v -0.602678299 -0.207321674 -0.293160379
v -0.619599819 -0.336341053 -0.338304996
v -0.473658979 -0.62959981 -0.338304996
v -0.47527346 -0.485273451 -0.395939171
v -0.619599819 -0.48365894 -0.338304996
v -0.602678299 -0.612678289 -0.293160379
v -0.106839627 -0.612678289 0.202678323
v -0.0616950095 -0.48365894 0.219599843
v -0.00406083465 -0.48527348 0.0752734616
v -0.0616950095 -0.62959981 0.0736589208
v -0.0616950095 -0.336341053 0.219599843
v -0.106839627 -0.207321703 0.202678293
v -0.0616950095 -0.190400153 0.0736589357
v -0.00406083465 -0.334726572 0.0752734616
v -0.00406083465 -0.334726542 -0.0752734542
v -0.0616950095 -0.190400153 -0.0736589432
v -0.106839627 -0.207321718 -0.202678293
v -0.0616950095 -0.336341023 -0.219599813
v -0.0616950095 -0.62959981 -0.0736589208
v -0.00406083465 -0.485273451 -0.0752734616
v -0.0616950095 -0.483658969 -0.219599813
v -0.106839627 -0.612678289 -0.202678308
v -0.602678299 -0.612678289 0.293160379
v -0.619599819 -0.48365894 0.338304996
v -0.47527349 -0.485273451 0.395939171
v -0.473658979 -0.62959981 0.338304996
v -0.619599819 -0.336341053 0.338305056
v -0.602678299 -0.207321674 0.293160379
v -0.473658949 -0.190400153 0.338304996
v -0.47527349 -0.334726542 0.395939171
v -0.324726582 -0.334726542 0.395939171
v -0.326341063 -0.190400153 0.338304996
v -0.197321713 -0.207321674 0.293160379
v -0.180400163 -0.336341053 0.338304996
v -0.326341033 -0.62959981 0.338304996
v -0.324726552 -0.485273451 0.395939171
v -0.180400163 -0.48365894 0.338304996
v -0.197321698 -0.612678289 0.293160379
v -0.693160415 -0.612678289 -0.202678323
v -0.738304973 -0.48365894 -0.219599843
v -0.795939207 -0.48527348 -0.0752734616
v -0.738304973 -0.62959981 -0.0736589208
v -0.738304973 -0.336341053 -0.219599843
v -0.693160415 -0.207321703 -0.202678293
v -0.738304973 -0.190400153 -0.0736589357
v -0.795939207 -0.334726572 -0.0752734616
v -0.795939207 -0.334726542 0.0752734542
v -0.738304973 -0.190400153 0.0736589432
v -0.693160415 -0.207321718 0.202678308
v -0.738304973 -0.336341023 0.219599813
v -0.738304973 -0.62959981 0.0736589208
v -0.795939207 -0.485273451 0.0752734616
v -0.738304973 -0.483658969 0.219599813
v -0.693160415 -0.612678289 0.202678308
v -0.197321713 -0.703160405 0.202678293
v -0.180400163 -0.748304963 0.0736589432
v -0.324726552 -0.805939078 0.075273484
v -0.326341093 -0.748304963 0.219599843
v -0.180400163 -0.748304963 -0.0736589432
v -0.197321713 -0.703160405 -0.202678293
v -0.326341063 -0.748304963 -0.219599843
v -0.324726552 -0.805939198 -0.0752734393
v -0.47527346 -0.805939198 -0.0752734467
v -0.473658949 -0.748304963 -0.219599843
v -0.602678299 -0.703160405 -0.202678278
v -0.619599819 -0.748304963 -0.0736589655
v -0.473658949 -0.748304963 0.219599843
v -0.47527346 -0.805939198 0.0752734616
v -0.619599819 -0.748304963 0.0736589655
v -0.602678299 -0.703160405 0.202678293
v -0.197321683 -0.116839617 -0.202678293
v -0.180400163 -0.0716949999 -0.0736589432
v -0.324726552 -0.0140608847 -0.075273484
v -0.326341093 -0.0716949999 -0.219599843
v -0.180400163 -0.0716949999 0.0736589432
v -0.197321713 -0.116839617 0.202678293
v -0.326341063 -0.0716949999 0.219599843
v -0.324726552 -0.0140608251 0.0752734393
v -0.47527346 -0.0140608251 0.0752734467
v -0.473658949 -0.0716949999 0.219599843
v -0.602678299 -0.116839617 0.202678278
v -0.619599819 -0.0716949999 0.0736589655
v -0.473658949 -0.0716949999 -0.219599843
v -0.47527346 -0.0140608251 -0.0752734616
v -0.619599819 -0.0716949999 -0.0736589655
v -0.602678299 -0.116839617 -0.202678293
v -0.187814415 -0.551326215 -0.321098417
v -0.251205593 -0.484520763 -0.37470907
v -0.325479209 -0.558794379 -0.37470907
v -0.258673787 -0.622185588 -0.321098447
v -0.187814429 -0.268673778 -0.321098447
v -0.258673787 -0.19781442 -0.321098477
v -0.325479209 -0.261205584 -0.37470907
v -0.251205564 -0.33547923 -0.37470904
v -0.474520743 -0.261205614 -0.3747091
v -0.541326284 -0.19781442 -0.321098357
v -0.612185597 -0.268673778 -0.321098417
v -0.548794389 -0.33547923 -0.37470907
v -0.474520773 -0.558794379 -0.37470907
v -0.548794448 -0.484520763 -0.37470907
v -0.612185597 -0.551326215 -0.321098387
v -0.541326284 -0.622185588 -0.321098417
v -0.0789015889 -0.551326275 0.212185577
v -0.0252909064 -0.484520793 0.148794368
v -0.0252909362 -0.558794379 0.0745207667
v -0.0789015591 -0.622185588 0.141326234
v -0.0789015889 -0.268673778 0.212185547
v -0.0789016187 -0.19781442 0.141326204
v -0.0252909362 -0.261205554 0.0745207667
v -0.0252909362 -0.33547923 0.148794413
v -0.0252909362 -0.261205584 -0.0745207593
v -0.0789016187 -0.197814405 -0.141326204
v -0.0789015591 -0.268673778 -0.212185577
v -0.0252909362 -0.33547923 -0.148794383
v -0.025290966 -0.558794439 -0.0745207593
v -0.0252909362 -0.484520793 -0.148794383
v -0.0789015889 -0.551326275 -0.212185577
v -0.0789015889 -0.622185588 -0.141326234
v -0.612185597 -0.551326215 0.321098417
v -0.548794389 -0.484520763 0.37470907
v -0.474520802 -0.558794379 0.37470907
v -0.541326225 -0.622185588 0.321098447
v -0.612185597 -0.268673778 0.321098447
v -0.541326284 -0.19781442 0.321098387
v -0.474520802 -0.261205584 0.37470907
v -0.548794448 -0.33547923 0.37470904
v -0.325479269 -0.261205614 0.3747091
v -0.258673728 -0.19781442 0.321098357
v -0.187814385 -0.268673778 0.321098417
v -0.251205593 -0.33547923 0.37470907
v -0.325479239 -0.558794379 0.37470907
v -0.251205564 -0.484520763 0.37470907
v -0.187814429 -0.551326215 0.321098387
v -0.258673728 -0.622185528 0.321098387
v -0.721098423 -0.551326275 -0.212185577
v -0.774709105 -0.484520793 -0.148794368
v -0.774709105 -0.558794379 -0.0745207667
v -0.721098423 -0.622185588 -0.141326234
v -0.721098423 -0.268673748 -0.212185577
v -0.721098423 -0.19781442 -0.141326204
v -0.774709105 -0.261205554 -0.0745207667
v -0.774709105 -0.33547923 -0.148794413
v -0.774709105 -0.261205584 0.0745207593
v -0.721098423 -0.19781442 0.141326204
v -0.721098423 -0.268673778 0.212185577
v -0.774709105 -0.33547923 0.148794383
v -0.774709046 -0.558794439 0.0745207593
v -0.774709105 -0.484520793 0.148794383
v -0.721098423 -0.551326275 0.212185577
v -0.721098423 -0.622185588 0.141326234
v -0.187814429 -0.731098413 0.141326264
v -0.251205623 -0.784709096 0.0745207891
v -0.325479239 -0.784709096 0.148794413
v -0.258673787 -0.731098413 0.212185591
v -0.187814429 -0.731098413 -0.141326249
v -0.258673787 -0.731098413 -0.212185621
v -0.325479239 -0.784709096 -0.148794428
v -0.251205593 -0.784709096 -0.0745207667
v -0.474520773 -0.784709096 -0.148794413
v -0.541326225 -0.731098413 -0.212185591
v -0.612185538 -0.731098413 -0.141326234
v -0.548794389 -0.784709096 -0.0745207667
v -0.474520773 -0.784709036 0.148794428
v -0.548794389 -0.784709096 0.0745207891
v -0.612185597 -0.731098413 0.141326264
v -0.541326225 -0.731098413 0.212185591
v -0.187814429 -0.0889015794 -0.141326264
v -0.251205623 -0.0352908969 -0.0745207891
v -0.325479239 -0.0352909267 -0.148794413
v -0.258673787 -0.0889015794 -0.212185591
v -0.187814429 -0.0889015496 0.141326249
v -0.258673787 -0.0889015794 0.212185621
v -0.325479239 -0.0352909267 0.148794428
v -0.251205593 -0.0352909267 0.0745207667
v -0.474520773 -0.0352909267 0.148794413
v -0.541326225 -0.0889015794 0.212185591
v -0.612185538 -0.0889015794 0.141326234
v -0.548794389 -0.0352909267 0.0745207667
v -0.474520773 -0.0352909565 -0.148794428
v -0.548794389 -0.0352909267 -0.0745207891
v -0.612185597 -0.0889015496 -0.141326264
v -0.541326225 -0.0889015794 -0.212185591
v -0.324365258 -0.410000026 -0.402963281
v -0.177480772 -0.409999996 -0.344361991
v -0.400000006 -0.334365278 -0.402963281
v -0.400000006 -0.187480763 -0.344361991
v -0.475634694 -0.409999996 -0.402963281
v -0.622519255 -0.409999996 -0.344361991
v -0.399999946 -0.485634714 -0.402963281
v -0.400000006 -0.632519245 -0.344361991
v 0.00296324492 -0.410000056 0.0756347105
v -0.0556380153 -0.409999996 0.222519234
v 0.00296330452 -0.334365308 0
v -0.0556380153 -0.187480763 4.36455344e-10
v 0.00296327472 -0.409999996 -0.0756347179
v -0.0556379855 -0.409999996 -0.222519264
v 0.00296327472 -0.485634714 1.76668919e-08
v -0.0556380153 -0.632519245 0
v -0.475634754 -0.410000026 0.402963281
v -0.622519255 -0.409999996 0.344361991
v -0.400000006 -0.334365278 0.402963281
v -0.400000006 -0.187480763 0.344361991
v -0.324365318 -0.409999996 0.402963281
v -0.177480772 -0.409999996 0.344361991
v -0.400000066 -0.485634714 0.402963281
v -0.400000006 -0.632519245 0.344361991
v -0.802963257 -0.410000056 -0.0756347105
v -0.744361997 -0.409999996 -0.222519234
v -0.802963316 -0.334365308 0
v -0.744361997 -0.187480763 -4.36455344e-10
v -0.802963257 -0.409999996 0.0756347179
v -0.744361997 -0.409999996 0.222519264
v -0.802963257 -0.485634714 -1.76668919e-08
v -0.744361997 -0.632519245 0
v -0.324365288 -0.812963247 6.0950768e-08
v -0.177480772 -0.754361987 -4.36455344e-10
v -0.400000006 -0.812963307 -0.075634703
v -0.400000006 -0.754361987 -0.222519234
v -0.475634724 -0.812963247 4.4167231e-10
v -0.622519255 -0.754361987 0
v -0.399999976 -0.812963247 0.0756347254
v -0.400000006 -0.754361987 0.222519234
v -0.324365288 -0.00703674555 -6.0950768e-08
v -0.177480772 -0.0656380057 4.36455344e-10
v -0.400000006 -0.00703668594 0.075634703
v -0.400000006 -0.0656380057 0.222519234
v -0.475634724 -0.00703671575 -4.4167231e-10
v -0.622519255 -0.0656379759 0
v -0.399999976 -0.00703671575 -0.0756347254
v -0.400000006 -0.0656380057 -0.222519234
v -0.114744037 -0.483198434 -0.285256028
v -0.145995259 -0.607644081 -0.254004747
v -0.114744037 -0.336801559 -0.285256028
v -0.145995259 -0.212355912 -0.254004776
v -0.326801598 -0.124743968 -0.285255998
v -0.202355891 -0.15599525 -0.254004747
v -0.473198444 -0.124743968 -0.285255969
v -0.597644091 -0.15599525 -0.254004687
v -0.685256004 -0.336801559 -0.285256028
v -0.654004693 -0.212355882 -0.254004747
v -0.685256004 -0.483198464 -0.285256028
v -0.654004753 -0.607644081 -0.254004747
v -0.473198444 -0.695255995 -0.285255998
v -0.597644091 -0.664004743 -0.254004747
v -0.326801538 -0.695255995 -0.285255969
v -0.202355921 -0.664004743 -0.254004747
v -0.114744037 -0.483198464 0.285256028
v -0.145995259 -0.607644081 0.254004747
v -0.114744037 -0.336801559 0.285256028
v -0.145995259 -0.212355882 0.254004747
v -0.114743978 -0.124744028 0.0731984526
v -0.145995259 -0.15599525 0.1976441
v -0.114743978 -0.124743998 -0.0731984377
v -0.145995259 -0.15599525 -0.1976441
v -0.114743978 -0.695255995 -0.0731984377
v -0.145995259 -0.664004683 -0.197644114
v -0.114743978 -0.695255995 0.0731984302
v -0.145995259 -0.664004743 0.1976441
v -0.685256004 -0.483198434 0.285256028
v -0.654004753 -0.607644081 0.254004747
v -0.685256004 -0.336801559 0.285256028
v -0.654004753 -0.212355882 0.254004747
v -0.473198444 -0.124743968 0.285255998
v -0.597644091 -0.15599525 0.254004747
v -0.326801568 -0.124743968 0.285255969
v -0.202355921 -0.15599525 0.254004747
v -0.326801568 -0.695255995 0.285255969
v -0.202355891 -0.664004743 0.254004687
v -0.473198444 -0.695255995 0.285255969
v -0.597644091 -0.664004743 0.254004687
v -0.685256004 -0.124744028 -0.0731984526
v -0.654004753 -0.15599525 -0.197644085
v -0.685256004 -0.124743998 0.0731984377
v -0.654004753 -0.15599525 0.19764407
v -0.685256004 -0.695255995 0.0731984377
v -0.654004812 -0.664004743 0.197644114
v -0.685256004 -0.695255995 -0.0731984302
v -0.654004812 -0.664004743 -0.197644085
g 
f 2 354 99 340
f 340 99 195 75
f 99 198 27 195
f 354 82 198 99
f 75 195 100 339
f 339 100 292 15
f 100 196 51 292
f 195 27 196 100
f 27 197 101 196
f 196 101 291 51
f 101 297 9 291
f 197 54 297 101
f 82 353 102 198
f 198 102 197 27
f 102 298 54 197
f 353 18 298 102
f 15 292 103 341
f 341 103 199 76
f 103 202 28 199
f 292 51 202 103
f 76 199 104 342
f 342 104 344 6
f 104 200 77 344
f 199 28 200 104
f 28 201 105 200
f 200 105 343 77
f 105 294 16 343
f 201 52 294 105
f 51 291 106 202
f 202 106 201 28
f 106 293 52 201
f 291 9 293 106
f 9 295 107 293
f 293 107 203 52
f 107 206 29 203
f 295 53 206 107
f 52 203 108 294
f 294 108 345 16
f 108 204 78 345
f 203 29 204 108
f 29 205 109 204
f 204 109 346 78
f 109 348 5 346
f 205 79 348 109
f 53 296 110 206
f 206 110 205 29
f 110 347 79 205
f 296 17 347 110
f 18 351 111 298
f 298 111 207 54
f 111 210 30 207
f 351 81 210 111
f 54 207 112 297
f 297 112 295 9
f 112 208 53 295
f 207 30 208 112
f 30 209 113 208
f 208 113 296 53
f 113 349 17 296
f 209 80 349 113
f 81 352 114 210
f 210 114 209 30
f 114 350 80 209
f 352 1 350 114
f 3 366 115 356
f 356 115 211 83
f 115 214 31 211
f 366 88 214 115
f 83 211 116 355
f 355 116 300 19
f 116 212 55 300
f 211 31 212 116
f 31 213 117 212
f 212 117 299 55
f 117 305 10 299
f 213 58 305 117
f 88 365 118 214
f 214 118 213 31
f 118 306 58 213
f 365 21 306 118
f 19 300 119 357
f 357 119 215 84
f 119 218 32 215
f 300 55 218 119
f 84 215 120 358
f 358 120 360 7
f 120 216 85 360
f 215 32 216 120
f 32 217 121 216
f 216 121 359 85
f 121 302 20 359
f 217 56 302 121
f 55 299 122 218
f 218 122 217 32
f 122 301 56 217
f 299 10 301 122
f 10 303 123 301
f 301 123 219 56
f 123 222 33 219
f 303 57 222 123
f 56 219 124 302
f 302 124 361 20
f 124 220 86 361
f 219 33 220 124
f 33 221 125 220
f 220 125 362 86
f 125 342 6 362
f 221 76 342 125
f 57 304 126 222
f 222 126 221 33
f 126 341 76 221
f 304 15 341 126
f 21 363 127 306
f 306 127 223 58
f 127 226 34 223
f 363 87 226 127
f 58 223 128 305
f 305 128 303 10
f 128 224 57 303
f 223 34 224 128
f 34 225 129 224
f 224 129 304 57
f 129 339 15 304
f 225 75 339 129
f 87 364 130 226
f 226 130 225 34
f 130 340 75 225
f 364 2 340 130
f 4 378 131 368
f 368 131 227 89
f 131 230 35 227
f 378 94 230 131
f 89 227 132 367
f 367 132 308 22
f 132 228 59 308
f 227 35 228 132
f 35 229 133 228
f 228 133 307 59
f 133 313 11 307
f 229 62 313 133
f 94 377 134 230
f 230 134 229 35
f 134 314 62 229
f 377 24 314 134
f 22 308 135 369
f 369 135 231 90
f 135 234 36 231
f 308 59 234 135
f 90 231 136 370
f 370 136 372 8
f 136 232 91 372
f 231 36 232 136
f 36 233 137 232
f 232 137 371 91
f 137 310 23 371
f 233 60 310 137
f 59 307 138 234
f 234 138 233 36
f 138 309 60 233
f 307 11 309 138
f 11 311 139 309
f 309 139 235 60
f 139 238 37 235
f 311 61 238 139
f 60 235 140 310
f 310 140 373 23
f 140 236 92 373
f 235 37 236 140
f 37 237 141 236
f 236 141 374 92
f 141 358 7 374
f 237 84 358 141
f 61 312 142 238
f 238 142 237 37
f 142 357 84 237
f 312 19 357 142
f 24 375 143 314
f 314 143 239 62
f 143 242 38 239
f 375 93 242 143
f 62 239 144 313
f 313 144 311 11
f 144 240 61 311
f 239 38 240 144
f 38 241 145 240
f 240 145 312 61
f 145 355 19 312
f 241 83 355 145
f 93 376 146 242
f 242 146 241 38
f 146 356 83 241
f 376 3 356 146
f 1 386 147 350
f 350 147 243 80
f 147 246 39 243
f 386 98 246 147
f 80 243 148 349
f 349 148 316 17
f 148 244 63 316
f 243 39 244 148
f 39 245 149 244
f 244 149 315 63
f 149 321 12 315
f 245 66 321 149
f 98 385 150 246
f 246 150 245 39
f 150 322 66 245
f 385 26 322 150
f 17 316 151 347
f 347 151 247 79
f 151 250 40 247
f 316 63 250 151
f 79 247 152 348
f 348 152 380 5
f 152 248 95 380
f 247 40 248 152
f 40 249 153 248
f 248 153 379 95
f 153 318 25 379
f 249 64 318 153
f 63 315 154 250
f 250 154 249 40
f 154 317 64 249
f 315 12 317 154
f 12 319 155 317
f 317 155 251 64
f 155 254 41 251
f 319 65 254 155
f 64 251 156 318
f 318 156 381 25
f 156 252 96 381
f 251 41 252 156
f 41 253 157 252
f 252 157 382 96
f 157 370 8 382
f 253 90 370 157
f 65 320 158 254
f 254 158 253 41
f 158 369 90 253
f 320 22 369 158
f 26 383 159 322
f 322 159 255 66
f 159 258 42 255
f 383 97 258 159
f 66 255 160 321
f 321 160 319 12
f 160 256 65 319
f 255 42 256 160
f 42 257 161 256
f 256 161 320 65
f 161 367 22 320
f 257 89 367 161
f 97 384 162 258
f 258 162 257 42
f 162 368 89 257
f 384 4 368 162
f 3 376 163 366
f 366 163 259 88
f 163 262 43 259
f 376 93 262 163
f 88 259 164 365
f 365 164 324 21
f 164 260 67 324
f 259 43 260 164
f 43 261 165 260
f 260 165 323 67
f 165 329 13 323
f 261 70 329 165
f 93 375 166 262
f 262 166 261 43
f 166 330 70 261
f 375 24 330 166
f 21 324 167 363
f 363 167 263 87
f 167 266 44 263
f 324 67 266 167
f 87 263 168 364
f 364 168 354 2
f 168 264 82 354
f 263 44 264 168
f 44 265 169 264
f 264 169 353 82
f 169 326 18 353
f 265 68 326 169
f 67 323 170 266
f 266 170 265 44
f 170 325 68 265
f 323 13 325 170
f 13 327 171 325
f 325 171 267 68
f 171 270 45 267
f 327 69 270 171
f 68 267 172 326
f 326 172 351 18
f 172 268 81 351
f 267 45 268 172
f 45 269 173 268
f 268 173 352 81
f 173 386 1 352
f 269 98 386 173
f 69 328 174 270
f 270 174 269 45
f 174 385 98 269
f 328 26 385 174
f 24 377 175 330
f 330 175 271 70
f 175 274 46 271
f 377 94 274 175
f 70 271 176 329
f 329 176 327 13
f 176 272 69 327
f 271 46 272 176
f 46 273 177 272
f 272 177 328 69
f 177 383 26 328
f 273 97 383 177
f 94 378 178 274
f 274 178 273 46
f 178 384 97 273
f 378 4 384 178
f 6 344 179 362
f 362 179 275 86
f 179 278 47 275
f 344 77 278 179
f 86 275 180 361
f 361 180 332 20
f 180 276 71 332
f 275 47 276 180
f 47 277 181 276
f 276 181 331 71
f 181 337 14 331
f 277 74 337 181
f 77 343 182 278
f 278 182 277 47
f 182 338 74 277
f 343 16 338 182
f 20 332 183 359
f 359 183 279 85
f 183 282 48 279
f 332 71 282 183
f 85 279 184 360
f 360 184 374 7
f 184 280 92 374
f 279 48 280 184
f 48 281 185 280
f 280 185 373 92
f 185 334 23 373
f 281 72 334 185
f 71 331 186 282
f 282 186 281 48
f 186 333 72 281
f 331 14 333 186
f 14 335 187 333
f 333 187 283 72
f 187 286 49 283
f 335 73 286 187
f 72 283 188 334
f 334 188 371 23
f 188 284 91 371
f 283 49 284 188
f 49 285 189 284
f 284 189 372 91
f 189 382 8 372
f 285 96 382 189
f 73 336 190 286
f 286 190 285 49
f 190 381 96 285
f 336 25 381 190
f 16 345 191 338
f 338 191 287 74
f 191 290 50 287
f 345 78 290 191
f 74 287 192 337
f 337 192 335 14
f 192 288 73 335
f 287 50 288 192
f 50 289 193 288
f 288 193 336 73
f 193 379 25 336
f 289 95 379 193
f 78 346 194 290
f 290 194 289 50
f 194 380 95 289
f 346 5 380 194
