# File exported by Houdini 20.0.688 (www.sidefx.com)
# 8 points
# 8 vertices
# 2 primitives
# Bounds: [-1.25, -0.5, -1] to [1.25, 0.5, 1]
g 
v 1.25 0.5 -1
v -1.25 0.5 -1
v 1.25 -0.5 -1
v -1.25 -0.5 -1
v -1.25 0.5 1
v 1.25 0.5 1
v -1.25 -0.5 1
v 1.25 -0.5 1
vt 0.995117247 0.498535156 0
vt 0.001953125 0.498535126 0
vt 0.00195314921 0.001953125 0
vt 0.995117247 0.00195314013 0
vt 0.995117247 0.997558594 0
vt 0.001953125 0.997558534 0
vt 0.00195314782 0.500976562 0
vt 0.995117247 0.500976562 0
vn -1 0 -0
vn -1 -0 -0
vn -1 -0 0
vn -1 -0 -0
vn 1 -0 -0
vn 1 -0 -0
vn 1 0 0
vn 1 -0 -0
g 
f 3/1/1 8/2/2 6/3/3 1/4/4
f 7/5/5 4/6/6 2/7/7 5/8/8
